G04 ---------------------------- Layer name :TOP SOLDER LAYER*
G04 EasyEDA v5.8.20, Sat, 24 Nov 2018 05:51:01 GMT*
G04 e67e47d913b1430cad7dbea7a16fc948*
G04 Gerber Generator version 0.2*
G04 Scale: 100 percent, Rotated: No, Reflected: No *
G04 Dimensions in inches *
G04 leading zeros omitted , absolute positions ,2 integer and 4 decimal *
%FSLAX24Y24*%
%MOIN*%
G90*
G70D02*

%ADD42C,0.086740*%
%ADD43C,0.047370*%
%ADD44C,0.067055*%
%ADD45R,0.067055X0.067055*%
%ADD46R,0.106425X0.086740*%
%ADD47C,0.082000*%
%ADD48R,0.043700X0.043700*%
%ADD49C,0.055000*%
%ADD50C,0.083000*%
%ADD51C,0.118000*%
%ADD52C,0.126110*%
%ADD53C,0.063120*%
%ADD54C,0.068000*%
%ADD55C,0.059181*%
%ADD56C,0.070000*%
%ADD57R,0.070000X0.070000*%

%LPD*%
G54D42*
G01X22602Y9750D02*
G01X22797Y9750D01*
G01X22602Y8750D02*
G01X22797Y8750D01*
G01X22602Y5050D02*
G01X22797Y5050D01*
G01X22602Y4050D02*
G01X22797Y4050D01*
G54D43*
G01X21052Y18750D02*
G01X21447Y18750D01*
G01X21052Y19250D02*
G01X21447Y19250D01*
G01X21052Y19750D02*
G01X21447Y19750D01*
G01X25525Y10827D02*
G01X26076Y10827D01*
G01X25523Y2172D02*
G01X26074Y2172D01*
G54D44*
G01X7200Y2800D03*
G01X7200Y3800D03*
G01X7200Y4800D03*
G01X7200Y5800D03*
G01X7200Y6800D03*
G01X7200Y7800D03*
G01X7200Y8800D03*
G01X7200Y9800D03*
G01X7200Y10800D03*
G01X7200Y11800D03*
G01X7200Y12800D03*
G01X7200Y13800D03*
G01X7200Y14800D03*
G01X7200Y15800D03*
G01X4200Y2800D03*
G01X4200Y3800D03*
G01X4200Y4800D03*
G01X4200Y5800D03*
G01X4200Y6800D03*
G01X4200Y7800D03*
G01X4200Y8800D03*
G01X4200Y9800D03*
G01X4200Y10800D03*
G01X4200Y11800D03*
G01X4200Y12800D03*
G01X4200Y13800D03*
G01X4200Y14800D03*
G54D45*
G01X4200Y15800D03*
G54D46*
G01X22700Y7750D03*
G01X22700Y3050D03*
G54D47*
G01X4200Y17500D03*
G01X7200Y17500D03*
G54D48*
G01X1900Y8259D03*
G01X1900Y6339D03*
G54D49*
G01X2909Y10330D03*
G01X1909Y10330D03*
G01X2909Y4130D03*
G01X1909Y4130D03*
G54D47*
G01X16500Y17600D03*
G01X20500Y17600D03*
G54D50*
G01X21400Y16200D03*
G01X18400Y16200D03*
G54D51*
G01X28890Y15038D03*
G01X23300Y17400D03*
G01X24086Y19761D03*
G01X24086Y15038D03*
G01X28890Y19761D03*
G54D52*
G01X29500Y8400D03*
G01X29500Y10367D03*
G54D53*
G01X18727Y12700D03*
G01X19672Y12700D03*
G54D47*
G01X18700Y11000D03*
G01X21700Y11000D03*
G54D54*
G01X20400Y4900D03*
G01X20400Y3900D03*
G01X20400Y8500D03*
G01X20400Y7500D03*
G54D53*
G01X24072Y12700D03*
G01X23127Y12700D03*
G54D47*
G01X26200Y13600D03*
G01X30200Y13600D03*
G54D55*
G01X9706Y3000D03*
G01X10493Y3000D03*
G54D56*
G01X9700Y19500D03*
G01X10700Y19500D03*
G01X11700Y19500D03*
G01X12700Y19500D03*
G01X13700Y19500D03*
G54D57*
G01X14700Y19500D03*
G54D47*
G01X7300Y20200D03*
G01X3300Y20200D03*
G54D54*
G01X2000Y14800D03*
G01X2000Y13800D03*
G01X2000Y12800D03*
G01X2000Y11800D03*
G54D52*
G01X29400Y3100D03*
G01X29400Y5067D03*
G54D53*
G01X13600Y3373D03*
G01X13600Y2426D03*
G01X15700Y3373D03*
G01X15700Y2426D03*
G54D47*
G01X9200Y14100D03*
G01X13200Y14100D03*
G01X9200Y12900D03*
G01X13200Y12900D03*
G01X3300Y21700D03*
G01X7300Y21700D03*
G54D42*
G01X814Y18579D03*
G01X814Y16020D03*
G01X2585Y16020D03*
G01X2585Y18579D03*
M00*
M02*
