G04 ---------------------------- Layer name :BOTTOM LAYER*
G04 EasyEDA v5.8.20, Sat, 24 Nov 2018 05:51:01 GMT*
G04 e67e47d913b1430cad7dbea7a16fc948*
G04 Gerber Generator version 0.2*
G04 Scale: 100 percent, Rotated: No, Reflected: No *
G04 Dimensions in inches *
G04 leading zeros omitted , absolute positions ,2 integer and 4 decimal *
%FSLAX24Y24*%
%MOIN*%
G90*
G70D02*

%ADD11C,0.059055*%
%ADD12R,0.059055X0.059055*%
%ADD13R,0.098425X0.078740*%
%ADD14C,0.074000*%
%ADD15R,0.035700X0.035700*%
%ADD16C,0.047000*%
%ADD17C,0.075000*%
%ADD18C,0.110000*%
%ADD19C,0.118110*%
%ADD20C,0.055120*%
%ADD21C,0.060000*%
%ADD22C,0.051181*%
%ADD23C,0.062000*%
%ADD24R,0.062000X0.062000*%
%ADD25C,0.078740*%
%ADD26C,0.039370*%
%ADD27C,0.030000*%
%ADD28C,0.050000*%
%ADD29C,0.020000*%
%ADD30C,0.080000*%
%ADD31C,0.150000*%
%ADD32C,0.120000*%
%ADD33C,0.100000*%

%LPD*%
G36*
G01X9451Y400D02*
G01X600Y400D01*
G01X600Y22700D01*
G01X31700Y22700D01*
G01X31700Y19172D01*
G01X31636Y19236D01*
G01X31627Y19245D01*
G01X31618Y19253D01*
G01X31609Y19262D01*
G01X31600Y19270D01*
G01X31591Y19278D01*
G01X31581Y19286D01*
G01X31572Y19294D01*
G01X31562Y19302D01*
G01X31552Y19310D01*
G01X31542Y19317D01*
G01X31533Y19325D01*
G01X31522Y19332D01*
G01X31512Y19339D01*
G01X31502Y19346D01*
G01X31492Y19353D01*
G01X31481Y19360D01*
G01X31471Y19366D01*
G01X31460Y19373D01*
G01X31450Y19379D01*
G01X31439Y19385D01*
G01X31428Y19391D01*
G01X31417Y19397D01*
G01X31406Y19403D01*
G01X31395Y19408D01*
G01X31384Y19413D01*
G01X31372Y19419D01*
G01X31361Y19424D01*
G01X31350Y19429D01*
G01X31338Y19433D01*
G01X31327Y19438D01*
G01X31315Y19442D01*
G01X31303Y19447D01*
G01X31292Y19451D01*
G01X31280Y19455D01*
G01X31268Y19458D01*
G01X31256Y19462D01*
G01X31244Y19466D01*
G01X31232Y19469D01*
G01X31220Y19472D01*
G01X31208Y19475D01*
G01X31196Y19478D01*
G01X31184Y19480D01*
G01X31172Y19483D01*
G01X31160Y19485D01*
G01X31148Y19487D01*
G01X31135Y19489D01*
G01X31123Y19491D01*
G01X31111Y19493D01*
G01X31099Y19494D01*
G01X31086Y19495D01*
G01X31074Y19496D01*
G01X31061Y19497D01*
G01X31049Y19498D01*
G01X31037Y19499D01*
G01X31024Y19499D01*
G01X31012Y19499D01*
G01X31000Y19500D01*
G01X30425Y19500D01*
G01X29527Y20398D01*
G01X29494Y20429D01*
G01X29460Y20458D01*
G01X29425Y20486D01*
G01X29388Y20511D01*
G01X29350Y20535D01*
G01X29311Y20557D01*
G01X29271Y20577D01*
G01X29230Y20595D01*
G01X29188Y20611D01*
G01X29145Y20625D01*
G01X29102Y20636D01*
G01X29058Y20646D01*
G01X29014Y20653D01*
G01X28969Y20658D01*
G01X28924Y20661D01*
G01X28879Y20661D01*
G01X28834Y20660D01*
G01X28790Y20656D01*
G01X28745Y20650D01*
G01X28701Y20641D01*
G01X28658Y20631D01*
G01X28615Y20618D01*
G01X28572Y20603D01*
G01X28531Y20586D01*
G01X28490Y20567D01*
G01X28450Y20546D01*
G01X28412Y20524D01*
G01X28374Y20499D01*
G01X28338Y20472D01*
G01X28303Y20444D01*
G01X28270Y20414D01*
G01X28238Y20382D01*
G01X28208Y20349D01*
G01X28180Y20314D01*
G01X28153Y20278D01*
G01X28128Y20240D01*
G01X28106Y20202D01*
G01X28085Y20162D01*
G01X28066Y20121D01*
G01X28049Y20080D01*
G01X28034Y20037D01*
G01X28021Y19994D01*
G01X28011Y19951D01*
G01X28002Y19907D01*
G01X27996Y19862D01*
G01X27992Y19818D01*
G01X27991Y19773D01*
G01X27991Y19728D01*
G01X27994Y19683D01*
G01X27999Y19638D01*
G01X28006Y19594D01*
G01X28016Y19550D01*
G01X28027Y19507D01*
G01X28041Y19464D01*
G01X28057Y19422D01*
G01X28075Y19381D01*
G01X28095Y19341D01*
G01X28117Y19302D01*
G01X28141Y19264D01*
G01X28166Y19227D01*
G01X28194Y19192D01*
G01X28223Y19158D01*
G01X28254Y19125D01*
G01X29416Y17963D01*
G01X29425Y17954D01*
G01X29434Y17946D01*
G01X29443Y17937D01*
G01X29452Y17929D01*
G01X29461Y17921D01*
G01X29471Y17913D01*
G01X29480Y17905D01*
G01X29490Y17897D01*
G01X29500Y17889D01*
G01X29510Y17882D01*
G01X29519Y17874D01*
G01X29530Y17867D01*
G01X29540Y17860D01*
G01X29550Y17853D01*
G01X29560Y17846D01*
G01X29571Y17839D01*
G01X29581Y17833D01*
G01X29592Y17826D01*
G01X29602Y17820D01*
G01X29613Y17814D01*
G01X29624Y17808D01*
G01X29635Y17802D01*
G01X29646Y17796D01*
G01X29657Y17791D01*
G01X29668Y17786D01*
G01X29680Y17780D01*
G01X29691Y17775D01*
G01X29702Y17770D01*
G01X29714Y17766D01*
G01X29725Y17761D01*
G01X29737Y17757D01*
G01X29749Y17752D01*
G01X29760Y17748D01*
G01X29772Y17744D01*
G01X29784Y17741D01*
G01X29796Y17737D01*
G01X29808Y17733D01*
G01X29820Y17730D01*
G01X29832Y17727D01*
G01X29844Y17724D01*
G01X29856Y17721D01*
G01X29868Y17719D01*
G01X29880Y17716D01*
G01X29892Y17714D01*
G01X29904Y17712D01*
G01X29917Y17710D01*
G01X29929Y17708D01*
G01X29941Y17706D01*
G01X29953Y17705D01*
G01X29966Y17704D01*
G01X29978Y17703D01*
G01X29991Y17702D01*
G01X30003Y17701D01*
G01X30015Y17700D01*
G01X30028Y17700D01*
G01X30040Y17700D01*
G01X30052Y17700D01*
G01X30200Y17700D01*
G01X30200Y14500D01*
G01X30155Y14498D01*
G01X30110Y14495D01*
G01X30065Y14489D01*
G01X30021Y14482D01*
G01X29977Y14472D01*
G01X29934Y14460D01*
G01X29892Y14445D01*
G01X29850Y14429D01*
G01X29809Y14410D01*
G01X29769Y14390D01*
G01X29730Y14367D01*
G01X29693Y14343D01*
G01X29656Y14317D01*
G01X29621Y14289D01*
G01X29587Y14259D01*
G01X29555Y14228D01*
G01X29525Y14195D01*
G01X29496Y14161D01*
G01X29469Y14125D01*
G01X29443Y14088D01*
G01X29420Y14050D01*
G01X29399Y14010D01*
G01X29379Y13970D01*
G01X29362Y13928D01*
G01X29346Y13886D01*
G01X29333Y13843D01*
G01X29322Y13800D01*
G01X29313Y13756D01*
G01X29306Y13711D01*
G01X29302Y13667D01*
G01X29300Y13622D01*
G01X29300Y13577D01*
G01X29302Y13532D01*
G01X29306Y13488D01*
G01X29313Y13443D01*
G01X29322Y13399D01*
G01X29333Y13356D01*
G01X29346Y13313D01*
G01X29362Y13271D01*
G01X29379Y13229D01*
G01X29399Y13189D01*
G01X29420Y13150D01*
G01X29443Y13111D01*
G01X29469Y13074D01*
G01X29496Y13038D01*
G01X29525Y13004D01*
G01X29555Y12971D01*
G01X29587Y12940D01*
G01X29621Y12910D01*
G01X29656Y12882D01*
G01X29693Y12856D01*
G01X29730Y12832D01*
G01X29769Y12809D01*
G01X29809Y12789D01*
G01X29850Y12770D01*
G01X29892Y12754D01*
G01X29934Y12739D01*
G01X29977Y12727D01*
G01X30021Y12717D01*
G01X30065Y12710D01*
G01X30110Y12704D01*
G01X30155Y12701D01*
G01X30200Y12700D01*
G01X30200Y9300D01*
G01X29500Y9300D01*
G01X29455Y9298D01*
G01X29410Y9295D01*
G01X29365Y9289D01*
G01X29321Y9282D01*
G01X29277Y9272D01*
G01X29234Y9260D01*
G01X29192Y9245D01*
G01X29150Y9229D01*
G01X29109Y9210D01*
G01X29069Y9190D01*
G01X29030Y9167D01*
G01X28993Y9143D01*
G01X28956Y9117D01*
G01X28921Y9089D01*
G01X28887Y9059D01*
G01X28855Y9028D01*
G01X28825Y8995D01*
G01X28796Y8961D01*
G01X28769Y8925D01*
G01X28743Y8888D01*
G01X28720Y8850D01*
G01X28699Y8810D01*
G01X28679Y8770D01*
G01X28662Y8728D01*
G01X28646Y8686D01*
G01X28633Y8643D01*
G01X28622Y8600D01*
G01X28613Y8556D01*
G01X28606Y8511D01*
G01X28602Y8467D01*
G01X28600Y8422D01*
G01X28600Y8377D01*
G01X28602Y8332D01*
G01X28606Y8288D01*
G01X28613Y8243D01*
G01X28622Y8199D01*
G01X28633Y8156D01*
G01X28646Y8113D01*
G01X28662Y8071D01*
G01X28679Y8029D01*
G01X28699Y7989D01*
G01X28720Y7950D01*
G01X28743Y7911D01*
G01X28769Y7874D01*
G01X28796Y7838D01*
G01X28825Y7804D01*
G01X28855Y7771D01*
G01X28887Y7740D01*
G01X28921Y7710D01*
G01X28956Y7682D01*
G01X28993Y7656D01*
G01X29030Y7632D01*
G01X29069Y7609D01*
G01X29109Y7589D01*
G01X29150Y7570D01*
G01X29192Y7554D01*
G01X29234Y7539D01*
G01X29277Y7527D01*
G01X29321Y7517D01*
G01X29365Y7510D01*
G01X29410Y7504D01*
G01X29455Y7501D01*
G01X29500Y7500D01*
G01X30700Y7500D01*
G01X30712Y7500D01*
G01X30724Y7500D01*
G01X30737Y7500D01*
G01X30749Y7501D01*
G01X30761Y7502D01*
G01X30774Y7503D01*
G01X30786Y7504D01*
G01X30799Y7505D01*
G01X30811Y7506D01*
G01X30823Y7508D01*
G01X30835Y7510D01*
G01X30848Y7512D01*
G01X30860Y7514D01*
G01X30872Y7516D01*
G01X30884Y7519D01*
G01X30896Y7521D01*
G01X30908Y7524D01*
G01X30920Y7527D01*
G01X30932Y7530D01*
G01X30944Y7533D01*
G01X30956Y7537D01*
G01X30968Y7541D01*
G01X30980Y7544D01*
G01X30992Y7548D01*
G01X31003Y7552D01*
G01X31015Y7557D01*
G01X31027Y7561D01*
G01X31038Y7566D01*
G01X31050Y7570D01*
G01X31061Y7575D01*
G01X31072Y7580D01*
G01X31084Y7586D01*
G01X31095Y7591D01*
G01X31106Y7596D01*
G01X31117Y7602D01*
G01X31128Y7608D01*
G01X31139Y7614D01*
G01X31150Y7620D01*
G01X31160Y7626D01*
G01X31171Y7633D01*
G01X31181Y7639D01*
G01X31192Y7646D01*
G01X31202Y7653D01*
G01X31212Y7660D01*
G01X31222Y7667D01*
G01X31233Y7674D01*
G01X31242Y7682D01*
G01X31252Y7689D01*
G01X31262Y7697D01*
G01X31272Y7705D01*
G01X31281Y7713D01*
G01X31291Y7721D01*
G01X31300Y7729D01*
G01X31309Y7737D01*
G01X31318Y7746D01*
G01X31327Y7754D01*
G01X31336Y7763D01*
G01X31700Y8127D01*
G01X31700Y400D01*
G01X27548Y400D01*
G01X28324Y1175D01*
G01X28331Y1182D01*
G01X28338Y1190D01*
G01X28344Y1197D01*
G01X28351Y1205D01*
G01X28358Y1212D01*
G01X28364Y1220D01*
G01X28370Y1228D01*
G01X28377Y1236D01*
G01X28383Y1244D01*
G01X28388Y1252D01*
G01X28394Y1260D01*
G01X28400Y1268D01*
G01X28405Y1277D01*
G01X28411Y1285D01*
G01X28416Y1294D01*
G01X28421Y1302D01*
G01X28426Y1311D01*
G01X28430Y1320D01*
G01X28435Y1329D01*
G01X28439Y1338D01*
G01X28444Y1347D01*
G01X28448Y1356D01*
G01X28452Y1365D01*
G01X28456Y1375D01*
G01X28459Y1384D01*
G01X28463Y1393D01*
G01X28466Y1403D01*
G01X28470Y1412D01*
G01X28473Y1422D01*
G01X28475Y1431D01*
G01X28478Y1441D01*
G01X28481Y1451D01*
G01X28483Y1460D01*
G01X28485Y1470D01*
G01X28487Y1480D01*
G01X28489Y1490D01*
G01X28491Y1500D01*
G01X28493Y1510D01*
G01X28494Y1520D01*
G01X28495Y1529D01*
G01X28496Y1539D01*
G01X28497Y1549D01*
G01X28498Y1559D01*
G01X28499Y1569D01*
G01X28499Y1579D01*
G01X28499Y1589D01*
G01X28500Y1600D01*
G01X28500Y3000D01*
G01X28499Y3010D01*
G01X28499Y3020D01*
G01X28499Y3030D01*
G01X28498Y3040D01*
G01X28497Y3050D01*
G01X28496Y3060D01*
G01X28495Y3070D01*
G01X28494Y3079D01*
G01X28493Y3089D01*
G01X28491Y3099D01*
G01X28489Y3109D01*
G01X28487Y3119D01*
G01X28485Y3129D01*
G01X28483Y3139D01*
G01X28481Y3148D01*
G01X28478Y3158D01*
G01X28475Y3168D01*
G01X28473Y3177D01*
G01X28470Y3187D01*
G01X28466Y3196D01*
G01X28463Y3206D01*
G01X28459Y3215D01*
G01X28456Y3224D01*
G01X28452Y3234D01*
G01X28448Y3243D01*
G01X28444Y3252D01*
G01X28439Y3261D01*
G01X28435Y3270D01*
G01X28430Y3279D01*
G01X28426Y3288D01*
G01X28421Y3297D01*
G01X28416Y3305D01*
G01X28411Y3314D01*
G01X28405Y3322D01*
G01X28400Y3331D01*
G01X28394Y3339D01*
G01X28388Y3347D01*
G01X28383Y3355D01*
G01X28377Y3363D01*
G01X28370Y3371D01*
G01X28364Y3379D01*
G01X28358Y3387D01*
G01X28351Y3394D01*
G01X28344Y3402D01*
G01X28338Y3409D01*
G01X28331Y3417D01*
G01X28324Y3424D01*
G01X27631Y4116D01*
G01X27635Y4115D01*
G01X27647Y4110D01*
G01X27660Y4106D01*
G01X27672Y4102D01*
G01X27685Y4098D01*
G01X27698Y4094D01*
G01X27711Y4090D01*
G01X27723Y4086D01*
G01X27736Y4083D01*
G01X27749Y4080D01*
G01X27762Y4077D01*
G01X27775Y4074D01*
G01X27788Y4071D01*
G01X27801Y4068D01*
G01X27814Y4066D01*
G01X27827Y4064D01*
G01X27840Y4062D01*
G01X27854Y4060D01*
G01X27867Y4058D01*
G01X27880Y4056D01*
G01X27893Y4055D01*
G01X27907Y4054D01*
G01X27920Y4053D01*
G01X27933Y4052D01*
G01X27946Y4051D01*
G01X27960Y4050D01*
G01X27973Y4050D01*
G01X27986Y4050D01*
G01X28000Y4050D01*
G01X29143Y4050D01*
G01X29153Y4047D01*
G01X29204Y4036D01*
G01X29256Y4027D01*
G01X29308Y4021D01*
G01X29360Y4018D01*
G01X29413Y4018D01*
G01X29465Y4020D01*
G01X29517Y4024D01*
G01X29569Y4031D01*
G01X29620Y4041D01*
G01X29671Y4053D01*
G01X29721Y4068D01*
G01X29771Y4085D01*
G01X29819Y4105D01*
G01X29867Y4127D01*
G01X29913Y4152D01*
G01X29958Y4178D01*
G01X30002Y4207D01*
G01X30044Y4238D01*
G01X30084Y4272D01*
G01X30123Y4307D01*
G01X30160Y4344D01*
G01X30195Y4383D01*
G01X30229Y4423D01*
G01X30260Y4465D01*
G01X30289Y4509D01*
G01X30315Y4554D01*
G01X30340Y4600D01*
G01X30362Y4648D01*
G01X30382Y4696D01*
G01X30399Y4746D01*
G01X30414Y4796D01*
G01X30426Y4847D01*
G01X30436Y4898D01*
G01X30443Y4950D01*
G01X30447Y5002D01*
G01X30449Y5054D01*
G01X30449Y5107D01*
G01X30446Y5159D01*
G01X30440Y5211D01*
G01X30431Y5263D01*
G01X30420Y5314D01*
G01X30407Y5364D01*
G01X30391Y5414D01*
G01X30372Y5463D01*
G01X30351Y5511D01*
G01X30328Y5558D01*
G01X30302Y5604D01*
G01X30274Y5648D01*
G01X30244Y5691D01*
G01X30212Y5732D01*
G01X30178Y5772D01*
G01X30142Y5810D01*
G01X30110Y5842D01*
G01X30101Y5851D01*
G01X30091Y5861D01*
G01X30081Y5870D01*
G01X30071Y5879D01*
G01X30061Y5887D01*
G01X30051Y5896D01*
G01X30041Y5905D01*
G01X30031Y5913D01*
G01X30021Y5922D01*
G01X30010Y5930D01*
G01X30000Y5938D01*
G01X29989Y5946D01*
G01X29978Y5954D01*
G01X29967Y5961D01*
G01X29956Y5969D01*
G01X29945Y5976D01*
G01X29934Y5983D01*
G01X29923Y5991D01*
G01X29912Y5998D01*
G01X29900Y6004D01*
G01X29889Y6011D01*
G01X29877Y6018D01*
G01X29865Y6024D01*
G01X29854Y6030D01*
G01X29842Y6036D01*
G01X29830Y6042D01*
G01X29818Y6048D01*
G01X29806Y6054D01*
G01X29794Y6059D01*
G01X29782Y6064D01*
G01X29769Y6070D01*
G01X29757Y6075D01*
G01X29745Y6079D01*
G01X29732Y6084D01*
G01X29720Y6089D01*
G01X29707Y6093D01*
G01X29694Y6097D01*
G01X29682Y6101D01*
G01X29669Y6105D01*
G01X29656Y6109D01*
G01X29644Y6113D01*
G01X29631Y6116D01*
G01X29618Y6119D01*
G01X29605Y6122D01*
G01X29592Y6125D01*
G01X29579Y6128D01*
G01X29566Y6131D01*
G01X29553Y6133D01*
G01X29540Y6135D01*
G01X29527Y6137D01*
G01X29513Y6139D01*
G01X29500Y6141D01*
G01X29487Y6143D01*
G01X29474Y6144D01*
G01X29460Y6145D01*
G01X29447Y6146D01*
G01X29434Y6147D01*
G01X29421Y6148D01*
G01X29407Y6149D01*
G01X29394Y6149D01*
G01X29381Y6149D01*
G01X29368Y6150D01*
G01X28434Y6150D01*
G01X27550Y7034D01*
G01X27550Y10826D01*
G01X27549Y10853D01*
G01X27548Y10879D01*
G01X27547Y10905D01*
G01X27544Y10931D01*
G01X27541Y10957D01*
G01X27538Y10983D01*
G01X27534Y11009D01*
G01X27529Y11035D01*
G01X27523Y11060D01*
G01X27517Y11086D01*
G01X27510Y11111D01*
G01X27503Y11136D01*
G01X27495Y11161D01*
G01X27486Y11186D01*
G01X27477Y11210D01*
G01X27467Y11234D01*
G01X27457Y11258D01*
G01X27446Y11282D01*
G01X27434Y11306D01*
G01X27422Y11329D01*
G01X27409Y11351D01*
G01X27395Y11374D01*
G01X27382Y11396D01*
G01X27367Y11418D01*
G01X27352Y11439D01*
G01X27336Y11460D01*
G01X27320Y11481D01*
G01X27304Y11501D01*
G01X27287Y11521D01*
G01X27269Y11541D01*
G01X27251Y11560D01*
G01X27233Y11578D01*
G01X27214Y11596D01*
G01X27194Y11614D01*
G01X27174Y11631D01*
G01X27154Y11647D01*
G01X27133Y11663D01*
G01X27112Y11679D01*
G01X27091Y11694D01*
G01X27069Y11709D01*
G01X27047Y11722D01*
G01X27025Y11736D01*
G01X27002Y11749D01*
G01X26979Y11761D01*
G01X26955Y11773D01*
G01X26931Y11784D01*
G01X26907Y11794D01*
G01X26883Y11804D01*
G01X26859Y11813D01*
G01X26834Y11822D01*
G01X26809Y11830D01*
G01X26784Y11837D01*
G01X26759Y11844D01*
G01X26733Y11850D01*
G01X26708Y11856D01*
G01X26682Y11861D01*
G01X26656Y11865D01*
G01X26630Y11868D01*
G01X26604Y11871D01*
G01X26578Y11874D01*
G01X26552Y11875D01*
G01X26526Y11876D01*
G01X26500Y11876D01*
G01X25801Y11876D01*
G01X25748Y11875D01*
G01X25696Y11871D01*
G01X25644Y11865D01*
G01X25592Y11856D01*
G01X25541Y11844D01*
G01X25491Y11830D01*
G01X25441Y11813D01*
G01X25393Y11794D01*
G01X25345Y11773D01*
G01X25298Y11749D01*
G01X25253Y11722D01*
G01X25209Y11694D01*
G01X25167Y11663D01*
G01X25126Y11631D01*
G01X25086Y11596D01*
G01X25049Y11560D01*
G01X25013Y11521D01*
G01X24980Y11481D01*
G01X24948Y11439D01*
G01X24918Y11396D01*
G01X24891Y11351D01*
G01X24866Y11306D01*
G01X24843Y11258D01*
G01X24823Y11210D01*
G01X24805Y11161D01*
G01X24790Y11111D01*
G01X24777Y11060D01*
G01X24766Y11009D01*
G01X24759Y10957D01*
G01X24753Y10905D01*
G01X24751Y10853D01*
G01X24751Y10800D01*
G01X24753Y10748D01*
G01X24759Y10696D01*
G01X24766Y10644D01*
G01X24777Y10593D01*
G01X24790Y10542D01*
G01X24805Y10492D01*
G01X24823Y10443D01*
G01X24843Y10395D01*
G01X24866Y10347D01*
G01X24891Y10301D01*
G01X24918Y10257D01*
G01X24948Y10214D01*
G01X24980Y10172D01*
G01X25013Y10132D01*
G01X25049Y10093D01*
G01X25086Y10057D01*
G01X25126Y10022D01*
G01X25167Y9990D01*
G01X25209Y9959D01*
G01X25253Y9931D01*
G01X25298Y9904D01*
G01X25345Y9880D01*
G01X25393Y9859D01*
G01X25441Y9840D01*
G01X25450Y9837D01*
G01X25450Y8996D01*
G01X25444Y9002D01*
G01X25438Y9009D01*
G01X25431Y9017D01*
G01X25424Y9024D01*
G01X24274Y10174D01*
G01X24267Y10181D01*
G01X24259Y10188D01*
G01X24252Y10194D01*
G01X24244Y10201D01*
G01X24237Y10208D01*
G01X24229Y10214D01*
G01X24221Y10220D01*
G01X24213Y10227D01*
G01X24205Y10233D01*
G01X24197Y10238D01*
G01X24189Y10244D01*
G01X24181Y10250D01*
G01X24172Y10255D01*
G01X24164Y10261D01*
G01X24155Y10266D01*
G01X24147Y10271D01*
G01X24138Y10276D01*
G01X24129Y10280D01*
G01X24120Y10285D01*
G01X24111Y10289D01*
G01X24102Y10294D01*
G01X24093Y10298D01*
G01X24084Y10302D01*
G01X24074Y10306D01*
G01X24065Y10309D01*
G01X24056Y10313D01*
G01X24046Y10316D01*
G01X24037Y10320D01*
G01X24027Y10323D01*
G01X24018Y10325D01*
G01X24008Y10328D01*
G01X23998Y10331D01*
G01X23989Y10333D01*
G01X23979Y10335D01*
G01X23969Y10337D01*
G01X23959Y10339D01*
G01X23949Y10341D01*
G01X23939Y10343D01*
G01X23929Y10344D01*
G01X23920Y10345D01*
G01X23910Y10346D01*
G01X23900Y10347D01*
G01X23900Y10347D01*
G01X23900Y11200D01*
G01X23899Y11207D01*
G01X23899Y11214D01*
G01X23899Y11222D01*
G01X23898Y11229D01*
G01X23897Y11237D01*
G01X23896Y11244D01*
G01X23895Y11252D01*
G01X23894Y11259D01*
G01X23892Y11266D01*
G01X23890Y11274D01*
G01X23888Y11281D01*
G01X23886Y11288D01*
G01X23884Y11295D01*
G01X23881Y11302D01*
G01X23879Y11309D01*
G01X23876Y11316D01*
G01X23873Y11323D01*
G01X23870Y11330D01*
G01X23866Y11336D01*
G01X23863Y11343D01*
G01X23859Y11350D01*
G01X23855Y11356D01*
G01X23852Y11362D01*
G01X23847Y11369D01*
G01X23843Y11375D01*
G01X23839Y11381D01*
G01X23834Y11387D01*
G01X23829Y11392D01*
G01X23824Y11398D01*
G01X23819Y11404D01*
G01X23814Y11409D01*
G01X23809Y11414D01*
G01X23804Y11419D01*
G01X23798Y11424D01*
G01X23792Y11429D01*
G01X23787Y11434D01*
G01X23781Y11439D01*
G01X23775Y11443D01*
G01X23768Y11447D01*
G01X23762Y11452D01*
G01X23756Y11455D01*
G01X23750Y11459D01*
G01X23743Y11463D01*
G01X23736Y11466D01*
G01X23730Y11470D01*
G01X23723Y11473D01*
G01X23716Y11476D01*
G01X23709Y11479D01*
G01X23702Y11481D01*
G01X23695Y11484D01*
G01X23688Y11486D01*
G01X23681Y11488D01*
G01X23674Y11490D01*
G01X23666Y11492D01*
G01X23659Y11494D01*
G01X23652Y11495D01*
G01X23644Y11496D01*
G01X23637Y11497D01*
G01X23629Y11498D01*
G01X23622Y11499D01*
G01X23614Y11499D01*
G01X23607Y11499D01*
G01X23600Y11500D01*
G01X22146Y11500D01*
G01X22118Y11524D01*
G01X22064Y11563D01*
G01X22006Y11597D01*
G01X21945Y11624D01*
G01X21881Y11645D01*
G01X21816Y11660D01*
G01X21750Y11669D01*
G01X21683Y11670D01*
G01X21616Y11665D01*
G01X21550Y11654D01*
G01X21486Y11636D01*
G01X21424Y11611D01*
G01X21364Y11581D01*
G01X21308Y11544D01*
G01X21256Y11503D01*
G01X21252Y11500D01*
G01X20500Y11500D01*
G01X20492Y11499D01*
G01X20485Y11499D01*
G01X20478Y11499D01*
G01X20471Y11498D01*
G01X20464Y11497D01*
G01X20457Y11496D01*
G01X20449Y11495D01*
G01X20442Y11494D01*
G01X20435Y11493D01*
G01X20428Y11491D01*
G01X20421Y11489D01*
G01X20414Y11487D01*
G01X20408Y11485D01*
G01X20401Y11483D01*
G01X20394Y11480D01*
G01X20387Y11478D01*
G01X20381Y11475D01*
G01X20374Y11472D01*
G01X20368Y11469D01*
G01X20361Y11466D01*
G01X20355Y11462D01*
G01X20349Y11459D01*
G01X20342Y11455D01*
G01X20336Y11451D01*
G01X20330Y11447D01*
G01X20324Y11443D01*
G01X20319Y11439D01*
G01X20313Y11434D01*
G01X20307Y11430D01*
G01X20302Y11425D01*
G01X20297Y11420D01*
G01X20291Y11416D01*
G01X20286Y11410D01*
G01X20281Y11405D01*
G01X20276Y11400D01*
G01X20272Y11395D01*
G01X20267Y11389D01*
G01X20263Y11383D01*
G01X20258Y11378D01*
G01X20254Y11372D01*
G01X20250Y11366D01*
G01X20246Y11360D01*
G01X20242Y11354D01*
G01X19942Y10854D01*
G01X19939Y10847D01*
G01X19935Y10841D01*
G01X19932Y10834D01*
G01X19928Y10828D01*
G01X19925Y10821D01*
G01X19922Y10814D01*
G01X19920Y10808D01*
G01X19917Y10801D01*
G01X19915Y10794D01*
G01X19912Y10787D01*
G01X19910Y10780D01*
G01X19909Y10772D01*
G01X19907Y10765D01*
G01X19905Y10758D01*
G01X19904Y10751D01*
G01X19903Y10744D01*
G01X19902Y10736D01*
G01X19901Y10729D01*
G01X19900Y10722D01*
G01X19900Y10714D01*
G01X19900Y10707D01*
G01X19900Y10700D01*
G01X19900Y9802D01*
G01X19263Y8984D01*
G01X19258Y8978D01*
G01X19254Y8972D01*
G01X19250Y8966D01*
G01X19246Y8960D01*
G01X19242Y8953D01*
G01X19238Y8947D01*
G01X19235Y8941D01*
G01X19231Y8934D01*
G01X19228Y8927D01*
G01X19225Y8921D01*
G01X19222Y8914D01*
G01X19219Y8907D01*
G01X19217Y8900D01*
G01X19215Y8893D01*
G01X19212Y8886D01*
G01X19210Y8879D01*
G01X19208Y8872D01*
G01X19207Y8865D01*
G01X19205Y8858D01*
G01X19204Y8851D01*
G01X19203Y8843D01*
G01X19202Y8836D01*
G01X19201Y8829D01*
G01X19200Y8822D01*
G01X19200Y8814D01*
G01X19200Y8807D01*
G01X19200Y8800D01*
G01X19200Y7900D01*
G01X19200Y7892D01*
G01X19200Y7885D01*
G01X19200Y7877D01*
G01X19201Y7870D01*
G01X19202Y7862D01*
G01X19203Y7855D01*
G01X19204Y7847D01*
G01X19205Y7840D01*
G01X19207Y7833D01*
G01X19209Y7825D01*
G01X19211Y7818D01*
G01X19213Y7811D01*
G01X19215Y7804D01*
G01X19218Y7797D01*
G01X19220Y7790D01*
G01X19223Y7783D01*
G01X19226Y7776D01*
G01X19229Y7769D01*
G01X19233Y7763D01*
G01X19236Y7756D01*
G01X19240Y7750D01*
G01X19244Y7743D01*
G01X19247Y7737D01*
G01X19252Y7730D01*
G01X19256Y7724D01*
G01X19260Y7718D01*
G01X19265Y7712D01*
G01X19270Y7707D01*
G01X19275Y7701D01*
G01X19280Y7695D01*
G01X19285Y7690D01*
G01X19290Y7685D01*
G01X19295Y7680D01*
G01X19301Y7675D01*
G01X19307Y7670D01*
G01X19312Y7665D01*
G01X19318Y7660D01*
G01X19324Y7656D01*
G01X19331Y7652D01*
G01X19337Y7647D01*
G01X19343Y7644D01*
G01X19350Y7640D01*
G01X19356Y7636D01*
G01X19363Y7633D01*
G01X19369Y7629D01*
G01X19376Y7626D01*
G01X19383Y7623D01*
G01X19390Y7620D01*
G01X19397Y7618D01*
G01X19404Y7615D01*
G01X19411Y7613D01*
G01X19418Y7611D01*
G01X19425Y7609D01*
G01X19433Y7607D01*
G01X19440Y7605D01*
G01X19447Y7604D01*
G01X19455Y7603D01*
G01X19462Y7602D01*
G01X19470Y7601D01*
G01X19477Y7600D01*
G01X19485Y7600D01*
G01X19492Y7600D01*
G01X19500Y7600D01*
G01X20100Y7600D01*
G01X20107Y7600D01*
G01X20114Y7600D01*
G01X20121Y7600D01*
G01X20128Y7601D01*
G01X20136Y7602D01*
G01X20143Y7603D01*
G01X20150Y7604D01*
G01X20157Y7605D01*
G01X20164Y7607D01*
G01X20171Y7608D01*
G01X20178Y7610D01*
G01X20185Y7612D01*
G01X20192Y7614D01*
G01X20199Y7616D01*
G01X20206Y7619D01*
G01X20212Y7622D01*
G01X20219Y7624D01*
G01X20226Y7627D01*
G01X20232Y7630D01*
G01X20239Y7634D01*
G01X20245Y7637D01*
G01X20251Y7641D01*
G01X20257Y7644D01*
G01X20264Y7648D01*
G01X20270Y7652D01*
G01X20276Y7657D01*
G01X20281Y7661D01*
G01X20287Y7665D01*
G01X20293Y7670D01*
G01X20298Y7675D01*
G01X20303Y7679D01*
G01X20309Y7684D01*
G01X20314Y7690D01*
G01X20319Y7695D01*
G01X20521Y7912D01*
G01X20562Y7921D01*
G01X20619Y7940D01*
G01X20674Y7965D01*
G01X20726Y7995D01*
G01X20774Y8030D01*
G01X20819Y8069D01*
G01X20860Y8113D01*
G01X20896Y8161D01*
G01X20927Y8212D01*
G01X20953Y8266D01*
G01X20974Y8322D01*
G01X20989Y8380D01*
G01X20994Y8419D01*
G01X21630Y9100D01*
G01X22359Y9100D01*
G01X22371Y9095D01*
G01X22390Y9089D01*
G01X22404Y9085D01*
G01X22423Y9079D01*
G01X22438Y9075D01*
G01X22457Y9071D01*
G01X22471Y9068D01*
G01X22491Y9065D01*
G01X22506Y9063D01*
G01X22525Y9060D01*
G01X22540Y9059D01*
G01X22559Y9057D01*
G01X22574Y9056D01*
G01X22594Y9056D01*
G01X22602Y9056D01*
G01X22797Y9056D01*
G01X22805Y9056D01*
G01X22825Y9056D01*
G01X22840Y9057D01*
G01X22859Y9059D01*
G01X22874Y9060D01*
G01X22893Y9063D01*
G01X22908Y9065D01*
G01X22928Y9068D01*
G01X22942Y9071D01*
G01X22961Y9075D01*
G01X22976Y9079D01*
G01X22995Y9085D01*
G01X23009Y9089D01*
G01X23028Y9095D01*
G01X23040Y9100D01*
G01X23600Y9100D01*
G01X23607Y9100D01*
G01X23614Y9100D01*
G01X23622Y9100D01*
G01X23629Y9101D01*
G01X23637Y9102D01*
G01X23644Y9103D01*
G01X23647Y9103D01*
G01X24400Y8351D01*
G01X24400Y5900D01*
G01X24400Y5889D01*
G01X24400Y5879D01*
G01X24400Y5869D01*
G01X24401Y5859D01*
G01X24402Y5849D01*
G01X24403Y5839D01*
G01X24404Y5829D01*
G01X24405Y5820D01*
G01X24406Y5810D01*
G01X24408Y5800D01*
G01X24410Y5790D01*
G01X24412Y5780D01*
G01X24414Y5770D01*
G01X24416Y5760D01*
G01X24418Y5751D01*
G01X24421Y5741D01*
G01X24424Y5731D01*
G01X24426Y5722D01*
G01X24429Y5712D01*
G01X24433Y5703D01*
G01X24436Y5693D01*
G01X24440Y5684D01*
G01X24443Y5675D01*
G01X24447Y5665D01*
G01X24451Y5656D01*
G01X24455Y5647D01*
G01X24460Y5638D01*
G01X24464Y5629D01*
G01X24469Y5620D01*
G01X24473Y5611D01*
G01X24478Y5602D01*
G01X24483Y5594D01*
G01X24488Y5585D01*
G01X24494Y5577D01*
G01X24499Y5568D01*
G01X24505Y5560D01*
G01X24511Y5552D01*
G01X24516Y5544D01*
G01X24522Y5536D01*
G01X24529Y5528D01*
G01X24535Y5520D01*
G01X24541Y5512D01*
G01X24548Y5505D01*
G01X24555Y5497D01*
G01X24561Y5490D01*
G01X24568Y5482D01*
G01X24575Y5475D01*
G01X27300Y2751D01*
G01X27300Y1848D01*
G01X26651Y1200D01*
G01X10348Y1200D01*
G01X9200Y2348D01*
G01X9200Y2400D01*
G01X9345Y2400D01*
G01X9356Y2393D01*
G01X9386Y2377D01*
G01X9418Y2361D01*
G01X9450Y2348D01*
G01X9483Y2336D01*
G01X9516Y2326D01*
G01X9550Y2317D01*
G01X9584Y2310D01*
G01X9618Y2305D01*
G01X9653Y2301D01*
G01X9688Y2300D01*
G01X9723Y2300D01*
G01X9758Y2301D01*
G01X9793Y2305D01*
G01X9827Y2310D01*
G01X9861Y2317D01*
G01X9895Y2326D01*
G01X9928Y2336D01*
G01X9961Y2348D01*
G01X9993Y2361D01*
G01X10025Y2377D01*
G01X10056Y2393D01*
G01X10085Y2411D01*
G01X10114Y2431D01*
G01X10142Y2452D01*
G01X10169Y2475D01*
G01X10194Y2498D01*
G01X10219Y2523D01*
G01X10242Y2550D01*
G01X10263Y2577D01*
G01X10284Y2605D01*
G01X10303Y2634D01*
G01X10320Y2665D01*
G01X10336Y2696D01*
G01X10351Y2728D01*
G01X10363Y2760D01*
G01X10374Y2793D01*
G01X10384Y2827D01*
G01X10392Y2861D01*
G01X10398Y2895D01*
G01X10402Y2930D01*
G01X10405Y2965D01*
G01X10406Y3000D01*
G01X10406Y5994D01*
G01X10405Y6005D01*
G01X10405Y6016D01*
G01X10405Y6027D01*
G01X10404Y6039D01*
G01X10403Y6050D01*
G01X10402Y6061D01*
G01X10401Y6072D01*
G01X10400Y6084D01*
G01X10398Y6095D01*
G01X10396Y6106D01*
G01X10394Y6117D01*
G01X10392Y6128D01*
G01X10390Y6139D01*
G01X10388Y6150D01*
G01X10385Y6161D01*
G01X10382Y6172D01*
G01X10379Y6183D01*
G01X10376Y6194D01*
G01X10373Y6205D01*
G01X10369Y6216D01*
G01X10366Y6226D01*
G01X10362Y6237D01*
G01X10358Y6248D01*
G01X10354Y6258D01*
G01X10349Y6268D01*
G01X10345Y6279D01*
G01X9539Y8085D01*
G01X9533Y8096D01*
G01X9528Y8108D01*
G01X9522Y8119D01*
G01X9516Y8131D01*
G01X9510Y8142D01*
G01X9504Y8153D01*
G01X9497Y8164D01*
G01X9490Y8175D01*
G01X9483Y8186D01*
G01X9476Y8196D01*
G01X9469Y8207D01*
G01X9461Y8217D01*
G01X9454Y8227D01*
G01X9446Y8237D01*
G01X9438Y8247D01*
G01X9429Y8257D01*
G01X9421Y8267D01*
G01X9412Y8276D01*
G01X9404Y8285D01*
G01X9395Y8294D01*
G01X9385Y8303D01*
G01X9376Y8312D01*
G01X9367Y8321D01*
G01X9357Y8329D01*
G01X9347Y8337D01*
G01X9337Y8346D01*
G01X9327Y8353D01*
G01X9317Y8361D01*
G01X9307Y8369D01*
G01X9296Y8376D01*
G01X9286Y8383D01*
G01X9275Y8390D01*
G01X9264Y8397D01*
G01X9253Y8404D01*
G01X9242Y8410D01*
G01X9231Y8416D01*
G01X9220Y8422D01*
G01X9208Y8428D01*
G01X9197Y8433D01*
G01X9185Y8439D01*
G01X9173Y8444D01*
G01X9162Y8449D01*
G01X9150Y8453D01*
G01X9138Y8458D01*
G01X9126Y8462D01*
G01X9113Y8466D01*
G01X9101Y8470D01*
G01X9089Y8473D01*
G01X9077Y8477D01*
G01X9064Y8480D01*
G01X9052Y8483D01*
G01X9039Y8485D01*
G01X9027Y8488D01*
G01X9014Y8490D01*
G01X9001Y8492D01*
G01X8989Y8494D01*
G01X8976Y8495D01*
G01X8963Y8497D01*
G01X8951Y8498D01*
G01X8938Y8498D01*
G01X8925Y8499D01*
G01X8912Y8499D01*
G01X8900Y8500D01*
G01X7750Y8500D01*
G01X7750Y8569D01*
G01X7769Y8624D01*
G01X7784Y8681D01*
G01X7793Y8740D01*
G01X7796Y8800D01*
G01X7793Y8859D01*
G01X7784Y8918D01*
G01X7769Y8975D01*
G01X7749Y9031D01*
G01X7723Y9085D01*
G01X7692Y9135D01*
G01X7656Y9183D01*
G01X7616Y9226D01*
G01X7571Y9266D01*
G01X7523Y9300D01*
G01X7472Y9330D01*
G01X7417Y9355D01*
G01X7361Y9373D01*
G01X7303Y9387D01*
G01X7244Y9394D01*
G01X7185Y9396D01*
G01X7125Y9391D01*
G01X7067Y9381D01*
G01X7010Y9365D01*
G01X6971Y9350D01*
G01X6927Y9350D01*
G01X6250Y10027D01*
G01X6250Y15872D01*
G01X7207Y16829D01*
G01X7250Y16830D01*
G01X7316Y16839D01*
G01X7381Y16854D01*
G01X7445Y16875D01*
G01X7506Y16902D01*
G01X7564Y16936D01*
G01X7583Y16950D01*
G01X7800Y16950D01*
G01X7809Y16950D01*
G01X7819Y16950D01*
G01X7828Y16950D01*
G01X7838Y16951D01*
G01X7847Y16952D01*
G01X7857Y16953D01*
G01X7867Y16954D01*
G01X7876Y16955D01*
G01X7886Y16956D01*
G01X7895Y16958D01*
G01X7904Y16960D01*
G01X7914Y16962D01*
G01X7923Y16964D01*
G01X7933Y16966D01*
G01X7942Y16968D01*
G01X7951Y16971D01*
G01X7960Y16974D01*
G01X7969Y16976D01*
G01X7979Y16979D01*
G01X7988Y16983D01*
G01X7997Y16986D01*
G01X8006Y16990D01*
G01X8014Y16993D01*
G01X8023Y16997D01*
G01X8032Y17001D01*
G01X8041Y17005D01*
G01X8049Y17009D01*
G01X8058Y17014D01*
G01X8066Y17018D01*
G01X8075Y17023D01*
G01X8083Y17028D01*
G01X8091Y17033D01*
G01X8099Y17038D01*
G01X8107Y17044D01*
G01X8115Y17049D01*
G01X8123Y17055D01*
G01X8131Y17060D01*
G01X8138Y17066D01*
G01X8146Y17072D01*
G01X8153Y17078D01*
G01X8160Y17084D01*
G01X8168Y17091D01*
G01X8175Y17097D01*
G01X8182Y17104D01*
G01X8188Y17111D01*
G01X9188Y18111D01*
G01X9195Y18117D01*
G01X9202Y18124D01*
G01X9208Y18131D01*
G01X9215Y18139D01*
G01X9221Y18146D01*
G01X9227Y18153D01*
G01X9233Y18161D01*
G01X9239Y18169D01*
G01X9244Y18176D01*
G01X9250Y18183D01*
G01X9250Y16986D01*
G01X8613Y16350D01*
G01X7429Y16350D01*
G01X7417Y16355D01*
G01X7361Y16373D01*
G01X7303Y16387D01*
G01X7244Y16394D01*
G01X7185Y16396D01*
G01X7125Y16391D01*
G01X7067Y16381D01*
G01X7010Y16365D01*
G01X6954Y16343D01*
G01X6901Y16316D01*
G01X6851Y16284D01*
G01X6805Y16247D01*
G01X6762Y16205D01*
G01X6724Y16160D01*
G01X6691Y16110D01*
G01X6662Y16058D01*
G01X6639Y16003D01*
G01X6622Y15947D01*
G01X6610Y15888D01*
G01X6604Y15829D01*
G01X6604Y15770D01*
G01X6610Y15711D01*
G01X6622Y15652D01*
G01X6639Y15596D01*
G01X6662Y15541D01*
G01X6691Y15489D01*
G01X6724Y15439D01*
G01X6762Y15394D01*
G01X6805Y15352D01*
G01X6851Y15315D01*
G01X6901Y15283D01*
G01X6954Y15256D01*
G01X7010Y15234D01*
G01X7067Y15218D01*
G01X7125Y15208D01*
G01X7185Y15203D01*
G01X7244Y15205D01*
G01X7303Y15212D01*
G01X7361Y15226D01*
G01X7417Y15244D01*
G01X7472Y15269D01*
G01X7523Y15299D01*
G01X7571Y15333D01*
G01X7616Y15373D01*
G01X7656Y15416D01*
G01X7681Y15450D01*
G01X8800Y15450D01*
G01X8808Y15450D01*
G01X8817Y15450D01*
G01X8826Y15450D01*
G01X8835Y15451D01*
G01X8844Y15452D01*
G01X8852Y15453D01*
G01X8861Y15454D01*
G01X8870Y15455D01*
G01X8879Y15457D01*
G01X8887Y15458D01*
G01X8896Y15460D01*
G01X8905Y15462D01*
G01X8913Y15464D01*
G01X8922Y15466D01*
G01X8930Y15469D01*
G01X8939Y15472D01*
G01X8947Y15474D01*
G01X8955Y15477D01*
G01X8964Y15480D01*
G01X8972Y15484D01*
G01X8980Y15487D01*
G01X8988Y15491D01*
G01X8996Y15495D01*
G01X9004Y15499D01*
G01X9012Y15503D01*
G01X9019Y15507D01*
G01X9027Y15511D01*
G01X9035Y15516D01*
G01X9042Y15521D01*
G01X9050Y15525D01*
G01X9057Y15530D01*
G01X9064Y15535D01*
G01X9071Y15541D01*
G01X9078Y15546D01*
G01X9085Y15552D01*
G01X9092Y15557D01*
G01X9098Y15563D01*
G01X9105Y15569D01*
G01X9111Y15575D01*
G01X9118Y15581D01*
G01X10018Y16481D01*
G01X10024Y16488D01*
G01X10030Y16494D01*
G01X10036Y16501D01*
G01X10042Y16507D01*
G01X10047Y16514D01*
G01X10053Y16521D01*
G01X10058Y16528D01*
G01X10064Y16535D01*
G01X10069Y16542D01*
G01X10074Y16549D01*
G01X10078Y16557D01*
G01X10083Y16564D01*
G01X10088Y16572D01*
G01X10092Y16580D01*
G01X10096Y16587D01*
G01X10100Y16595D01*
G01X10104Y16603D01*
G01X10108Y16611D01*
G01X10112Y16619D01*
G01X10115Y16627D01*
G01X10119Y16635D01*
G01X10122Y16644D01*
G01X10125Y16652D01*
G01X10127Y16660D01*
G01X10130Y16669D01*
G01X10133Y16677D01*
G01X10135Y16686D01*
G01X10137Y16694D01*
G01X10139Y16703D01*
G01X10141Y16712D01*
G01X10142Y16720D01*
G01X10144Y16729D01*
G01X10145Y16738D01*
G01X10146Y16747D01*
G01X10147Y16755D01*
G01X10148Y16764D01*
G01X10149Y16773D01*
G01X10149Y16782D01*
G01X10149Y16791D01*
G01X10150Y16800D01*
G01X10150Y19087D01*
G01X10168Y19107D01*
G01X10200Y19149D01*
G01X10212Y19131D01*
G01X10252Y19084D01*
G01X10295Y19041D01*
G01X10343Y19003D01*
G01X10394Y18970D01*
G01X10448Y18943D01*
G01X10505Y18920D01*
G01X10564Y18904D01*
G01X10624Y18893D01*
G01X10684Y18889D01*
G01X10745Y18890D01*
G01X10806Y18898D01*
G01X10865Y18911D01*
G01X10923Y18931D01*
G01X10978Y18956D01*
G01X11031Y18986D01*
G01X11080Y19022D01*
G01X11126Y19062D01*
G01X11168Y19107D01*
G01X11204Y19155D01*
G01X11236Y19207D01*
G01X11263Y19262D01*
G01X11283Y19319D01*
G01X11298Y19378D01*
G01X11307Y19439D01*
G01X11310Y19500D01*
G01X11307Y19560D01*
G01X11298Y19621D01*
G01X11283Y19680D01*
G01X11263Y19737D01*
G01X11244Y19775D01*
G01X11244Y19776D01*
G01X11243Y19786D01*
G01X11241Y19795D01*
G01X11239Y19804D01*
G01X11237Y19814D01*
G01X11235Y19823D01*
G01X11233Y19833D01*
G01X11231Y19842D01*
G01X11228Y19851D01*
G01X11225Y19860D01*
G01X11223Y19869D01*
G01X11220Y19879D01*
G01X11216Y19888D01*
G01X11213Y19897D01*
G01X11209Y19906D01*
G01X11206Y19914D01*
G01X11202Y19923D01*
G01X11198Y19932D01*
G01X11194Y19941D01*
G01X11190Y19949D01*
G01X11185Y19958D01*
G01X11181Y19966D01*
G01X11176Y19975D01*
G01X11171Y19983D01*
G01X11166Y19991D01*
G01X11161Y19999D01*
G01X11155Y20007D01*
G01X11150Y20015D01*
G01X11144Y20023D01*
G01X11139Y20030D01*
G01X11133Y20038D01*
G01X11127Y20046D01*
G01X11121Y20053D01*
G01X11115Y20060D01*
G01X11108Y20068D01*
G01X11102Y20075D01*
G01X11095Y20082D01*
G01X11088Y20088D01*
G01X10588Y20588D01*
G01X10582Y20595D01*
G01X10575Y20602D01*
G01X10568Y20608D01*
G01X10560Y20615D01*
G01X10553Y20621D01*
G01X10546Y20627D01*
G01X10538Y20633D01*
G01X10531Y20639D01*
G01X10523Y20644D01*
G01X10515Y20650D01*
G01X10507Y20655D01*
G01X10499Y20661D01*
G01X10491Y20666D01*
G01X10483Y20671D01*
G01X10475Y20676D01*
G01X10466Y20681D01*
G01X10458Y20685D01*
G01X10449Y20690D01*
G01X10441Y20694D01*
G01X10432Y20698D01*
G01X10423Y20702D01*
G01X10414Y20706D01*
G01X10406Y20709D01*
G01X10397Y20713D01*
G01X10388Y20716D01*
G01X10379Y20720D01*
G01X10369Y20723D01*
G01X10360Y20725D01*
G01X10351Y20728D01*
G01X10342Y20731D01*
G01X10333Y20733D01*
G01X10323Y20735D01*
G01X10314Y20737D01*
G01X10304Y20739D01*
G01X10295Y20741D01*
G01X10286Y20743D01*
G01X10276Y20744D01*
G01X10267Y20745D01*
G01X10257Y20746D01*
G01X10247Y20747D01*
G01X10238Y20748D01*
G01X10228Y20749D01*
G01X10219Y20749D01*
G01X10209Y20749D01*
G01X10200Y20750D01*
G01X9300Y20750D01*
G01X9290Y20749D01*
G01X9280Y20749D01*
G01X9271Y20749D01*
G01X9261Y20748D01*
G01X9252Y20747D01*
G01X9242Y20746D01*
G01X9232Y20745D01*
G01X9223Y20744D01*
G01X9213Y20743D01*
G01X9207Y20742D01*
G01X9265Y20800D01*
G01X11834Y20800D01*
G01X12171Y20462D01*
G01X12196Y20413D01*
G01X12251Y19914D01*
G01X12212Y19868D01*
G01X12178Y19818D01*
G01X12149Y19765D01*
G01X12125Y19708D01*
G01X12107Y19650D01*
G01X12095Y19591D01*
G01X12089Y19530D01*
G01X12089Y19469D01*
G01X12095Y19408D01*
G01X12107Y19349D01*
G01X12125Y19291D01*
G01X12149Y19234D01*
G01X12178Y19181D01*
G01X12212Y19131D01*
G01X12252Y19084D01*
G01X12295Y19041D01*
G01X12343Y19003D01*
G01X12394Y18970D01*
G01X12448Y18943D01*
G01X12505Y18920D01*
G01X12564Y18904D01*
G01X12624Y18893D01*
G01X12684Y18889D01*
G01X12745Y18890D01*
G01X12806Y18898D01*
G01X12865Y18911D01*
G01X12923Y18931D01*
G01X12978Y18956D01*
G01X13031Y18986D01*
G01X13080Y19022D01*
G01X13126Y19062D01*
G01X13168Y19107D01*
G01X13200Y19149D01*
G01X13212Y19131D01*
G01X13252Y19084D01*
G01X13295Y19041D01*
G01X13343Y19003D01*
G01X13394Y18970D01*
G01X13448Y18943D01*
G01X13505Y18920D01*
G01X13564Y18904D01*
G01X13624Y18893D01*
G01X13684Y18889D01*
G01X13745Y18890D01*
G01X13806Y18898D01*
G01X13865Y18911D01*
G01X13923Y18931D01*
G01X13978Y18956D01*
G01X14031Y18986D01*
G01X14080Y19022D01*
G01X14120Y19057D01*
G01X14123Y19053D01*
G01X14126Y19046D01*
G01X14130Y19040D01*
G01X14134Y19033D01*
G01X14137Y19027D01*
G01X14142Y19021D01*
G01X14146Y19014D01*
G01X14150Y19008D01*
G01X14155Y19002D01*
G01X14160Y18997D01*
G01X14165Y18991D01*
G01X14170Y18985D01*
G01X14175Y18980D01*
G01X14180Y18975D01*
G01X14185Y18970D01*
G01X14191Y18965D01*
G01X14197Y18960D01*
G01X14202Y18955D01*
G01X14208Y18950D01*
G01X14214Y18946D01*
G01X14221Y18942D01*
G01X14227Y18937D01*
G01X14233Y18934D01*
G01X14239Y18930D01*
G01X14246Y18926D01*
G01X14250Y18924D01*
G01X14250Y16486D01*
G01X14113Y16350D01*
G01X11800Y16350D01*
G01X11791Y16349D01*
G01X11782Y16349D01*
G01X11773Y16349D01*
G01X11764Y16348D01*
G01X11755Y16347D01*
G01X11747Y16346D01*
G01X11738Y16345D01*
G01X11729Y16344D01*
G01X11720Y16342D01*
G01X11712Y16341D01*
G01X11703Y16339D01*
G01X11694Y16337D01*
G01X11686Y16335D01*
G01X11677Y16333D01*
G01X11669Y16330D01*
G01X11660Y16327D01*
G01X11652Y16325D01*
G01X11644Y16322D01*
G01X11635Y16319D01*
G01X11627Y16315D01*
G01X11619Y16312D01*
G01X11611Y16308D01*
G01X11603Y16304D01*
G01X11595Y16300D01*
G01X11587Y16296D01*
G01X11580Y16292D01*
G01X11572Y16288D01*
G01X11564Y16283D01*
G01X11557Y16278D01*
G01X11549Y16274D01*
G01X11542Y16269D01*
G01X11535Y16264D01*
G01X11528Y16258D01*
G01X11521Y16253D01*
G01X11514Y16247D01*
G01X11507Y16242D01*
G01X11501Y16236D01*
G01X11494Y16230D01*
G01X11488Y16224D01*
G01X11481Y16218D01*
G01X10181Y14918D01*
G01X10175Y14911D01*
G01X10169Y14905D01*
G01X10163Y14898D01*
G01X10157Y14892D01*
G01X10152Y14885D01*
G01X10146Y14878D01*
G01X10141Y14871D01*
G01X10135Y14864D01*
G01X10130Y14857D01*
G01X10125Y14850D01*
G01X10121Y14842D01*
G01X10116Y14835D01*
G01X10111Y14827D01*
G01X10107Y14819D01*
G01X10103Y14812D01*
G01X10099Y14804D01*
G01X10095Y14796D01*
G01X10091Y14788D01*
G01X10087Y14780D01*
G01X10084Y14772D01*
G01X10080Y14764D01*
G01X10077Y14755D01*
G01X10074Y14747D01*
G01X10072Y14739D01*
G01X10069Y14730D01*
G01X10066Y14722D01*
G01X10064Y14713D01*
G01X10062Y14705D01*
G01X10060Y14696D01*
G01X10058Y14687D01*
G01X10057Y14679D01*
G01X10055Y14670D01*
G01X10054Y14661D01*
G01X10053Y14652D01*
G01X10052Y14644D01*
G01X10051Y14635D01*
G01X10050Y14626D01*
G01X10050Y14617D01*
G01X10050Y14608D01*
G01X10050Y14600D01*
G01X10050Y12186D01*
G01X10013Y12150D01*
G01X7681Y12150D01*
G01X7656Y12183D01*
G01X7616Y12226D01*
G01X7571Y12266D01*
G01X7524Y12300D01*
G01X7571Y12333D01*
G01X7590Y12350D01*
G01X8816Y12350D01*
G01X8864Y12318D01*
G01X8924Y12288D01*
G01X8986Y12263D01*
G01X9050Y12245D01*
G01X9116Y12234D01*
G01X9183Y12229D01*
G01X9250Y12230D01*
G01X9316Y12239D01*
G01X9381Y12254D01*
G01X9445Y12275D01*
G01X9506Y12302D01*
G01X9564Y12336D01*
G01X9618Y12375D01*
G01X9668Y12419D01*
G01X9714Y12468D01*
G01X9754Y12522D01*
G01X9789Y12579D01*
G01X9818Y12639D01*
G01X9841Y12702D01*
G01X9857Y12767D01*
G01X9867Y12833D01*
G01X9871Y12900D01*
G01X9867Y12966D01*
G01X9857Y13032D01*
G01X9841Y13097D01*
G01X9818Y13160D01*
G01X9789Y13220D01*
G01X9754Y13277D01*
G01X9714Y13331D01*
G01X9668Y13380D01*
G01X9618Y13424D01*
G01X9564Y13463D01*
G01X9506Y13497D01*
G01X9499Y13500D01*
G01X9506Y13502D01*
G01X9564Y13536D01*
G01X9618Y13575D01*
G01X9668Y13619D01*
G01X9714Y13668D01*
G01X9754Y13722D01*
G01X9789Y13779D01*
G01X9818Y13839D01*
G01X9841Y13902D01*
G01X9857Y13967D01*
G01X9867Y14033D01*
G01X9871Y14100D01*
G01X9867Y14166D01*
G01X9857Y14232D01*
G01X9841Y14297D01*
G01X9818Y14360D01*
G01X9789Y14420D01*
G01X9754Y14477D01*
G01X9714Y14531D01*
G01X9668Y14580D01*
G01X9618Y14624D01*
G01X9564Y14663D01*
G01X9506Y14697D01*
G01X9445Y14724D01*
G01X9381Y14745D01*
G01X9316Y14760D01*
G01X9250Y14769D01*
G01X9183Y14770D01*
G01X9116Y14765D01*
G01X9050Y14754D01*
G01X8986Y14736D01*
G01X8924Y14711D01*
G01X8864Y14681D01*
G01X8808Y14644D01*
G01X8756Y14603D01*
G01X8708Y14556D01*
G01X8665Y14505D01*
G01X8627Y14449D01*
G01X8595Y14391D01*
G01X8569Y14329D01*
G01X8549Y14265D01*
G01X8546Y14250D01*
G01X7590Y14250D01*
G01X7571Y14266D01*
G01X7523Y14300D01*
G01X7472Y14330D01*
G01X7417Y14355D01*
G01X7361Y14373D01*
G01X7303Y14387D01*
G01X7244Y14394D01*
G01X7185Y14396D01*
G01X7125Y14391D01*
G01X7067Y14381D01*
G01X7010Y14365D01*
G01X6954Y14343D01*
G01X6901Y14316D01*
G01X6851Y14284D01*
G01X6805Y14247D01*
G01X6762Y14205D01*
G01X6724Y14160D01*
G01X6691Y14110D01*
G01X6662Y14058D01*
G01X6639Y14003D01*
G01X6622Y13947D01*
G01X6610Y13888D01*
G01X6604Y13829D01*
G01X6604Y13770D01*
G01X6610Y13711D01*
G01X6622Y13652D01*
G01X6639Y13596D01*
G01X6662Y13541D01*
G01X6691Y13489D01*
G01X6724Y13439D01*
G01X6762Y13394D01*
G01X6805Y13352D01*
G01X6851Y13315D01*
G01X6876Y13300D01*
G01X6851Y13284D01*
G01X6805Y13247D01*
G01X6762Y13205D01*
G01X6724Y13160D01*
G01X6691Y13110D01*
G01X6662Y13058D01*
G01X6639Y13003D01*
G01X6622Y12947D01*
G01X6610Y12888D01*
G01X6604Y12829D01*
G01X6604Y12770D01*
G01X6610Y12711D01*
G01X6622Y12652D01*
G01X6639Y12596D01*
G01X6662Y12541D01*
G01X6691Y12489D01*
G01X6724Y12439D01*
G01X6762Y12394D01*
G01X6805Y12352D01*
G01X6851Y12315D01*
G01X6876Y12300D01*
G01X6851Y12284D01*
G01X6805Y12247D01*
G01X6762Y12205D01*
G01X6724Y12160D01*
G01X6691Y12110D01*
G01X6662Y12058D01*
G01X6639Y12003D01*
G01X6622Y11947D01*
G01X6610Y11888D01*
G01X6604Y11829D01*
G01X6604Y11770D01*
G01X6610Y11711D01*
G01X6622Y11652D01*
G01X6639Y11596D01*
G01X6662Y11541D01*
G01X6691Y11489D01*
G01X6724Y11439D01*
G01X6762Y11394D01*
G01X6805Y11352D01*
G01X6851Y11315D01*
G01X6876Y11300D01*
G01X6851Y11284D01*
G01X6805Y11247D01*
G01X6762Y11205D01*
G01X6724Y11160D01*
G01X6691Y11110D01*
G01X6662Y11058D01*
G01X6639Y11003D01*
G01X6622Y10947D01*
G01X6610Y10888D01*
G01X6604Y10829D01*
G01X6604Y10770D01*
G01X6610Y10711D01*
G01X6622Y10652D01*
G01X6639Y10596D01*
G01X6662Y10541D01*
G01X6691Y10489D01*
G01X6724Y10439D01*
G01X6762Y10394D01*
G01X6805Y10352D01*
G01X6851Y10315D01*
G01X6901Y10283D01*
G01X6954Y10256D01*
G01X7010Y10234D01*
G01X7067Y10218D01*
G01X7125Y10208D01*
G01X7185Y10203D01*
G01X7244Y10205D01*
G01X7303Y10212D01*
G01X7361Y10226D01*
G01X7417Y10244D01*
G01X7429Y10250D01*
G01X10400Y10250D01*
G01X10408Y10250D01*
G01X10417Y10250D01*
G01X10426Y10250D01*
G01X10435Y10251D01*
G01X10444Y10252D01*
G01X10452Y10253D01*
G01X10461Y10254D01*
G01X10470Y10255D01*
G01X10479Y10257D01*
G01X10487Y10258D01*
G01X10496Y10260D01*
G01X10505Y10262D01*
G01X10513Y10264D01*
G01X10522Y10266D01*
G01X10530Y10269D01*
G01X10539Y10272D01*
G01X10547Y10274D01*
G01X10555Y10277D01*
G01X10564Y10280D01*
G01X10572Y10284D01*
G01X10580Y10287D01*
G01X10588Y10291D01*
G01X10596Y10295D01*
G01X10604Y10299D01*
G01X10612Y10303D01*
G01X10619Y10307D01*
G01X10627Y10311D01*
G01X10635Y10316D01*
G01X10642Y10321D01*
G01X10650Y10325D01*
G01X10657Y10330D01*
G01X10664Y10335D01*
G01X10671Y10341D01*
G01X10678Y10346D01*
G01X10685Y10352D01*
G01X10692Y10357D01*
G01X10698Y10363D01*
G01X10705Y10369D01*
G01X10711Y10375D01*
G01X10718Y10381D01*
G01X11450Y11113D01*
G01X11450Y10800D01*
G01X11450Y10791D01*
G01X11450Y10782D01*
G01X11450Y10773D01*
G01X11451Y10764D01*
G01X11452Y10755D01*
G01X11453Y10747D01*
G01X11454Y10738D01*
G01X11455Y10729D01*
G01X11457Y10720D01*
G01X11458Y10712D01*
G01X11460Y10703D01*
G01X11462Y10694D01*
G01X11464Y10686D01*
G01X11466Y10677D01*
G01X11469Y10669D01*
G01X11472Y10660D01*
G01X11474Y10652D01*
G01X11477Y10644D01*
G01X11480Y10635D01*
G01X11484Y10627D01*
G01X11487Y10619D01*
G01X11491Y10611D01*
G01X11495Y10603D01*
G01X11499Y10595D01*
G01X11503Y10587D01*
G01X11507Y10580D01*
G01X11511Y10572D01*
G01X11516Y10564D01*
G01X11521Y10557D01*
G01X11525Y10549D01*
G01X11530Y10542D01*
G01X11535Y10535D01*
G01X11541Y10528D01*
G01X11546Y10521D01*
G01X11552Y10514D01*
G01X11557Y10507D01*
G01X11563Y10501D01*
G01X11569Y10494D01*
G01X11575Y10488D01*
G01X11581Y10481D01*
G01X11650Y10413D01*
G01X11650Y4600D01*
G01X11650Y4591D01*
G01X11650Y4582D01*
G01X11650Y4573D01*
G01X11651Y4564D01*
G01X11652Y4555D01*
G01X11653Y4547D01*
G01X11654Y4538D01*
G01X11655Y4529D01*
G01X11657Y4520D01*
G01X11658Y4512D01*
G01X11660Y4503D01*
G01X11662Y4494D01*
G01X11664Y4486D01*
G01X11666Y4477D01*
G01X11669Y4469D01*
G01X11672Y4460D01*
G01X11674Y4452D01*
G01X11677Y4444D01*
G01X11680Y4435D01*
G01X11684Y4427D01*
G01X11687Y4419D01*
G01X11691Y4411D01*
G01X11695Y4403D01*
G01X11699Y4395D01*
G01X11703Y4387D01*
G01X11707Y4380D01*
G01X11711Y4372D01*
G01X11716Y4364D01*
G01X11721Y4357D01*
G01X11725Y4349D01*
G01X11730Y4342D01*
G01X11735Y4335D01*
G01X11741Y4328D01*
G01X11746Y4321D01*
G01X11752Y4314D01*
G01X11757Y4307D01*
G01X11763Y4301D01*
G01X11769Y4294D01*
G01X11775Y4288D01*
G01X11781Y4281D01*
G01X13008Y3054D01*
G01X13015Y3048D01*
G01X13021Y3042D01*
G01X13028Y3036D01*
G01X13034Y3030D01*
G01X13041Y3025D01*
G01X13048Y3019D01*
G01X13055Y3014D01*
G01X13062Y3008D01*
G01X13069Y3003D01*
G01X13076Y2998D01*
G01X13084Y2994D01*
G01X13091Y2989D01*
G01X13099Y2984D01*
G01X13107Y2980D01*
G01X13114Y2976D01*
G01X13122Y2972D01*
G01X13130Y2968D01*
G01X13138Y2964D01*
G01X13146Y2960D01*
G01X13154Y2957D01*
G01X13162Y2953D01*
G01X13171Y2950D01*
G01X13179Y2947D01*
G01X13187Y2945D01*
G01X13196Y2942D01*
G01X13204Y2939D01*
G01X13213Y2937D01*
G01X13221Y2935D01*
G01X13226Y2934D01*
G01X13263Y2904D01*
G01X13311Y2873D01*
G01X13362Y2847D01*
G01X13416Y2826D01*
G01X13471Y2810D01*
G01X13528Y2800D01*
G01X13585Y2796D01*
G01X13643Y2798D01*
G01X13700Y2805D01*
G01X13756Y2817D01*
G01X13810Y2836D01*
G01X13863Y2859D01*
G01X13912Y2888D01*
G01X13959Y2922D01*
G01X14002Y2960D01*
G01X14041Y3002D01*
G01X14076Y3048D01*
G01X14106Y3097D01*
G01X14131Y3149D01*
G01X14150Y3203D01*
G01X14165Y3258D01*
G01X14173Y3315D01*
G01X14176Y3373D01*
G01X14173Y3430D01*
G01X14165Y3487D01*
G01X14150Y3542D01*
G01X14131Y3596D01*
G01X14106Y3648D01*
G01X14076Y3697D01*
G01X14041Y3743D01*
G01X14002Y3785D01*
G01X13959Y3823D01*
G01X13912Y3857D01*
G01X13863Y3886D01*
G01X13810Y3909D01*
G01X13756Y3928D01*
G01X13700Y3940D01*
G01X13643Y3947D01*
G01X13585Y3949D01*
G01X13528Y3945D01*
G01X13471Y3935D01*
G01X13416Y3919D01*
G01X12550Y4786D01*
G01X12550Y10600D01*
G01X12549Y10608D01*
G01X12549Y10617D01*
G01X12549Y10626D01*
G01X12548Y10635D01*
G01X12547Y10644D01*
G01X12546Y10652D01*
G01X12545Y10661D01*
G01X12544Y10670D01*
G01X12542Y10679D01*
G01X12541Y10687D01*
G01X12539Y10696D01*
G01X12537Y10705D01*
G01X12535Y10713D01*
G01X12533Y10722D01*
G01X12530Y10730D01*
G01X12527Y10739D01*
G01X12525Y10747D01*
G01X12522Y10755D01*
G01X12519Y10764D01*
G01X12515Y10772D01*
G01X12512Y10780D01*
G01X12508Y10788D01*
G01X12504Y10796D01*
G01X12500Y10804D01*
G01X12496Y10812D01*
G01X12492Y10819D01*
G01X12488Y10827D01*
G01X12483Y10835D01*
G01X12478Y10842D01*
G01X12474Y10850D01*
G01X12469Y10857D01*
G01X12464Y10864D01*
G01X12458Y10871D01*
G01X12453Y10878D01*
G01X12447Y10885D01*
G01X12442Y10892D01*
G01X12436Y10898D01*
G01X12430Y10905D01*
G01X12424Y10911D01*
G01X12418Y10918D01*
G01X12350Y10986D01*
G01X12350Y12813D01*
G01X12486Y12950D01*
G01X12500Y12950D01*
G01X12508Y12950D01*
G01X12517Y12950D01*
G01X12526Y12950D01*
G01X12531Y12951D01*
G01X12529Y12933D01*
G01X12529Y12866D01*
G01X12536Y12799D01*
G01X12549Y12734D01*
G01X12569Y12670D01*
G01X12595Y12608D01*
G01X12627Y12550D01*
G01X12665Y12494D01*
G01X12708Y12443D01*
G01X12750Y12402D01*
G01X12750Y5100D01*
G01X12750Y5091D01*
G01X12750Y5082D01*
G01X12750Y5073D01*
G01X12751Y5064D01*
G01X12752Y5055D01*
G01X12753Y5047D01*
G01X12754Y5038D01*
G01X12755Y5029D01*
G01X12757Y5020D01*
G01X12758Y5012D01*
G01X12760Y5003D01*
G01X12762Y4994D01*
G01X12764Y4986D01*
G01X12766Y4977D01*
G01X12769Y4969D01*
G01X12772Y4960D01*
G01X12774Y4952D01*
G01X12777Y4944D01*
G01X12780Y4935D01*
G01X12784Y4927D01*
G01X12787Y4919D01*
G01X12791Y4911D01*
G01X12795Y4903D01*
G01X12799Y4895D01*
G01X12803Y4887D01*
G01X12807Y4880D01*
G01X12811Y4872D01*
G01X12816Y4864D01*
G01X12821Y4857D01*
G01X12825Y4849D01*
G01X12830Y4842D01*
G01X12835Y4835D01*
G01X12841Y4828D01*
G01X12846Y4821D01*
G01X12852Y4814D01*
G01X12857Y4807D01*
G01X12863Y4801D01*
G01X12869Y4794D01*
G01X12875Y4788D01*
G01X12881Y4781D01*
G01X13281Y4381D01*
G01X13288Y4375D01*
G01X13294Y4369D01*
G01X13301Y4363D01*
G01X13307Y4357D01*
G01X13314Y4352D01*
G01X13321Y4346D01*
G01X13328Y4341D01*
G01X13335Y4335D01*
G01X13342Y4330D01*
G01X13349Y4325D01*
G01X13357Y4321D01*
G01X13364Y4316D01*
G01X13372Y4311D01*
G01X13380Y4307D01*
G01X13387Y4303D01*
G01X13395Y4299D01*
G01X13403Y4295D01*
G01X13411Y4291D01*
G01X13419Y4287D01*
G01X13427Y4284D01*
G01X13435Y4280D01*
G01X13444Y4277D01*
G01X13452Y4274D01*
G01X13460Y4272D01*
G01X13469Y4269D01*
G01X13477Y4266D01*
G01X13486Y4264D01*
G01X13494Y4262D01*
G01X13503Y4260D01*
G01X13512Y4258D01*
G01X13520Y4257D01*
G01X13529Y4255D01*
G01X13538Y4254D01*
G01X13547Y4253D01*
G01X13555Y4252D01*
G01X13564Y4251D01*
G01X13573Y4250D01*
G01X13582Y4250D01*
G01X13591Y4250D01*
G01X13600Y4250D01*
G01X14186Y4250D01*
G01X15127Y3308D01*
G01X15129Y3287D01*
G01X15141Y3230D01*
G01X15158Y3175D01*
G01X15180Y3122D01*
G01X15207Y3072D01*
G01X15240Y3024D01*
G01X15277Y2980D01*
G01X15318Y2940D01*
G01X15363Y2904D01*
G01X15411Y2873D01*
G01X15462Y2847D01*
G01X15516Y2826D01*
G01X15571Y2810D01*
G01X15628Y2800D01*
G01X15685Y2796D01*
G01X15743Y2798D01*
G01X15800Y2805D01*
G01X15856Y2817D01*
G01X15910Y2836D01*
G01X15963Y2859D01*
G01X16012Y2888D01*
G01X16059Y2922D01*
G01X16102Y2960D01*
G01X16141Y3002D01*
G01X16176Y3048D01*
G01X16206Y3097D01*
G01X16231Y3149D01*
G01X16250Y3203D01*
G01X16265Y3258D01*
G01X16273Y3315D01*
G01X16276Y3373D01*
G01X16273Y3430D01*
G01X16265Y3487D01*
G01X16250Y3542D01*
G01X16231Y3596D01*
G01X16206Y3648D01*
G01X16176Y3697D01*
G01X16141Y3743D01*
G01X16102Y3785D01*
G01X16059Y3823D01*
G01X16012Y3857D01*
G01X15963Y3886D01*
G01X15910Y3909D01*
G01X15856Y3928D01*
G01X15800Y3940D01*
G01X15764Y3945D01*
G01X14691Y5018D01*
G01X14684Y5024D01*
G01X14678Y5030D01*
G01X14671Y5036D01*
G01X14665Y5042D01*
G01X14658Y5047D01*
G01X14651Y5053D01*
G01X14644Y5058D01*
G01X14637Y5064D01*
G01X14630Y5069D01*
G01X14623Y5074D01*
G01X14615Y5078D01*
G01X14608Y5083D01*
G01X14600Y5088D01*
G01X14592Y5092D01*
G01X14585Y5096D01*
G01X14577Y5100D01*
G01X14569Y5104D01*
G01X14561Y5108D01*
G01X14553Y5112D01*
G01X14545Y5115D01*
G01X14537Y5119D01*
G01X14528Y5122D01*
G01X14520Y5125D01*
G01X14512Y5127D01*
G01X14503Y5130D01*
G01X14495Y5133D01*
G01X14486Y5135D01*
G01X14478Y5137D01*
G01X14469Y5139D01*
G01X14460Y5141D01*
G01X14452Y5142D01*
G01X14443Y5144D01*
G01X14434Y5145D01*
G01X14425Y5146D01*
G01X14417Y5147D01*
G01X14408Y5148D01*
G01X14399Y5149D01*
G01X14390Y5149D01*
G01X14381Y5149D01*
G01X14372Y5150D01*
G01X13786Y5150D01*
G01X13650Y5286D01*
G01X13650Y12403D01*
G01X13668Y12419D01*
G01X13714Y12468D01*
G01X13754Y12522D01*
G01X13789Y12579D01*
G01X13818Y12639D01*
G01X13841Y12702D01*
G01X13857Y12767D01*
G01X13867Y12833D01*
G01X13871Y12900D01*
G01X13867Y12966D01*
G01X13857Y13032D01*
G01X13841Y13097D01*
G01X13818Y13160D01*
G01X13789Y13220D01*
G01X13754Y13277D01*
G01X13714Y13331D01*
G01X13668Y13380D01*
G01X13618Y13424D01*
G01X13564Y13463D01*
G01X13506Y13497D01*
G01X13499Y13500D01*
G01X13506Y13502D01*
G01X13564Y13536D01*
G01X13618Y13575D01*
G01X13668Y13619D01*
G01X13714Y13668D01*
G01X13754Y13722D01*
G01X13789Y13779D01*
G01X13818Y13839D01*
G01X13841Y13902D01*
G01X13857Y13967D01*
G01X13867Y14033D01*
G01X13871Y14100D01*
G01X13867Y14166D01*
G01X13857Y14232D01*
G01X13841Y14297D01*
G01X13818Y14360D01*
G01X13789Y14420D01*
G01X13754Y14477D01*
G01X13714Y14531D01*
G01X13668Y14580D01*
G01X13618Y14624D01*
G01X13564Y14663D01*
G01X13506Y14697D01*
G01X13445Y14724D01*
G01X13381Y14745D01*
G01X13363Y14750D01*
G01X15300Y14750D01*
G01X15308Y14750D01*
G01X15317Y14750D01*
G01X15326Y14750D01*
G01X15335Y14751D01*
G01X15344Y14752D01*
G01X15352Y14753D01*
G01X15361Y14754D01*
G01X15370Y14755D01*
G01X15379Y14757D01*
G01X15387Y14758D01*
G01X15396Y14760D01*
G01X15405Y14762D01*
G01X15413Y14764D01*
G01X15422Y14766D01*
G01X15430Y14769D01*
G01X15439Y14772D01*
G01X15447Y14774D01*
G01X15455Y14777D01*
G01X15464Y14780D01*
G01X15472Y14784D01*
G01X15480Y14787D01*
G01X15488Y14791D01*
G01X15496Y14795D01*
G01X15504Y14799D01*
G01X15512Y14803D01*
G01X15519Y14807D01*
G01X15527Y14811D01*
G01X15535Y14816D01*
G01X15542Y14821D01*
G01X15550Y14825D01*
G01X15557Y14830D01*
G01X15564Y14835D01*
G01X15571Y14841D01*
G01X15578Y14846D01*
G01X15585Y14852D01*
G01X15592Y14857D01*
G01X15598Y14863D01*
G01X15605Y14869D01*
G01X15611Y14875D01*
G01X15618Y14881D01*
G01X16818Y16081D01*
G01X16824Y16088D01*
G01X16830Y16094D01*
G01X16836Y16101D01*
G01X16842Y16107D01*
G01X16847Y16114D01*
G01X16853Y16121D01*
G01X16858Y16128D01*
G01X16864Y16135D01*
G01X16869Y16142D01*
G01X16874Y16149D01*
G01X16878Y16157D01*
G01X16883Y16164D01*
G01X16888Y16172D01*
G01X16892Y16180D01*
G01X16896Y16187D01*
G01X16900Y16195D01*
G01X16904Y16203D01*
G01X16908Y16211D01*
G01X16912Y16219D01*
G01X16915Y16227D01*
G01X16919Y16235D01*
G01X16922Y16244D01*
G01X16925Y16252D01*
G01X16927Y16260D01*
G01X16930Y16269D01*
G01X16933Y16277D01*
G01X16935Y16286D01*
G01X16937Y16294D01*
G01X16939Y16303D01*
G01X16941Y16312D01*
G01X16942Y16320D01*
G01X16944Y16329D01*
G01X16945Y16338D01*
G01X16946Y16347D01*
G01X16947Y16355D01*
G01X16948Y16364D01*
G01X16949Y16373D01*
G01X16949Y16382D01*
G01X16949Y16391D01*
G01X16950Y16400D01*
G01X16950Y17103D01*
G01X16968Y17119D01*
G01X17014Y17168D01*
G01X17054Y17222D01*
G01X17089Y17279D01*
G01X17118Y17339D01*
G01X17141Y17402D01*
G01X17157Y17467D01*
G01X17167Y17533D01*
G01X17171Y17600D01*
G01X17167Y17666D01*
G01X17157Y17732D01*
G01X17141Y17797D01*
G01X17118Y17860D01*
G01X17089Y17920D01*
G01X17054Y17977D01*
G01X17014Y18031D01*
G01X16968Y18080D01*
G01X16918Y18124D01*
G01X16864Y18163D01*
G01X16806Y18197D01*
G01X16745Y18224D01*
G01X16681Y18245D01*
G01X16616Y18260D01*
G01X16550Y18269D01*
G01X16483Y18270D01*
G01X16416Y18265D01*
G01X16350Y18254D01*
G01X16286Y18236D01*
G01X16224Y18211D01*
G01X16164Y18181D01*
G01X16108Y18144D01*
G01X16056Y18103D01*
G01X16008Y18056D01*
G01X15965Y18005D01*
G01X15927Y17949D01*
G01X15895Y17891D01*
G01X15869Y17829D01*
G01X15849Y17765D01*
G01X15836Y17700D01*
G01X15829Y17633D01*
G01X15829Y17566D01*
G01X15836Y17499D01*
G01X15849Y17434D01*
G01X15869Y17370D01*
G01X15895Y17308D01*
G01X15927Y17250D01*
G01X15965Y17194D01*
G01X16008Y17143D01*
G01X16050Y17102D01*
G01X16050Y16586D01*
G01X15113Y15650D01*
G01X14686Y15650D01*
G01X15018Y15981D01*
G01X15024Y15988D01*
G01X15030Y15994D01*
G01X15036Y16001D01*
G01X15042Y16007D01*
G01X15047Y16014D01*
G01X15053Y16021D01*
G01X15058Y16028D01*
G01X15064Y16035D01*
G01X15069Y16042D01*
G01X15074Y16049D01*
G01X15078Y16057D01*
G01X15083Y16064D01*
G01X15088Y16072D01*
G01X15092Y16080D01*
G01X15096Y16087D01*
G01X15100Y16095D01*
G01X15104Y16103D01*
G01X15108Y16111D01*
G01X15112Y16119D01*
G01X15115Y16127D01*
G01X15119Y16135D01*
G01X15122Y16144D01*
G01X15125Y16152D01*
G01X15127Y16160D01*
G01X15130Y16169D01*
G01X15133Y16177D01*
G01X15135Y16186D01*
G01X15137Y16194D01*
G01X15139Y16203D01*
G01X15141Y16212D01*
G01X15142Y16220D01*
G01X15144Y16229D01*
G01X15145Y16238D01*
G01X15146Y16247D01*
G01X15147Y16255D01*
G01X15148Y16264D01*
G01X15149Y16273D01*
G01X15149Y16282D01*
G01X15149Y16291D01*
G01X15150Y16300D01*
G01X15150Y18924D01*
G01X15153Y18926D01*
G01X15160Y18930D01*
G01X15166Y18934D01*
G01X15172Y18937D01*
G01X15178Y18942D01*
G01X15185Y18946D01*
G01X15191Y18950D01*
G01X15197Y18955D01*
G01X15202Y18960D01*
G01X15208Y18965D01*
G01X15214Y18970D01*
G01X15219Y18975D01*
G01X15224Y18980D01*
G01X15229Y18985D01*
G01X15234Y18991D01*
G01X15239Y18997D01*
G01X15244Y19002D01*
G01X15249Y19008D01*
G01X15253Y19014D01*
G01X15257Y19021D01*
G01X15262Y19027D01*
G01X15265Y19033D01*
G01X15269Y19040D01*
G01X15273Y19046D01*
G01X15276Y19053D01*
G01X15280Y19059D01*
G01X15283Y19066D01*
G01X15286Y19073D01*
G01X15289Y19080D01*
G01X15291Y19087D01*
G01X15294Y19094D01*
G01X15296Y19101D01*
G01X15298Y19108D01*
G01X15300Y19115D01*
G01X15302Y19123D01*
G01X15304Y19130D01*
G01X15305Y19137D01*
G01X15306Y19145D01*
G01X15307Y19152D01*
G01X15308Y19160D01*
G01X15309Y19167D01*
G01X15309Y19175D01*
G01X15309Y19182D01*
G01X15310Y19190D01*
G01X15310Y19809D01*
G01X15309Y19817D01*
G01X15309Y19824D01*
G01X15309Y19832D01*
G01X15308Y19839D01*
G01X15307Y19847D01*
G01X15306Y19854D01*
G01X15305Y19862D01*
G01X15304Y19869D01*
G01X15302Y19876D01*
G01X15300Y19884D01*
G01X15298Y19891D01*
G01X15296Y19898D01*
G01X15294Y19905D01*
G01X15291Y19912D01*
G01X15289Y19919D01*
G01X15286Y19926D01*
G01X15283Y19933D01*
G01X15280Y19940D01*
G01X15276Y19946D01*
G01X15273Y19953D01*
G01X15269Y19959D01*
G01X15265Y19966D01*
G01X15262Y19972D01*
G01X15257Y19978D01*
G01X15253Y19985D01*
G01X15249Y19991D01*
G01X15244Y19997D01*
G01X15239Y20002D01*
G01X15234Y20008D01*
G01X15229Y20014D01*
G01X15224Y20019D01*
G01X15219Y20024D01*
G01X15214Y20029D01*
G01X15208Y20034D01*
G01X15202Y20039D01*
G01X15197Y20044D01*
G01X15191Y20049D01*
G01X15185Y20053D01*
G01X15178Y20057D01*
G01X15172Y20062D01*
G01X15166Y20065D01*
G01X15160Y20069D01*
G01X15153Y20073D01*
G01X15146Y20076D01*
G01X15140Y20080D01*
G01X15133Y20083D01*
G01X15126Y20086D01*
G01X15119Y20089D01*
G01X15112Y20091D01*
G01X15105Y20094D01*
G01X15098Y20096D01*
G01X15091Y20098D01*
G01X15084Y20100D01*
G01X15076Y20102D01*
G01X15069Y20104D01*
G01X15062Y20105D01*
G01X15054Y20106D01*
G01X15047Y20107D01*
G01X15039Y20108D01*
G01X15032Y20109D01*
G01X15024Y20109D01*
G01X15017Y20109D01*
G01X15010Y20109D01*
G01X14389Y20109D01*
G01X14382Y20109D01*
G01X14375Y20109D01*
G01X14367Y20109D01*
G01X14360Y20108D01*
G01X14352Y20107D01*
G01X14345Y20106D01*
G01X14337Y20105D01*
G01X14330Y20104D01*
G01X14323Y20102D01*
G01X14315Y20100D01*
G01X14308Y20098D01*
G01X14301Y20096D01*
G01X14294Y20094D01*
G01X14287Y20091D01*
G01X14280Y20089D01*
G01X14273Y20086D01*
G01X14266Y20083D01*
G01X14259Y20080D01*
G01X14253Y20076D01*
G01X14246Y20073D01*
G01X14239Y20069D01*
G01X14233Y20065D01*
G01X14227Y20062D01*
G01X14221Y20057D01*
G01X14214Y20053D01*
G01X14208Y20049D01*
G01X14202Y20044D01*
G01X14197Y20039D01*
G01X14191Y20034D01*
G01X14185Y20029D01*
G01X14180Y20024D01*
G01X14175Y20019D01*
G01X14170Y20014D01*
G01X14165Y20008D01*
G01X14160Y20002D01*
G01X14155Y19997D01*
G01X14150Y19991D01*
G01X14150Y19989D01*
G01X14150Y21100D01*
G01X14149Y21108D01*
G01X14149Y21117D01*
G01X14149Y21126D01*
G01X14148Y21135D01*
G01X14147Y21144D01*
G01X14146Y21152D01*
G01X14145Y21161D01*
G01X14144Y21170D01*
G01X14142Y21179D01*
G01X14141Y21187D01*
G01X14139Y21196D01*
G01X14137Y21205D01*
G01X14135Y21213D01*
G01X14133Y21222D01*
G01X14130Y21230D01*
G01X14127Y21239D01*
G01X14125Y21247D01*
G01X14122Y21255D01*
G01X14119Y21264D01*
G01X14115Y21272D01*
G01X14112Y21280D01*
G01X14108Y21288D01*
G01X14104Y21296D01*
G01X14100Y21304D01*
G01X14096Y21312D01*
G01X14092Y21319D01*
G01X14088Y21327D01*
G01X14083Y21335D01*
G01X14078Y21342D01*
G01X14074Y21350D01*
G01X14069Y21357D01*
G01X14064Y21364D01*
G01X14058Y21371D01*
G01X14053Y21378D01*
G01X14047Y21385D01*
G01X14042Y21392D01*
G01X14036Y21398D01*
G01X14030Y21405D01*
G01X14024Y21411D01*
G01X14018Y21418D01*
G01X13418Y22018D01*
G01X13411Y22024D01*
G01X13405Y22030D01*
G01X13398Y22036D01*
G01X13392Y22042D01*
G01X13385Y22047D01*
G01X13378Y22053D01*
G01X13371Y22058D01*
G01X13364Y22064D01*
G01X13357Y22069D01*
G01X13350Y22074D01*
G01X13342Y22078D01*
G01X13335Y22083D01*
G01X13327Y22088D01*
G01X13319Y22092D01*
G01X13312Y22096D01*
G01X13304Y22100D01*
G01X13296Y22104D01*
G01X13288Y22108D01*
G01X13280Y22112D01*
G01X13272Y22115D01*
G01X13264Y22119D01*
G01X13255Y22122D01*
G01X13247Y22125D01*
G01X13239Y22127D01*
G01X13230Y22130D01*
G01X13222Y22133D01*
G01X13213Y22135D01*
G01X13205Y22137D01*
G01X13196Y22139D01*
G01X13187Y22141D01*
G01X13179Y22142D01*
G01X13170Y22144D01*
G01X13161Y22145D01*
G01X13152Y22146D01*
G01X13144Y22147D01*
G01X13135Y22148D01*
G01X13126Y22149D01*
G01X13117Y22149D01*
G01X13108Y22149D01*
G01X13100Y22150D01*
G01X7796Y22150D01*
G01X7768Y22180D01*
G01X7718Y22224D01*
G01X7664Y22263D01*
G01X7606Y22297D01*
G01X7545Y22324D01*
G01X7481Y22345D01*
G01X7416Y22360D01*
G01X7350Y22369D01*
G01X7283Y22370D01*
G01X7216Y22365D01*
G01X7150Y22354D01*
G01X7086Y22336D01*
G01X7024Y22311D01*
G01X6964Y22281D01*
G01X6908Y22244D01*
G01X6856Y22203D01*
G01X6808Y22156D01*
G01X6765Y22105D01*
G01X6727Y22049D01*
G01X6695Y21991D01*
G01X6669Y21929D01*
G01X6649Y21865D01*
G01X6636Y21800D01*
G01X6629Y21733D01*
G01X6629Y21666D01*
G01X6636Y21599D01*
G01X6649Y21534D01*
G01X6669Y21470D01*
G01X6695Y21408D01*
G01X6727Y21350D01*
G01X6765Y21294D01*
G01X6808Y21243D01*
G01X6850Y21202D01*
G01X6850Y20697D01*
G01X6808Y20656D01*
G01X6800Y20646D01*
G01X6800Y20800D01*
G01X6799Y20808D01*
G01X6799Y20816D01*
G01X6799Y20824D01*
G01X6798Y20833D01*
G01X6797Y20841D01*
G01X6796Y20849D01*
G01X6795Y20857D01*
G01X6794Y20865D01*
G01X6793Y20873D01*
G01X6791Y20882D01*
G01X6789Y20890D01*
G01X6787Y20898D01*
G01X6785Y20906D01*
G01X6783Y20914D01*
G01X6780Y20922D01*
G01X6778Y20929D01*
G01X6775Y20937D01*
G01X6772Y20945D01*
G01X6769Y20953D01*
G01X6766Y20960D01*
G01X6762Y20968D01*
G01X6759Y20975D01*
G01X6755Y20983D01*
G01X6751Y20990D01*
G01X6747Y20997D01*
G01X6743Y21004D01*
G01X6739Y21011D01*
G01X6734Y21018D01*
G01X6730Y21025D01*
G01X6725Y21032D01*
G01X6720Y21039D01*
G01X6715Y21045D01*
G01X6710Y21052D01*
G01X6705Y21058D01*
G01X6699Y21064D01*
G01X6694Y21070D01*
G01X6688Y21076D01*
G01X6682Y21082D01*
G01X6582Y21182D01*
G01X6576Y21188D01*
G01X6570Y21194D01*
G01X6564Y21199D01*
G01X6558Y21205D01*
G01X6552Y21210D01*
G01X6545Y21215D01*
G01X6539Y21220D01*
G01X6532Y21225D01*
G01X6525Y21230D01*
G01X6518Y21234D01*
G01X6511Y21239D01*
G01X6504Y21243D01*
G01X6497Y21247D01*
G01X6490Y21251D01*
G01X6483Y21255D01*
G01X6475Y21259D01*
G01X6468Y21262D01*
G01X6460Y21266D01*
G01X6453Y21269D01*
G01X6445Y21272D01*
G01X6437Y21275D01*
G01X6429Y21278D01*
G01X6422Y21280D01*
G01X6414Y21283D01*
G01X6406Y21285D01*
G01X6398Y21287D01*
G01X6390Y21289D01*
G01X6382Y21291D01*
G01X6373Y21293D01*
G01X6365Y21294D01*
G01X6357Y21295D01*
G01X6349Y21296D01*
G01X6341Y21297D01*
G01X6333Y21298D01*
G01X6324Y21299D01*
G01X6316Y21299D01*
G01X6308Y21299D01*
G01X6300Y21300D01*
G01X2800Y21300D01*
G01X2791Y21299D01*
G01X2783Y21299D01*
G01X2775Y21299D01*
G01X2766Y21298D01*
G01X2758Y21297D01*
G01X2750Y21296D01*
G01X2742Y21295D01*
G01X2734Y21294D01*
G01X2726Y21293D01*
G01X2717Y21291D01*
G01X2709Y21289D01*
G01X2701Y21287D01*
G01X2693Y21285D01*
G01X2685Y21283D01*
G01X2677Y21280D01*
G01X2670Y21278D01*
G01X2662Y21275D01*
G01X2654Y21272D01*
G01X2646Y21269D01*
G01X2639Y21266D01*
G01X2631Y21262D01*
G01X2624Y21259D01*
G01X2616Y21255D01*
G01X2609Y21251D01*
G01X2602Y21247D01*
G01X2595Y21243D01*
G01X2588Y21239D01*
G01X2581Y21234D01*
G01X2574Y21230D01*
G01X2567Y21225D01*
G01X2560Y21220D01*
G01X2554Y21215D01*
G01X2547Y21210D01*
G01X2541Y21205D01*
G01X2535Y21199D01*
G01X2529Y21194D01*
G01X2523Y21188D01*
G01X2517Y21182D01*
G01X2117Y20782D01*
G01X2111Y20776D01*
G01X2105Y20770D01*
G01X2100Y20764D01*
G01X2094Y20758D01*
G01X2089Y20752D01*
G01X2084Y20745D01*
G01X2079Y20739D01*
G01X2074Y20732D01*
G01X2069Y20725D01*
G01X2065Y20718D01*
G01X2060Y20711D01*
G01X2056Y20704D01*
G01X2052Y20697D01*
G01X2048Y20690D01*
G01X2044Y20683D01*
G01X2040Y20675D01*
G01X2037Y20668D01*
G01X2033Y20660D01*
G01X2030Y20653D01*
G01X2027Y20645D01*
G01X2024Y20637D01*
G01X2021Y20629D01*
G01X2019Y20622D01*
G01X2016Y20614D01*
G01X2014Y20606D01*
G01X2012Y20598D01*
G01X2010Y20590D01*
G01X2008Y20582D01*
G01X2006Y20573D01*
G01X2005Y20565D01*
G01X2004Y20557D01*
G01X2003Y20549D01*
G01X2002Y20541D01*
G01X2001Y20533D01*
G01X2000Y20524D01*
G01X2000Y20516D01*
G01X2000Y20508D01*
G01X2000Y20500D01*
G01X2000Y19850D01*
G01X2000Y19841D01*
G01X2000Y19833D01*
G01X2000Y19825D01*
G01X2001Y19817D01*
G01X2002Y19809D01*
G01X2003Y19800D01*
G01X2004Y19792D01*
G01X2005Y19784D01*
G01X2006Y19776D01*
G01X2008Y19768D01*
G01X2010Y19760D01*
G01X2012Y19752D01*
G01X2014Y19744D01*
G01X2016Y19736D01*
G01X2018Y19728D01*
G01X2021Y19721D01*
G01X2024Y19713D01*
G01X2026Y19705D01*
G01X2029Y19698D01*
G01X2033Y19690D01*
G01X2036Y19683D01*
G01X2040Y19675D01*
G01X2043Y19668D01*
G01X2047Y19661D01*
G01X2051Y19653D01*
G01X2055Y19646D01*
G01X2059Y19639D01*
G01X2064Y19632D01*
G01X2068Y19625D01*
G01X2073Y19619D01*
G01X2078Y19612D01*
G01X2083Y19605D01*
G01X2088Y19599D01*
G01X2093Y19593D01*
G01X2098Y19586D01*
G01X2104Y19580D01*
G01X2109Y19574D01*
G01X2115Y19568D01*
G01X2121Y19563D01*
G01X2127Y19557D01*
G01X2133Y19551D01*
G01X2139Y19546D01*
G01X2145Y19541D01*
G01X2152Y19536D01*
G01X2158Y19531D01*
G01X2165Y19526D01*
G01X2171Y19521D01*
G01X2178Y19516D01*
G01X2185Y19512D01*
G01X2192Y19508D01*
G01X2199Y19503D01*
G01X2206Y19499D01*
G01X2213Y19495D01*
G01X2221Y19492D01*
G01X2668Y19268D01*
G01X2637Y19272D01*
G01X2568Y19273D01*
G01X2499Y19268D01*
G01X2431Y19256D01*
G01X2364Y19238D01*
G01X2300Y19212D01*
G01X2238Y19181D01*
G01X2180Y19143D01*
G01X2126Y19100D01*
G01X2076Y19052D01*
G01X2032Y18998D01*
G01X1993Y18941D01*
G01X1959Y18880D01*
G01X1932Y18817D01*
G01X1912Y18750D01*
G01X1898Y18683D01*
G01X1891Y18614D01*
G01X1891Y18544D01*
G01X1898Y18475D01*
G01X1912Y18408D01*
G01X1932Y18341D01*
G01X1959Y18278D01*
G01X1993Y18217D01*
G01X2032Y18160D01*
G01X2050Y18138D01*
G01X2050Y17600D01*
G01X2050Y17590D01*
G01X2050Y17580D01*
G01X2050Y17571D01*
G01X2051Y17561D01*
G01X2052Y17552D01*
G01X2053Y17542D01*
G01X2054Y17532D01*
G01X2055Y17523D01*
G01X2056Y17513D01*
G01X2058Y17504D01*
G01X2060Y17495D01*
G01X2062Y17485D01*
G01X2064Y17476D01*
G01X2066Y17466D01*
G01X2068Y17457D01*
G01X2071Y17448D01*
G01X2074Y17439D01*
G01X2076Y17430D01*
G01X2079Y17420D01*
G01X2083Y17411D01*
G01X2086Y17402D01*
G01X2090Y17393D01*
G01X2093Y17385D01*
G01X2097Y17376D01*
G01X2101Y17367D01*
G01X2105Y17358D01*
G01X2109Y17350D01*
G01X2114Y17341D01*
G01X2118Y17333D01*
G01X2123Y17325D01*
G01X2128Y17316D01*
G01X2133Y17308D01*
G01X2138Y17300D01*
G01X2144Y17292D01*
G01X2149Y17284D01*
G01X2150Y17283D01*
G01X2150Y16560D01*
G01X2126Y16541D01*
G01X2076Y16493D01*
G01X2032Y16439D01*
G01X1993Y16382D01*
G01X1959Y16321D01*
G01X1932Y16258D01*
G01X1912Y16191D01*
G01X1898Y16124D01*
G01X1891Y16055D01*
G01X1891Y15985D01*
G01X1898Y15916D01*
G01X1912Y15849D01*
G01X1932Y15782D01*
G01X1959Y15719D01*
G01X1993Y15658D01*
G01X2032Y15601D01*
G01X2076Y15547D01*
G01X2126Y15499D01*
G01X2180Y15456D01*
G01X2238Y15418D01*
G01X2300Y15387D01*
G01X2364Y15361D01*
G01X2431Y15343D01*
G01X2499Y15331D01*
G01X2568Y15326D01*
G01X2637Y15327D01*
G01X2706Y15336D01*
G01X2773Y15351D01*
G01X2839Y15373D01*
G01X2902Y15402D01*
G01X2962Y15436D01*
G01X3018Y15477D01*
G01X3070Y15523D01*
G01X3117Y15573D01*
G01X3159Y15629D01*
G01X3195Y15688D01*
G01X3225Y15750D01*
G01X3249Y15815D01*
G01X3266Y15882D01*
G01X3277Y15951D01*
G01X3280Y16020D01*
G01X3277Y16089D01*
G01X3266Y16158D01*
G01X3250Y16223D01*
G01X3250Y16950D01*
G01X3750Y16950D01*
G01X3750Y16351D01*
G01X3748Y16350D01*
G01X3742Y16347D01*
G01X3735Y16342D01*
G01X3729Y16338D01*
G01X3723Y16334D01*
G01X3717Y16329D01*
G01X3712Y16324D01*
G01X3706Y16319D01*
G01X3700Y16314D01*
G01X3695Y16309D01*
G01X3690Y16304D01*
G01X3685Y16299D01*
G01X3680Y16293D01*
G01X3675Y16287D01*
G01X3670Y16282D01*
G01X3665Y16276D01*
G01X3661Y16270D01*
G01X3657Y16263D01*
G01X3652Y16257D01*
G01X3649Y16251D01*
G01X3645Y16244D01*
G01X3641Y16238D01*
G01X3638Y16231D01*
G01X3634Y16225D01*
G01X3631Y16218D01*
G01X3628Y16211D01*
G01X3625Y16204D01*
G01X3623Y16197D01*
G01X3620Y16190D01*
G01X3618Y16183D01*
G01X3616Y16176D01*
G01X3614Y16169D01*
G01X3612Y16161D01*
G01X3610Y16154D01*
G01X3609Y16147D01*
G01X3608Y16139D01*
G01X3607Y16132D01*
G01X3606Y16124D01*
G01X3605Y16117D01*
G01X3605Y16109D01*
G01X3605Y16102D01*
G01X3605Y16094D01*
G01X3605Y15841D01*
G01X3013Y15250D01*
G01X2397Y15250D01*
G01X2374Y15269D01*
G01X2326Y15304D01*
G01X2274Y15334D01*
G01X2219Y15359D01*
G01X2162Y15378D01*
G01X2104Y15391D01*
G01X2044Y15399D01*
G01X1985Y15400D01*
G01X1925Y15396D01*
G01X1866Y15385D01*
G01X1808Y15369D01*
G01X1752Y15347D01*
G01X1699Y15320D01*
G01X1649Y15287D01*
G01X1602Y15250D01*
G01X1559Y15208D01*
G01X1520Y15162D01*
G01X1487Y15113D01*
G01X1458Y15060D01*
G01X1435Y15005D01*
G01X1417Y14948D01*
G01X1405Y14889D01*
G01X1399Y14829D01*
G01X1399Y14770D01*
G01X1405Y14710D01*
G01X1417Y14651D01*
G01X1435Y14594D01*
G01X1458Y14539D01*
G01X1487Y14486D01*
G01X1520Y14437D01*
G01X1559Y14391D01*
G01X1602Y14349D01*
G01X1649Y14312D01*
G01X1667Y14300D01*
G01X1649Y14287D01*
G01X1602Y14250D01*
G01X1559Y14208D01*
G01X1520Y14162D01*
G01X1487Y14113D01*
G01X1458Y14060D01*
G01X1435Y14005D01*
G01X1417Y13948D01*
G01X1405Y13889D01*
G01X1399Y13829D01*
G01X1399Y13770D01*
G01X1405Y13710D01*
G01X1417Y13651D01*
G01X1435Y13594D01*
G01X1458Y13539D01*
G01X1487Y13486D01*
G01X1520Y13437D01*
G01X1559Y13391D01*
G01X1602Y13349D01*
G01X1649Y13312D01*
G01X1667Y13300D01*
G01X1649Y13287D01*
G01X1602Y13250D01*
G01X1559Y13208D01*
G01X1520Y13162D01*
G01X1487Y13113D01*
G01X1458Y13060D01*
G01X1435Y13005D01*
G01X1417Y12948D01*
G01X1405Y12889D01*
G01X1399Y12829D01*
G01X1399Y12770D01*
G01X1405Y12710D01*
G01X1417Y12651D01*
G01X1435Y12594D01*
G01X1458Y12539D01*
G01X1487Y12486D01*
G01X1520Y12437D01*
G01X1559Y12391D01*
G01X1602Y12349D01*
G01X1649Y12312D01*
G01X1699Y12279D01*
G01X1752Y12252D01*
G01X1808Y12230D01*
G01X1866Y12214D01*
G01X1925Y12203D01*
G01X1985Y12199D01*
G01X2044Y12200D01*
G01X2104Y12208D01*
G01X2162Y12221D01*
G01X2219Y12240D01*
G01X2274Y12265D01*
G01X2326Y12295D01*
G01X2374Y12330D01*
G01X2397Y12350D01*
G01X3200Y12350D01*
G01X3208Y12350D01*
G01X3217Y12350D01*
G01X3226Y12350D01*
G01X3235Y12351D01*
G01X3244Y12352D01*
G01X3252Y12353D01*
G01X3261Y12354D01*
G01X3270Y12355D01*
G01X3279Y12357D01*
G01X3287Y12358D01*
G01X3296Y12360D01*
G01X3305Y12362D01*
G01X3313Y12364D01*
G01X3322Y12366D01*
G01X3330Y12369D01*
G01X3339Y12372D01*
G01X3347Y12374D01*
G01X3355Y12377D01*
G01X3364Y12380D01*
G01X3372Y12384D01*
G01X3380Y12387D01*
G01X3388Y12391D01*
G01X3396Y12395D01*
G01X3404Y12399D01*
G01X3412Y12403D01*
G01X3419Y12407D01*
G01X3427Y12411D01*
G01X3435Y12416D01*
G01X3442Y12421D01*
G01X3450Y12425D01*
G01X3457Y12430D01*
G01X3464Y12435D01*
G01X3471Y12441D01*
G01X3478Y12446D01*
G01X3485Y12452D01*
G01X3492Y12457D01*
G01X3498Y12463D01*
G01X3505Y12469D01*
G01X3511Y12475D01*
G01X3518Y12481D01*
G01X3637Y12601D01*
G01X3639Y12596D01*
G01X3662Y12541D01*
G01X3691Y12489D01*
G01X3724Y12439D01*
G01X3762Y12394D01*
G01X3805Y12352D01*
G01X3851Y12315D01*
G01X3876Y12300D01*
G01X3851Y12284D01*
G01X3805Y12247D01*
G01X3762Y12205D01*
G01X3724Y12160D01*
G01X3691Y12110D01*
G01X3662Y12058D01*
G01X3639Y12003D01*
G01X3622Y11947D01*
G01X3610Y11888D01*
G01X3604Y11829D01*
G01X3604Y11770D01*
G01X3610Y11711D01*
G01X3622Y11652D01*
G01X3639Y11596D01*
G01X3662Y11541D01*
G01X3691Y11489D01*
G01X3724Y11439D01*
G01X3762Y11394D01*
G01X3805Y11352D01*
G01X3851Y11315D01*
G01X3876Y11300D01*
G01X3851Y11284D01*
G01X3805Y11247D01*
G01X3762Y11205D01*
G01X3724Y11160D01*
G01X3691Y11110D01*
G01X3662Y11058D01*
G01X3639Y11003D01*
G01X3622Y10947D01*
G01X3610Y10888D01*
G01X3604Y10829D01*
G01X3604Y10770D01*
G01X3610Y10711D01*
G01X3622Y10652D01*
G01X3639Y10596D01*
G01X3662Y10541D01*
G01X3691Y10489D01*
G01X3724Y10439D01*
G01X3762Y10394D01*
G01X3805Y10352D01*
G01X3851Y10315D01*
G01X3876Y10300D01*
G01X3851Y10284D01*
G01X3805Y10247D01*
G01X3762Y10205D01*
G01X3724Y10160D01*
G01X3691Y10110D01*
G01X3662Y10058D01*
G01X3639Y10003D01*
G01X3622Y9947D01*
G01X3610Y9888D01*
G01X3604Y9829D01*
G01X3604Y9770D01*
G01X3610Y9711D01*
G01X3622Y9652D01*
G01X3639Y9596D01*
G01X3662Y9541D01*
G01X3691Y9489D01*
G01X3724Y9439D01*
G01X3762Y9394D01*
G01X3805Y9352D01*
G01X3851Y9315D01*
G01X3901Y9283D01*
G01X3954Y9256D01*
G01X4010Y9234D01*
G01X4067Y9218D01*
G01X4125Y9208D01*
G01X4185Y9203D01*
G01X4244Y9205D01*
G01X4303Y9212D01*
G01X4361Y9226D01*
G01X4417Y9244D01*
G01X4429Y9250D01*
G01X5472Y9250D01*
G01X6311Y8411D01*
G01X6317Y8404D01*
G01X6324Y8397D01*
G01X6331Y8391D01*
G01X6339Y8384D01*
G01X6346Y8378D01*
G01X6353Y8372D01*
G01X6361Y8366D01*
G01X6368Y8360D01*
G01X6376Y8355D01*
G01X6384Y8349D01*
G01X6392Y8344D01*
G01X6400Y8338D01*
G01X6408Y8333D01*
G01X6416Y8328D01*
G01X6425Y8323D01*
G01X6433Y8318D01*
G01X6441Y8314D01*
G01X6450Y8309D01*
G01X6458Y8305D01*
G01X6467Y8301D01*
G01X6476Y8297D01*
G01X6485Y8293D01*
G01X6493Y8290D01*
G01X6502Y8286D01*
G01X6511Y8283D01*
G01X6520Y8279D01*
G01X6530Y8276D01*
G01X6539Y8274D01*
G01X6548Y8271D01*
G01X6557Y8268D01*
G01X6566Y8266D01*
G01X6576Y8264D01*
G01X6585Y8262D01*
G01X6595Y8260D01*
G01X6604Y8258D01*
G01X6613Y8256D01*
G01X6623Y8255D01*
G01X6632Y8254D01*
G01X6642Y8253D01*
G01X6650Y8252D01*
G01X6650Y8232D01*
G01X6631Y8208D01*
G01X6611Y8179D01*
G01X6593Y8150D01*
G01X6577Y8119D01*
G01X6561Y8087D01*
G01X6548Y8055D01*
G01X6536Y8022D01*
G01X6526Y7989D01*
G01X6517Y7955D01*
G01X6510Y7921D01*
G01X6505Y7887D01*
G01X6501Y7852D01*
G01X6500Y7817D01*
G01X6500Y7782D01*
G01X6501Y7747D01*
G01X6505Y7712D01*
G01X6510Y7678D01*
G01X6517Y7644D01*
G01X6526Y7610D01*
G01X6536Y7577D01*
G01X6548Y7544D01*
G01X6561Y7512D01*
G01X6577Y7480D01*
G01X6593Y7450D01*
G01X6611Y7420D01*
G01X6631Y7391D01*
G01X6652Y7363D01*
G01X6675Y7336D01*
G01X6698Y7311D01*
G01X6723Y7286D01*
G01X6750Y7263D01*
G01X6777Y7242D01*
G01X6790Y7232D01*
G01X6762Y7205D01*
G01X6724Y7160D01*
G01X6691Y7110D01*
G01X6662Y7058D01*
G01X6639Y7003D01*
G01X6622Y6947D01*
G01X6610Y6888D01*
G01X6604Y6829D01*
G01X6604Y6770D01*
G01X6610Y6711D01*
G01X6622Y6652D01*
G01X6639Y6596D01*
G01X6662Y6541D01*
G01X6691Y6489D01*
G01X6724Y6439D01*
G01X6762Y6394D01*
G01X6805Y6352D01*
G01X6851Y6315D01*
G01X6876Y6300D01*
G01X6851Y6284D01*
G01X6805Y6247D01*
G01X6762Y6205D01*
G01X6724Y6160D01*
G01X6691Y6110D01*
G01X6662Y6058D01*
G01X6639Y6003D01*
G01X6622Y5947D01*
G01X6610Y5888D01*
G01X6604Y5829D01*
G01X6604Y5770D01*
G01X6610Y5711D01*
G01X6622Y5652D01*
G01X6639Y5596D01*
G01X6662Y5541D01*
G01X6691Y5489D01*
G01X6724Y5439D01*
G01X6762Y5394D01*
G01X6805Y5352D01*
G01X6851Y5315D01*
G01X6876Y5300D01*
G01X6851Y5284D01*
G01X6805Y5247D01*
G01X6762Y5205D01*
G01X6724Y5160D01*
G01X6691Y5110D01*
G01X6662Y5058D01*
G01X6639Y5003D01*
G01X6622Y4947D01*
G01X6610Y4888D01*
G01X6604Y4829D01*
G01X6604Y4770D01*
G01X6610Y4711D01*
G01X6622Y4652D01*
G01X6639Y4596D01*
G01X6662Y4541D01*
G01X6691Y4489D01*
G01X6724Y4439D01*
G01X6762Y4394D01*
G01X6805Y4352D01*
G01X6851Y4315D01*
G01X6876Y4300D01*
G01X6851Y4284D01*
G01X6805Y4247D01*
G01X6762Y4205D01*
G01X6724Y4160D01*
G01X6691Y4110D01*
G01X6662Y4058D01*
G01X6639Y4003D01*
G01X6622Y3947D01*
G01X6610Y3888D01*
G01X6604Y3829D01*
G01X6604Y3770D01*
G01X6610Y3711D01*
G01X6622Y3652D01*
G01X6639Y3596D01*
G01X6662Y3541D01*
G01X6691Y3489D01*
G01X6724Y3439D01*
G01X6762Y3394D01*
G01X6805Y3352D01*
G01X6851Y3315D01*
G01X6876Y3300D01*
G01X6851Y3284D01*
G01X6805Y3247D01*
G01X6762Y3205D01*
G01X6724Y3160D01*
G01X6691Y3110D01*
G01X6662Y3058D01*
G01X6639Y3003D01*
G01X6622Y2947D01*
G01X6610Y2888D01*
G01X6604Y2829D01*
G01X6604Y2770D01*
G01X6610Y2711D01*
G01X6622Y2652D01*
G01X6639Y2596D01*
G01X6662Y2541D01*
G01X6691Y2489D01*
G01X6724Y2439D01*
G01X6762Y2394D01*
G01X6805Y2352D01*
G01X6851Y2315D01*
G01X6901Y2283D01*
G01X6954Y2256D01*
G01X7010Y2234D01*
G01X7067Y2218D01*
G01X7125Y2208D01*
G01X7185Y2203D01*
G01X7244Y2205D01*
G01X7303Y2212D01*
G01X7361Y2226D01*
G01X7417Y2244D01*
G01X7472Y2269D01*
G01X7523Y2299D01*
G01X7571Y2333D01*
G01X7616Y2373D01*
G01X7656Y2416D01*
G01X7692Y2464D01*
G01X7723Y2514D01*
G01X7749Y2568D01*
G01X7769Y2624D01*
G01X7784Y2681D01*
G01X7793Y2740D01*
G01X7796Y2800D01*
G01X7793Y2859D01*
G01X7784Y2918D01*
G01X7769Y2975D01*
G01X7749Y3031D01*
G01X7723Y3085D01*
G01X7692Y3135D01*
G01X7656Y3183D01*
G01X7616Y3226D01*
G01X7571Y3266D01*
G01X7524Y3300D01*
G01X7571Y3333D01*
G01X7616Y3373D01*
G01X7656Y3416D01*
G01X7692Y3464D01*
G01X7723Y3514D01*
G01X7749Y3568D01*
G01X7769Y3624D01*
G01X7784Y3681D01*
G01X7793Y3740D01*
G01X7796Y3800D01*
G01X7793Y3859D01*
G01X7784Y3918D01*
G01X7769Y3975D01*
G01X7749Y4031D01*
G01X7723Y4085D01*
G01X7692Y4135D01*
G01X7656Y4183D01*
G01X7616Y4226D01*
G01X7571Y4266D01*
G01X7524Y4300D01*
G01X7571Y4333D01*
G01X7616Y4373D01*
G01X7656Y4416D01*
G01X7692Y4464D01*
G01X7723Y4514D01*
G01X7749Y4568D01*
G01X7769Y4624D01*
G01X7784Y4681D01*
G01X7793Y4740D01*
G01X7796Y4800D01*
G01X7793Y4859D01*
G01X7784Y4918D01*
G01X7769Y4975D01*
G01X7749Y5031D01*
G01X7723Y5085D01*
G01X7692Y5135D01*
G01X7656Y5183D01*
G01X7616Y5226D01*
G01X7571Y5266D01*
G01X7524Y5300D01*
G01X7571Y5333D01*
G01X7616Y5373D01*
G01X7656Y5416D01*
G01X7692Y5464D01*
G01X7723Y5514D01*
G01X7749Y5568D01*
G01X7769Y5624D01*
G01X7784Y5681D01*
G01X7793Y5740D01*
G01X7796Y5800D01*
G01X7793Y5859D01*
G01X7784Y5918D01*
G01X7769Y5975D01*
G01X7749Y6031D01*
G01X7723Y6085D01*
G01X7692Y6135D01*
G01X7656Y6183D01*
G01X7616Y6226D01*
G01X7571Y6266D01*
G01X7524Y6300D01*
G01X7571Y6333D01*
G01X7616Y6373D01*
G01X7656Y6416D01*
G01X7692Y6464D01*
G01X7723Y6514D01*
G01X7749Y6568D01*
G01X7769Y6624D01*
G01X7784Y6681D01*
G01X7793Y6740D01*
G01X7796Y6800D01*
G01X7793Y6859D01*
G01X7784Y6918D01*
G01X7769Y6975D01*
G01X7749Y7031D01*
G01X7723Y7085D01*
G01X7714Y7100D01*
G01X8445Y7100D01*
G01X9006Y5844D01*
G01X9006Y3600D01*
G01X8600Y3600D01*
G01X8585Y3599D01*
G01X8570Y3599D01*
G01X8555Y3598D01*
G01X8540Y3597D01*
G01X8525Y3595D01*
G01X8510Y3593D01*
G01X8495Y3590D01*
G01X8481Y3588D01*
G01X8466Y3584D01*
G01X8451Y3581D01*
G01X8437Y3577D01*
G01X8423Y3573D01*
G01X8408Y3568D01*
G01X8394Y3563D01*
G01X8380Y3558D01*
G01X8366Y3552D01*
G01X8353Y3546D01*
G01X8339Y3540D01*
G01X8326Y3533D01*
G01X8313Y3526D01*
G01X8300Y3519D01*
G01X8287Y3511D01*
G01X8274Y3504D01*
G01X8262Y3495D01*
G01X8249Y3487D01*
G01X8237Y3478D01*
G01X8225Y3469D01*
G01X8214Y3459D01*
G01X8202Y3449D01*
G01X8191Y3439D01*
G01X8181Y3429D01*
G01X8170Y3418D01*
G01X8160Y3408D01*
G01X8150Y3397D01*
G01X8140Y3385D01*
G01X8130Y3374D01*
G01X8121Y3362D01*
G01X8112Y3350D01*
G01X8104Y3337D01*
G01X8095Y3325D01*
G01X8088Y3312D01*
G01X8080Y3300D01*
G01X8073Y3286D01*
G01X8066Y3273D01*
G01X8059Y3260D01*
G01X8053Y3246D01*
G01X8047Y3233D01*
G01X8041Y3219D01*
G01X8036Y3205D01*
G01X8031Y3191D01*
G01X8026Y3176D01*
G01X8022Y3162D01*
G01X8018Y3148D01*
G01X8015Y3133D01*
G01X8011Y3118D01*
G01X8009Y3104D01*
G01X8006Y3089D01*
G01X8004Y3074D01*
G01X8002Y3059D01*
G01X8001Y3044D01*
G01X8000Y3029D01*
G01X8000Y3014D01*
G01X8000Y3000D01*
G01X8000Y2100D01*
G01X8000Y2089D01*
G01X8000Y2079D01*
G01X8000Y2069D01*
G01X8001Y2059D01*
G01X8002Y2049D01*
G01X8003Y2039D01*
G01X8004Y2029D01*
G01X8005Y2020D01*
G01X8006Y2010D01*
G01X8008Y2000D01*
G01X8010Y1990D01*
G01X8012Y1980D01*
G01X8014Y1970D01*
G01X8016Y1960D01*
G01X8018Y1951D01*
G01X8021Y1941D01*
G01X8024Y1931D01*
G01X8026Y1922D01*
G01X8029Y1912D01*
G01X8033Y1903D01*
G01X8036Y1893D01*
G01X8040Y1884D01*
G01X8043Y1875D01*
G01X8047Y1865D01*
G01X8051Y1856D01*
G01X8055Y1847D01*
G01X8060Y1838D01*
G01X8064Y1829D01*
G01X8069Y1820D01*
G01X8073Y1811D01*
G01X8078Y1802D01*
G01X8083Y1794D01*
G01X8088Y1785D01*
G01X8094Y1777D01*
G01X8099Y1768D01*
G01X8105Y1760D01*
G01X8111Y1752D01*
G01X8116Y1744D01*
G01X8122Y1736D01*
G01X8129Y1728D01*
G01X8135Y1720D01*
G01X8141Y1712D01*
G01X8148Y1705D01*
G01X8155Y1697D01*
G01X8161Y1690D01*
G01X8168Y1682D01*
G01X8175Y1675D01*
G01X9451Y400D01*
G37*

%LPC*%
G36*
G01X30412Y804D02*
G01X30482Y799D01*
G01X30552Y800D01*
G01X30621Y809D01*
G01X30689Y825D01*
G01X30756Y847D01*
G01X30819Y876D01*
G01X30880Y911D01*
G01X30937Y951D01*
G01X30989Y998D01*
G01X31036Y1049D01*
G01X31079Y1105D01*
G01X31115Y1164D01*
G01X31145Y1227D01*
G01X31169Y1293D01*
G01X31187Y1361D01*
G01X31197Y1430D01*
G01X31201Y1500D01*
G01X31197Y1569D01*
G01X31187Y1638D01*
G01X31169Y1706D01*
G01X31145Y1772D01*
G01X31115Y1835D01*
G01X31079Y1894D01*
G01X31036Y1950D01*
G01X30989Y2001D01*
G01X30937Y2048D01*
G01X30880Y2088D01*
G01X30819Y2123D01*
G01X30756Y2152D01*
G01X30689Y2174D01*
G01X30621Y2190D01*
G01X30552Y2199D01*
G01X30482Y2200D01*
G01X30412Y2195D01*
G01X30344Y2183D01*
G01X30276Y2164D01*
G01X30211Y2138D01*
G01X30149Y2107D01*
G01X30090Y2069D01*
G01X30036Y2025D01*
G01X29986Y1976D01*
G01X29941Y1923D01*
G01X29901Y1865D01*
G01X29868Y1804D01*
G01X29841Y1739D01*
G01X29820Y1672D01*
G01X29806Y1604D01*
G01X29799Y1534D01*
G01X29799Y1465D01*
G01X29806Y1395D01*
G01X29820Y1327D01*
G01X29841Y1260D01*
G01X29868Y1195D01*
G01X29901Y1134D01*
G01X29941Y1076D01*
G01X29986Y1023D01*
G01X30036Y974D01*
G01X30090Y930D01*
G01X30149Y892D01*
G01X30211Y861D01*
G01X30276Y835D01*
G01X30344Y816D01*
G01X30412Y804D01*
G37*
G36*
G01X1412Y804D02*
G01X1482Y799D01*
G01X1552Y800D01*
G01X1621Y809D01*
G01X1689Y825D01*
G01X1756Y847D01*
G01X1819Y876D01*
G01X1880Y911D01*
G01X1937Y951D01*
G01X1989Y998D01*
G01X2036Y1049D01*
G01X2079Y1105D01*
G01X2115Y1164D01*
G01X2145Y1227D01*
G01X2169Y1293D01*
G01X2187Y1361D01*
G01X2197Y1430D01*
G01X2201Y1500D01*
G01X2197Y1569D01*
G01X2187Y1638D01*
G01X2169Y1706D01*
G01X2145Y1772D01*
G01X2115Y1835D01*
G01X2079Y1894D01*
G01X2036Y1950D01*
G01X1989Y2001D01*
G01X1937Y2048D01*
G01X1880Y2088D01*
G01X1819Y2123D01*
G01X1756Y2152D01*
G01X1689Y2174D01*
G01X1621Y2190D01*
G01X1552Y2199D01*
G01X1482Y2200D01*
G01X1412Y2195D01*
G01X1344Y2183D01*
G01X1276Y2164D01*
G01X1211Y2138D01*
G01X1149Y2107D01*
G01X1090Y2069D01*
G01X1036Y2025D01*
G01X986Y1976D01*
G01X941Y1923D01*
G01X901Y1865D01*
G01X868Y1804D01*
G01X841Y1739D01*
G01X820Y1672D01*
G01X806Y1604D01*
G01X799Y1534D01*
G01X799Y1465D01*
G01X806Y1395D01*
G01X820Y1327D01*
G01X841Y1260D01*
G01X868Y1195D01*
G01X901Y1134D01*
G01X941Y1076D01*
G01X986Y1023D01*
G01X1036Y974D01*
G01X1090Y930D01*
G01X1149Y892D01*
G01X1211Y861D01*
G01X1276Y835D01*
G01X1344Y816D01*
G01X1412Y804D01*
G37*
G36*
G01X25755Y1474D02*
G01X25790Y1473D01*
G01X25825Y1473D01*
G01X25860Y1475D01*
G01X25894Y1479D01*
G01X25929Y1485D01*
G01X25963Y1492D01*
G01X25996Y1501D01*
G01X26030Y1512D01*
G01X26062Y1524D01*
G01X26094Y1538D01*
G01X26126Y1554D01*
G01X26156Y1571D01*
G01X26186Y1589D01*
G01X26214Y1609D01*
G01X26242Y1631D01*
G01X26268Y1653D01*
G01X26293Y1678D01*
G01X26357Y1742D01*
G01X26370Y1754D01*
G01X26382Y1767D01*
G01X26393Y1780D01*
G01X26404Y1793D01*
G01X26415Y1807D01*
G01X26426Y1821D01*
G01X26426Y1822D01*
G01X26435Y1831D01*
G01X26442Y1838D01*
G01X26452Y1849D01*
G01X26458Y1856D01*
G01X26467Y1868D01*
G01X26473Y1876D01*
G01X26482Y1888D01*
G01X26487Y1896D01*
G01X26495Y1909D01*
G01X26501Y1917D01*
G01X26508Y1930D01*
G01X26513Y1939D01*
G01X26520Y1952D01*
G01X26524Y1961D01*
G01X26530Y1975D01*
G01X26534Y1984D01*
G01X26539Y1997D01*
G01X26543Y2007D01*
G01X26547Y2021D01*
G01X26550Y2030D01*
G01X26554Y2045D01*
G01X26557Y2054D01*
G01X26560Y2069D01*
G01X26562Y2078D01*
G01X26565Y2093D01*
G01X26566Y2103D01*
G01X26568Y2118D01*
G01X26569Y2127D01*
G01X26570Y2142D01*
G01X26571Y2152D01*
G01X26571Y2167D01*
G01X26571Y2177D01*
G01X26571Y2192D01*
G01X26570Y2202D01*
G01X26569Y2217D01*
G01X26568Y2226D01*
G01X26566Y2241D01*
G01X26565Y2251D01*
G01X26562Y2266D01*
G01X26562Y2267D01*
G01X26561Y2280D01*
G01X26560Y2298D01*
G01X26558Y2315D01*
G01X26556Y2332D01*
G01X26553Y2350D01*
G01X26550Y2367D01*
G01X26547Y2384D01*
G01X26543Y2401D01*
G01X26539Y2418D01*
G01X26534Y2435D01*
G01X26529Y2451D01*
G01X26523Y2468D01*
G01X26517Y2484D01*
G01X26511Y2500D01*
G01X26504Y2517D01*
G01X26497Y2532D01*
G01X26489Y2548D01*
G01X26481Y2564D01*
G01X26473Y2579D01*
G01X26464Y2594D01*
G01X26455Y2609D01*
G01X26446Y2624D01*
G01X26436Y2638D01*
G01X26426Y2652D01*
G01X26415Y2666D01*
G01X26404Y2680D01*
G01X26393Y2693D01*
G01X26381Y2706D01*
G01X26370Y2719D01*
G01X26357Y2732D01*
G01X24543Y4545D01*
G01X24535Y4552D01*
G01X24528Y4560D01*
G01X24519Y4567D01*
G01X24511Y4575D01*
G01X24503Y4582D01*
G01X24495Y4589D01*
G01X24486Y4596D01*
G01X24477Y4603D01*
G01X24469Y4609D01*
G01X24460Y4616D01*
G01X24451Y4622D01*
G01X24442Y4629D01*
G01X24433Y4635D01*
G01X24423Y4641D01*
G01X24414Y4646D01*
G01X24405Y4652D01*
G01X24395Y4658D01*
G01X24386Y4663D01*
G01X24376Y4668D01*
G01X24366Y4673D01*
G01X24356Y4678D01*
G01X24346Y4683D01*
G01X24336Y4688D01*
G01X24326Y4692D01*
G01X24316Y4696D01*
G01X24306Y4700D01*
G01X24296Y4704D01*
G01X24286Y4708D01*
G01X24275Y4712D01*
G01X24265Y4715D01*
G01X24254Y4719D01*
G01X24244Y4722D01*
G01X24233Y4725D01*
G01X24223Y4728D01*
G01X24212Y4730D01*
G01X24201Y4733D01*
G01X24190Y4735D01*
G01X24180Y4737D01*
G01X24169Y4739D01*
G01X24158Y4741D01*
G01X24147Y4743D01*
G01X24136Y4744D01*
G01X24125Y4745D01*
G01X24114Y4746D01*
G01X24103Y4747D01*
G01X24092Y4748D01*
G01X24081Y4749D01*
G01X24070Y4749D01*
G01X24059Y4749D01*
G01X24048Y4750D01*
G01X23441Y4750D01*
G01X23444Y4757D01*
G01X23458Y4795D01*
G01X23470Y4833D01*
G01X23479Y4871D01*
G01X23487Y4911D01*
G01X23493Y4950D01*
G01X23497Y4990D01*
G01X23499Y5030D01*
G01X23499Y5069D01*
G01X23497Y5109D01*
G01X23493Y5149D01*
G01X23487Y5188D01*
G01X23479Y5228D01*
G01X23470Y5266D01*
G01X23458Y5304D01*
G01X23444Y5342D01*
G01X23429Y5379D01*
G01X23411Y5414D01*
G01X23392Y5450D01*
G01X23372Y5484D01*
G01X23349Y5516D01*
G01X23325Y5548D01*
G01X23300Y5579D01*
G01X23300Y7076D01*
G01X23301Y7076D01*
G01X23308Y7079D01*
G01X23315Y7082D01*
G01X23322Y7085D01*
G01X23328Y7089D01*
G01X23335Y7092D01*
G01X23342Y7096D01*
G01X23348Y7100D01*
G01X23354Y7103D01*
G01X23360Y7108D01*
G01X23367Y7112D01*
G01X23373Y7116D01*
G01X23379Y7121D01*
G01X23384Y7126D01*
G01X23390Y7131D01*
G01X23396Y7136D01*
G01X23401Y7141D01*
G01X23406Y7146D01*
G01X23411Y7151D01*
G01X23416Y7157D01*
G01X23421Y7163D01*
G01X23426Y7168D01*
G01X23431Y7174D01*
G01X23435Y7180D01*
G01X23439Y7186D01*
G01X23444Y7193D01*
G01X23447Y7199D01*
G01X23451Y7205D01*
G01X23455Y7212D01*
G01X23458Y7219D01*
G01X23462Y7225D01*
G01X23465Y7232D01*
G01X23468Y7239D01*
G01X23471Y7246D01*
G01X23473Y7253D01*
G01X23476Y7260D01*
G01X23478Y7267D01*
G01X23480Y7274D01*
G01X23482Y7281D01*
G01X23484Y7289D01*
G01X23486Y7296D01*
G01X23487Y7303D01*
G01X23488Y7311D01*
G01X23489Y7318D01*
G01X23490Y7326D01*
G01X23491Y7333D01*
G01X23491Y7341D01*
G01X23491Y7348D01*
G01X23492Y7355D01*
G01X23492Y8144D01*
G01X23491Y8151D01*
G01X23491Y8158D01*
G01X23491Y8166D01*
G01X23490Y8173D01*
G01X23489Y8181D01*
G01X23488Y8188D01*
G01X23487Y8196D01*
G01X23486Y8203D01*
G01X23484Y8210D01*
G01X23482Y8218D01*
G01X23480Y8225D01*
G01X23478Y8232D01*
G01X23476Y8239D01*
G01X23473Y8246D01*
G01X23471Y8253D01*
G01X23468Y8260D01*
G01X23465Y8267D01*
G01X23462Y8274D01*
G01X23458Y8280D01*
G01X23455Y8287D01*
G01X23451Y8294D01*
G01X23447Y8300D01*
G01X23444Y8306D01*
G01X23439Y8313D01*
G01X23435Y8319D01*
G01X23431Y8325D01*
G01X23426Y8331D01*
G01X23421Y8336D01*
G01X23416Y8342D01*
G01X23411Y8348D01*
G01X23406Y8353D01*
G01X23401Y8358D01*
G01X23396Y8363D01*
G01X23390Y8368D01*
G01X23384Y8373D01*
G01X23379Y8378D01*
G01X23373Y8383D01*
G01X23367Y8387D01*
G01X23360Y8391D01*
G01X23354Y8396D01*
G01X23348Y8399D01*
G01X23342Y8403D01*
G01X23335Y8407D01*
G01X23328Y8410D01*
G01X23322Y8414D01*
G01X23315Y8417D01*
G01X23308Y8420D01*
G01X23301Y8423D01*
G01X23294Y8425D01*
G01X23287Y8428D01*
G01X23280Y8430D01*
G01X23273Y8432D01*
G01X23266Y8434D01*
G01X23258Y8436D01*
G01X23251Y8438D01*
G01X23244Y8439D01*
G01X23236Y8440D01*
G01X23229Y8441D01*
G01X23221Y8442D01*
G01X23214Y8443D01*
G01X23206Y8443D01*
G01X23199Y8443D01*
G01X23192Y8444D01*
G01X22207Y8444D01*
G01X22200Y8443D01*
G01X22193Y8443D01*
G01X22185Y8443D01*
G01X22178Y8442D01*
G01X22170Y8441D01*
G01X22163Y8440D01*
G01X22155Y8439D01*
G01X22148Y8438D01*
G01X22141Y8436D01*
G01X22133Y8434D01*
G01X22126Y8432D01*
G01X22119Y8430D01*
G01X22112Y8428D01*
G01X22105Y8425D01*
G01X22098Y8423D01*
G01X22091Y8420D01*
G01X22084Y8417D01*
G01X22077Y8414D01*
G01X22071Y8410D01*
G01X22064Y8407D01*
G01X22057Y8403D01*
G01X22051Y8399D01*
G01X22045Y8396D01*
G01X22039Y8391D01*
G01X22032Y8387D01*
G01X22026Y8383D01*
G01X22020Y8378D01*
G01X22015Y8373D01*
G01X22009Y8368D01*
G01X22003Y8363D01*
G01X21998Y8358D01*
G01X21993Y8353D01*
G01X21988Y8348D01*
G01X21983Y8342D01*
G01X21978Y8336D01*
G01X21973Y8331D01*
G01X21968Y8325D01*
G01X21964Y8319D01*
G01X21960Y8313D01*
G01X21955Y8306D01*
G01X21952Y8300D01*
G01X21948Y8294D01*
G01X21944Y8287D01*
G01X21941Y8280D01*
G01X21937Y8274D01*
G01X21934Y8267D01*
G01X21931Y8260D01*
G01X21928Y8253D01*
G01X21926Y8246D01*
G01X21923Y8239D01*
G01X21921Y8232D01*
G01X21919Y8225D01*
G01X21917Y8218D01*
G01X21915Y8210D01*
G01X21913Y8203D01*
G01X21912Y8196D01*
G01X21911Y8188D01*
G01X21910Y8181D01*
G01X21909Y8173D01*
G01X21908Y8166D01*
G01X21908Y8158D01*
G01X21908Y8151D01*
G01X21907Y8144D01*
G01X21907Y7355D01*
G01X21908Y7348D01*
G01X21908Y7341D01*
G01X21908Y7333D01*
G01X21909Y7326D01*
G01X21910Y7318D01*
G01X21911Y7311D01*
G01X21912Y7303D01*
G01X21913Y7296D01*
G01X21915Y7289D01*
G01X21917Y7281D01*
G01X21919Y7274D01*
G01X21921Y7267D01*
G01X21923Y7260D01*
G01X21926Y7253D01*
G01X21928Y7246D01*
G01X21931Y7239D01*
G01X21934Y7232D01*
G01X21937Y7225D01*
G01X21941Y7219D01*
G01X21944Y7212D01*
G01X21948Y7205D01*
G01X21952Y7199D01*
G01X21955Y7193D01*
G01X21960Y7186D01*
G01X21964Y7180D01*
G01X21968Y7174D01*
G01X21973Y7168D01*
G01X21978Y7163D01*
G01X21983Y7157D01*
G01X21988Y7151D01*
G01X21993Y7146D01*
G01X21998Y7141D01*
G01X22003Y7136D01*
G01X22009Y7131D01*
G01X22015Y7126D01*
G01X22020Y7121D01*
G01X22026Y7116D01*
G01X22032Y7112D01*
G01X22039Y7108D01*
G01X22045Y7103D01*
G01X22051Y7100D01*
G01X22057Y7096D01*
G01X22064Y7092D01*
G01X22071Y7089D01*
G01X22077Y7085D01*
G01X22084Y7082D01*
G01X22091Y7079D01*
G01X22098Y7076D01*
G01X22100Y7076D01*
G01X22100Y5850D01*
G01X20868Y5850D01*
G01X20862Y5854D01*
G01X20852Y5861D01*
G01X20843Y5867D01*
G01X20833Y5874D01*
G01X20823Y5880D01*
G01X20814Y5886D01*
G01X20804Y5892D01*
G01X20794Y5898D01*
G01X20784Y5904D01*
G01X20773Y5910D01*
G01X20763Y5915D01*
G01X20753Y5920D01*
G01X20742Y5925D01*
G01X20732Y5930D01*
G01X20721Y5935D01*
G01X20710Y5940D01*
G01X20700Y5944D01*
G01X20689Y5949D01*
G01X20678Y5953D01*
G01X20667Y5957D01*
G01X20656Y5961D01*
G01X20645Y5965D01*
G01X20634Y5968D01*
G01X20623Y5972D01*
G01X20612Y5975D01*
G01X20601Y5978D01*
G01X20589Y5981D01*
G01X20578Y5984D01*
G01X20567Y5986D01*
G01X20555Y5989D01*
G01X20544Y5991D01*
G01X20533Y5993D01*
G01X20521Y5995D01*
G01X20510Y5997D01*
G01X20498Y5999D01*
G01X20486Y6000D01*
G01X20475Y6001D01*
G01X20463Y6002D01*
G01X20452Y6003D01*
G01X20440Y6004D01*
G01X20429Y6005D01*
G01X20417Y6005D01*
G01X20405Y6005D01*
G01X20394Y6005D01*
G01X18525Y6005D01*
G01X18300Y6231D01*
G01X18300Y10461D01*
G01X18308Y10455D01*
G01X18364Y10418D01*
G01X18424Y10388D01*
G01X18486Y10363D01*
G01X18550Y10345D01*
G01X18616Y10334D01*
G01X18683Y10329D01*
G01X18750Y10330D01*
G01X18816Y10339D01*
G01X18881Y10354D01*
G01X18945Y10375D01*
G01X19006Y10402D01*
G01X19064Y10436D01*
G01X19118Y10475D01*
G01X19168Y10519D01*
G01X19214Y10568D01*
G01X19254Y10622D01*
G01X19289Y10679D01*
G01X19318Y10739D01*
G01X19341Y10802D01*
G01X19357Y10867D01*
G01X19367Y10933D01*
G01X19371Y11000D01*
G01X19367Y11066D01*
G01X19357Y11132D01*
G01X19341Y11197D01*
G01X19318Y11260D01*
G01X19289Y11320D01*
G01X19254Y11377D01*
G01X19214Y11431D01*
G01X19177Y11471D01*
G01X19177Y12340D01*
G01X19203Y12375D01*
G01X19233Y12424D01*
G01X19258Y12476D01*
G01X19277Y12530D01*
G01X19292Y12585D01*
G01X19300Y12642D01*
G01X19303Y12700D01*
G01X19300Y12757D01*
G01X19292Y12814D01*
G01X19277Y12869D01*
G01X19258Y12923D01*
G01X19233Y12975D01*
G01X19203Y13024D01*
G01X19168Y13070D01*
G01X19129Y13112D01*
G01X19086Y13150D01*
G01X19039Y13184D01*
G01X18990Y13213D01*
G01X18937Y13236D01*
G01X18883Y13255D01*
G01X18827Y13267D01*
G01X18770Y13274D01*
G01X18712Y13276D01*
G01X18655Y13272D01*
G01X18598Y13262D01*
G01X18543Y13246D01*
G01X18489Y13225D01*
G01X18438Y13199D01*
G01X18390Y13168D01*
G01X18345Y13132D01*
G01X18304Y13092D01*
G01X18300Y13087D01*
G01X18300Y13468D01*
G01X19069Y14238D01*
G01X23798Y14238D01*
G01X23815Y14231D01*
G01X23897Y14208D01*
G01X23981Y14193D01*
G01X24065Y14187D01*
G01X24150Y14189D01*
G01X24234Y14199D01*
G01X24317Y14218D01*
G01X24397Y14245D01*
G01X24475Y14280D01*
G01X24548Y14323D01*
G01X24617Y14372D01*
G01X24681Y14428D01*
G01X24738Y14490D01*
G01X24790Y14558D01*
G01X24834Y14631D01*
G01X24871Y14707D01*
G01X24900Y14787D01*
G01X24921Y14869D01*
G01X24933Y14953D01*
G01X24938Y15038D01*
G01X24933Y15122D01*
G01X24921Y15206D01*
G01X24900Y15288D01*
G01X24871Y15368D01*
G01X24834Y15444D01*
G01X24790Y15517D01*
G01X24738Y15585D01*
G01X24681Y15647D01*
G01X24617Y15703D01*
G01X24548Y15752D01*
G01X24475Y15795D01*
G01X24449Y15806D01*
G01X24100Y16156D01*
G01X24100Y17112D01*
G01X24113Y17149D01*
G01X24134Y17231D01*
G01X24146Y17315D01*
G01X24151Y17400D01*
G01X24146Y17484D01*
G01X24134Y17568D01*
G01X24113Y17650D01*
G01X24084Y17730D01*
G01X24047Y17806D01*
G01X24003Y17879D01*
G01X23951Y17947D01*
G01X23894Y18009D01*
G01X23830Y18065D01*
G01X23761Y18114D01*
G01X23688Y18157D01*
G01X23610Y18192D01*
G01X23530Y18219D01*
G01X23447Y18238D01*
G01X23363Y18248D01*
G01X23278Y18250D01*
G01X23194Y18244D01*
G01X23110Y18229D01*
G01X23028Y18206D01*
G01X22950Y18175D01*
G01X22950Y18372D01*
G01X23127Y18550D01*
G01X23900Y18550D01*
G01X23909Y18550D01*
G01X23919Y18550D01*
G01X23928Y18550D01*
G01X23938Y18551D01*
G01X23947Y18552D01*
G01X23957Y18553D01*
G01X23967Y18554D01*
G01X23976Y18555D01*
G01X23986Y18556D01*
G01X23995Y18558D01*
G01X24004Y18560D01*
G01X24014Y18562D01*
G01X24023Y18564D01*
G01X24033Y18566D01*
G01X24042Y18568D01*
G01X24051Y18571D01*
G01X24060Y18574D01*
G01X24069Y18576D01*
G01X24079Y18579D01*
G01X24088Y18583D01*
G01X24097Y18586D01*
G01X24106Y18590D01*
G01X24114Y18593D01*
G01X24123Y18597D01*
G01X24132Y18601D01*
G01X24141Y18605D01*
G01X24149Y18609D01*
G01X24158Y18614D01*
G01X24166Y18618D01*
G01X24175Y18623D01*
G01X24183Y18628D01*
G01X24191Y18633D01*
G01X24199Y18638D01*
G01X24207Y18644D01*
G01X24215Y18649D01*
G01X24223Y18655D01*
G01X24231Y18660D01*
G01X24238Y18666D01*
G01X24246Y18672D01*
G01X24253Y18678D01*
G01X24260Y18684D01*
G01X24268Y18691D01*
G01X24275Y18697D01*
G01X24282Y18704D01*
G01X24288Y18711D01*
G01X24475Y18898D01*
G01X24482Y18904D01*
G01X24489Y18911D01*
G01X24495Y18918D01*
G01X24502Y18926D01*
G01X24508Y18933D01*
G01X24514Y18940D01*
G01X24520Y18948D01*
G01X24526Y18956D01*
G01X24531Y18963D01*
G01X24537Y18971D01*
G01X24542Y18979D01*
G01X24548Y18987D01*
G01X24553Y18995D01*
G01X24558Y19003D01*
G01X24563Y19012D01*
G01X24568Y19020D01*
G01X24572Y19028D01*
G01X24577Y19037D01*
G01X24581Y19045D01*
G01X24585Y19054D01*
G01X24589Y19063D01*
G01X24593Y19072D01*
G01X24596Y19080D01*
G01X24597Y19082D01*
G01X24617Y19096D01*
G01X24681Y19152D01*
G01X24738Y19214D01*
G01X24790Y19282D01*
G01X24834Y19355D01*
G01X24871Y19431D01*
G01X24900Y19511D01*
G01X24921Y19593D01*
G01X24933Y19677D01*
G01X24938Y19761D01*
G01X24933Y19846D01*
G01X24921Y19930D01*
G01X24900Y20012D01*
G01X24871Y20092D01*
G01X24834Y20168D01*
G01X24790Y20241D01*
G01X24738Y20309D01*
G01X24681Y20371D01*
G01X24617Y20427D01*
G01X24548Y20476D01*
G01X24475Y20519D01*
G01X24397Y20554D01*
G01X24317Y20581D01*
G01X24234Y20600D01*
G01X24150Y20610D01*
G01X24065Y20612D01*
G01X23981Y20606D01*
G01X23897Y20591D01*
G01X23815Y20568D01*
G01X23736Y20537D01*
G01X23661Y20498D01*
G01X23590Y20452D01*
G01X23523Y20400D01*
G01X23463Y20340D01*
G01X23408Y20275D01*
G01X23365Y20211D01*
G01X21629Y20211D01*
G01X21624Y20214D01*
G01X21609Y20219D01*
G01X21600Y20222D01*
G01X21586Y20226D01*
G01X21576Y20229D01*
G01X21562Y20233D01*
G01X21552Y20235D01*
G01X21537Y20238D01*
G01X21528Y20240D01*
G01X21513Y20242D01*
G01X21503Y20243D01*
G01X21489Y20245D01*
G01X21479Y20245D01*
G01X21464Y20246D01*
G01X21454Y20246D01*
G01X21447Y20246D01*
G01X21052Y20246D01*
G01X21045Y20246D01*
G01X21035Y20246D01*
G01X21020Y20245D01*
G01X21010Y20245D01*
G01X20996Y20243D01*
G01X20986Y20242D01*
G01X20971Y20240D01*
G01X20962Y20238D01*
G01X20947Y20235D01*
G01X20937Y20233D01*
G01X20923Y20229D01*
G01X20913Y20226D01*
G01X20899Y20222D01*
G01X20890Y20219D01*
G01X20875Y20214D01*
G01X20866Y20210D01*
G01X20853Y20204D01*
G01X20844Y20200D01*
G01X20830Y20194D01*
G01X20821Y20189D01*
G01X20808Y20182D01*
G01X20800Y20177D01*
G01X20787Y20170D01*
G01X20779Y20164D01*
G01X20766Y20156D01*
G01X20759Y20150D01*
G01X20747Y20141D01*
G01X20739Y20135D01*
G01X20727Y20125D01*
G01X20720Y20119D01*
G01X20709Y20109D01*
G01X20702Y20102D01*
G01X20692Y20091D01*
G01X20685Y20084D01*
G01X20675Y20073D01*
G01X20669Y20065D01*
G01X20660Y20053D01*
G01X20654Y20046D01*
G01X20645Y20033D01*
G01X20639Y20025D01*
G01X20631Y20013D01*
G01X20626Y20004D01*
G01X20618Y19991D01*
G01X20614Y19983D01*
G01X20607Y19969D01*
G01X20603Y19961D01*
G01X20597Y19947D01*
G01X20593Y19938D01*
G01X20587Y19924D01*
G01X20584Y19915D01*
G01X20579Y19901D01*
G01X20576Y19891D01*
G01X20572Y19877D01*
G01X20570Y19867D01*
G01X20567Y19853D01*
G01X20565Y19843D01*
G01X20562Y19828D01*
G01X20561Y19819D01*
G01X20559Y19804D01*
G01X20558Y19794D01*
G01X20557Y19779D01*
G01X20556Y19769D01*
G01X20556Y19754D01*
G01X20556Y19745D01*
G01X20556Y19730D01*
G01X20557Y19720D01*
G01X20558Y19705D01*
G01X20559Y19695D01*
G01X20561Y19680D01*
G01X20562Y19671D01*
G01X20565Y19656D01*
G01X20567Y19646D01*
G01X20570Y19632D01*
G01X20572Y19622D01*
G01X20576Y19608D01*
G01X20579Y19598D01*
G01X20584Y19584D01*
G01X20585Y19583D01*
G01X20577Y19580D01*
G01X20570Y19578D01*
G01X20562Y19575D01*
G01X20554Y19572D01*
G01X20546Y19569D01*
G01X20539Y19566D01*
G01X20531Y19562D01*
G01X20524Y19559D01*
G01X20516Y19555D01*
G01X20509Y19551D01*
G01X20502Y19547D01*
G01X20495Y19543D01*
G01X20488Y19539D01*
G01X20481Y19534D01*
G01X20474Y19530D01*
G01X20467Y19525D01*
G01X20460Y19520D01*
G01X20454Y19515D01*
G01X20447Y19510D01*
G01X20441Y19505D01*
G01X20435Y19499D01*
G01X20429Y19494D01*
G01X20423Y19488D01*
G01X20417Y19482D01*
G01X20217Y19282D01*
G01X20211Y19276D01*
G01X20205Y19270D01*
G01X20200Y19264D01*
G01X20194Y19258D01*
G01X20189Y19252D01*
G01X20184Y19245D01*
G01X20179Y19239D01*
G01X20174Y19232D01*
G01X20169Y19225D01*
G01X20165Y19218D01*
G01X20160Y19211D01*
G01X20156Y19204D01*
G01X20152Y19197D01*
G01X20148Y19190D01*
G01X20144Y19183D01*
G01X20140Y19175D01*
G01X20137Y19168D01*
G01X20133Y19160D01*
G01X20130Y19153D01*
G01X20127Y19145D01*
G01X20124Y19137D01*
G01X20121Y19129D01*
G01X20119Y19122D01*
G01X20116Y19114D01*
G01X20114Y19106D01*
G01X20112Y19098D01*
G01X20110Y19090D01*
G01X20108Y19082D01*
G01X20106Y19073D01*
G01X20105Y19065D01*
G01X20104Y19057D01*
G01X20103Y19049D01*
G01X20102Y19041D01*
G01X20101Y19033D01*
G01X20100Y19024D01*
G01X20100Y19016D01*
G01X20100Y19008D01*
G01X20100Y19000D01*
G01X20100Y18138D01*
G01X20056Y18103D01*
G01X20008Y18056D01*
G01X19965Y18005D01*
G01X19927Y17949D01*
G01X19895Y17891D01*
G01X19869Y17829D01*
G01X19849Y17765D01*
G01X19836Y17700D01*
G01X19829Y17633D01*
G01X19829Y17566D01*
G01X19836Y17499D01*
G01X19849Y17434D01*
G01X19869Y17370D01*
G01X19895Y17308D01*
G01X19927Y17250D01*
G01X19965Y17194D01*
G01X20008Y17143D01*
G01X20056Y17096D01*
G01X20108Y17055D01*
G01X20164Y17018D01*
G01X20224Y16988D01*
G01X20286Y16963D01*
G01X20350Y16945D01*
G01X20416Y16934D01*
G01X20483Y16929D01*
G01X20550Y16930D01*
G01X20616Y16939D01*
G01X20681Y16954D01*
G01X20745Y16975D01*
G01X20806Y17002D01*
G01X20864Y17036D01*
G01X20918Y17075D01*
G01X20968Y17119D01*
G01X21014Y17168D01*
G01X21054Y17222D01*
G01X21089Y17279D01*
G01X21118Y17339D01*
G01X21141Y17402D01*
G01X21157Y17467D01*
G01X21167Y17533D01*
G01X21171Y17600D01*
G01X21167Y17666D01*
G01X21157Y17732D01*
G01X21141Y17797D01*
G01X21118Y17860D01*
G01X21089Y17920D01*
G01X21054Y17977D01*
G01X21014Y18031D01*
G01X20968Y18080D01*
G01X20918Y18124D01*
G01X20900Y18137D01*
G01X20900Y18777D01*
G01X20913Y18773D01*
G01X20923Y18770D01*
G01X20937Y18766D01*
G01X20947Y18764D01*
G01X20962Y18761D01*
G01X20971Y18759D01*
G01X20986Y18757D01*
G01X20996Y18756D01*
G01X21010Y18754D01*
G01X21020Y18754D01*
G01X21035Y18753D01*
G01X21045Y18753D01*
G01X21052Y18753D01*
G01X21447Y18753D01*
G01X21454Y18753D01*
G01X21464Y18753D01*
G01X21479Y18754D01*
G01X21489Y18754D01*
G01X21503Y18756D01*
G01X21513Y18757D01*
G01X21528Y18759D01*
G01X21537Y18761D01*
G01X21552Y18764D01*
G01X21562Y18766D01*
G01X21576Y18770D01*
G01X21586Y18773D01*
G01X21600Y18777D01*
G01X21609Y18780D01*
G01X21624Y18785D01*
G01X21633Y18789D01*
G01X21646Y18795D01*
G01X21655Y18799D01*
G01X21669Y18805D01*
G01X21678Y18810D01*
G01X21691Y18817D01*
G01X21699Y18822D01*
G01X21712Y18829D01*
G01X21720Y18835D01*
G01X21733Y18843D01*
G01X21740Y18849D01*
G01X21752Y18858D01*
G01X21760Y18864D01*
G01X21772Y18874D01*
G01X21779Y18880D01*
G01X21790Y18890D01*
G01X21797Y18897D01*
G01X21807Y18908D01*
G01X21814Y18915D01*
G01X21824Y18926D01*
G01X21830Y18934D01*
G01X21839Y18946D01*
G01X21845Y18953D01*
G01X21854Y18966D01*
G01X21860Y18974D01*
G01X21868Y18986D01*
G01X21873Y18995D01*
G01X21880Y19008D01*
G01X21885Y19016D01*
G01X21892Y19030D01*
G01X21896Y19038D01*
G01X21902Y19052D01*
G01X21906Y19061D01*
G01X21912Y19075D01*
G01X21915Y19084D01*
G01X21920Y19098D01*
G01X21923Y19108D01*
G01X21927Y19122D01*
G01X21929Y19132D01*
G01X21932Y19146D01*
G01X21934Y19156D01*
G01X21937Y19171D01*
G01X21938Y19180D01*
G01X21940Y19195D01*
G01X21941Y19205D01*
G01X21942Y19220D01*
G01X21943Y19230D01*
G01X21943Y19245D01*
G01X21943Y19254D01*
G01X21943Y19269D01*
G01X21942Y19279D01*
G01X21941Y19294D01*
G01X21940Y19304D01*
G01X21939Y19311D01*
G01X22334Y19311D01*
G01X22011Y18988D01*
G01X22004Y18982D01*
G01X21997Y18975D01*
G01X21991Y18968D01*
G01X21984Y18960D01*
G01X21978Y18953D01*
G01X21972Y18946D01*
G01X21966Y18938D01*
G01X21960Y18930D01*
G01X21955Y18923D01*
G01X21949Y18915D01*
G01X21944Y18907D01*
G01X21938Y18899D01*
G01X21933Y18891D01*
G01X21928Y18883D01*
G01X21923Y18875D01*
G01X21918Y18866D01*
G01X21914Y18858D01*
G01X21909Y18849D01*
G01X21905Y18841D01*
G01X21901Y18832D01*
G01X21897Y18823D01*
G01X21893Y18814D01*
G01X21890Y18806D01*
G01X21886Y18797D01*
G01X21883Y18788D01*
G01X21879Y18779D01*
G01X21876Y18769D01*
G01X21874Y18760D01*
G01X21871Y18751D01*
G01X21868Y18742D01*
G01X21866Y18733D01*
G01X21864Y18723D01*
G01X21862Y18714D01*
G01X21860Y18704D01*
G01X21858Y18695D01*
G01X21856Y18686D01*
G01X21855Y18676D01*
G01X21854Y18667D01*
G01X21853Y18657D01*
G01X21852Y18647D01*
G01X21851Y18638D01*
G01X21850Y18628D01*
G01X21850Y18619D01*
G01X21850Y18609D01*
G01X21850Y18600D01*
G01X21850Y17827D01*
G01X21311Y17288D01*
G01X21304Y17282D01*
G01X21297Y17275D01*
G01X21291Y17268D01*
G01X21284Y17260D01*
G01X21278Y17253D01*
G01X21272Y17246D01*
G01X21266Y17238D01*
G01X21260Y17230D01*
G01X21255Y17223D01*
G01X21249Y17215D01*
G01X21244Y17207D01*
G01X21238Y17199D01*
G01X21233Y17191D01*
G01X21228Y17183D01*
G01X21223Y17175D01*
G01X21218Y17166D01*
G01X21214Y17158D01*
G01X21209Y17149D01*
G01X21205Y17141D01*
G01X21201Y17132D01*
G01X21197Y17123D01*
G01X21193Y17114D01*
G01X21190Y17106D01*
G01X21186Y17097D01*
G01X21183Y17088D01*
G01X21179Y17079D01*
G01X21176Y17069D01*
G01X21174Y17060D01*
G01X21171Y17051D01*
G01X21168Y17042D01*
G01X21166Y17033D01*
G01X21164Y17023D01*
G01X21162Y17014D01*
G01X21160Y17004D01*
G01X21158Y16995D01*
G01X21156Y16986D01*
G01X21155Y16976D01*
G01X21154Y16967D01*
G01X21153Y16957D01*
G01X21152Y16947D01*
G01X21151Y16938D01*
G01X21150Y16928D01*
G01X21150Y16919D01*
G01X21150Y16909D01*
G01X21150Y16900D01*
G01X21150Y16827D01*
G01X21121Y16816D01*
G01X21061Y16785D01*
G01X21005Y16748D01*
G01X20952Y16706D01*
G01X20904Y16659D01*
G01X20861Y16608D01*
G01X20823Y16552D01*
G01X20790Y16493D01*
G01X20764Y16431D01*
G01X20744Y16366D01*
G01X20731Y16300D01*
G01X20724Y16233D01*
G01X20724Y16166D01*
G01X20731Y16099D01*
G01X20744Y16033D01*
G01X20764Y15968D01*
G01X20790Y15906D01*
G01X20823Y15847D01*
G01X20829Y15838D01*
G01X19550Y15838D01*
G01X19550Y16000D01*
G01X19549Y16009D01*
G01X19549Y16019D01*
G01X19549Y16028D01*
G01X19548Y16038D01*
G01X19547Y16047D01*
G01X19546Y16057D01*
G01X19545Y16067D01*
G01X19544Y16076D01*
G01X19543Y16086D01*
G01X19541Y16095D01*
G01X19539Y16104D01*
G01X19537Y16114D01*
G01X19535Y16123D01*
G01X19533Y16133D01*
G01X19531Y16142D01*
G01X19528Y16151D01*
G01X19525Y16160D01*
G01X19523Y16169D01*
G01X19520Y16179D01*
G01X19516Y16188D01*
G01X19513Y16197D01*
G01X19509Y16206D01*
G01X19506Y16214D01*
G01X19502Y16223D01*
G01X19498Y16232D01*
G01X19494Y16241D01*
G01X19490Y16249D01*
G01X19485Y16258D01*
G01X19481Y16266D01*
G01X19476Y16275D01*
G01X19471Y16283D01*
G01X19466Y16291D01*
G01X19461Y16299D01*
G01X19455Y16307D01*
G01X19450Y16315D01*
G01X19444Y16323D01*
G01X19439Y16330D01*
G01X19433Y16338D01*
G01X19427Y16346D01*
G01X19421Y16353D01*
G01X19415Y16360D01*
G01X19408Y16368D01*
G01X19402Y16375D01*
G01X19395Y16382D01*
G01X19388Y16388D01*
G01X19188Y16588D01*
G01X19182Y16595D01*
G01X19175Y16602D01*
G01X19168Y16608D01*
G01X19160Y16615D01*
G01X19153Y16621D01*
G01X19146Y16627D01*
G01X19138Y16633D01*
G01X19131Y16639D01*
G01X19123Y16644D01*
G01X19115Y16650D01*
G01X19107Y16655D01*
G01X19099Y16661D01*
G01X19091Y16666D01*
G01X19083Y16671D01*
G01X19075Y16676D01*
G01X19066Y16681D01*
G01X19058Y16685D01*
G01X19049Y16690D01*
G01X19041Y16694D01*
G01X19032Y16698D01*
G01X19023Y16702D01*
G01X19014Y16706D01*
G01X19006Y16709D01*
G01X18997Y16713D01*
G01X18988Y16716D01*
G01X18979Y16720D01*
G01X18969Y16723D01*
G01X18960Y16725D01*
G01X18951Y16728D01*
G01X18942Y16731D01*
G01X18933Y16733D01*
G01X18923Y16735D01*
G01X18914Y16737D01*
G01X18904Y16739D01*
G01X18895Y16741D01*
G01X18886Y16743D01*
G01X18876Y16744D01*
G01X18867Y16745D01*
G01X18857Y16746D01*
G01X18847Y16747D01*
G01X18838Y16748D01*
G01X18828Y16749D01*
G01X18819Y16749D01*
G01X18809Y16749D01*
G01X18800Y16750D01*
G01X18791Y16750D01*
G01X18766Y16767D01*
G01X18708Y16801D01*
G01X18646Y16829D01*
G01X18583Y16850D01*
G01X18517Y16865D01*
G01X18450Y16874D01*
G01X18383Y16875D01*
G01X18315Y16870D01*
G01X18249Y16859D01*
G01X18184Y16840D01*
G01X18121Y16816D01*
G01X18061Y16785D01*
G01X18005Y16748D01*
G01X17952Y16706D01*
G01X17904Y16659D01*
G01X17861Y16608D01*
G01X17823Y16552D01*
G01X17790Y16493D01*
G01X17764Y16431D01*
G01X17744Y16366D01*
G01X17731Y16300D01*
G01X17724Y16233D01*
G01X17724Y16166D01*
G01X17731Y16099D01*
G01X17744Y16033D01*
G01X17764Y15968D01*
G01X17790Y15906D01*
G01X17823Y15847D01*
G01X17861Y15791D01*
G01X17904Y15740D01*
G01X17952Y15693D01*
G01X18005Y15651D01*
G01X18061Y15614D01*
G01X18121Y15583D01*
G01X18143Y15575D01*
G01X16934Y14365D01*
G01X16926Y14357D01*
G01X16918Y14348D01*
G01X16910Y14340D01*
G01X16902Y14331D01*
G01X16894Y14323D01*
G01X16887Y14314D01*
G01X16879Y14305D01*
G01X16872Y14296D01*
G01X16865Y14287D01*
G01X16858Y14277D01*
G01X16851Y14268D01*
G01X16844Y14258D01*
G01X16838Y14249D01*
G01X16831Y14239D01*
G01X16825Y14229D01*
G01X16819Y14219D01*
G01X16813Y14210D01*
G01X16807Y14200D01*
G01X16801Y14189D01*
G01X16795Y14179D01*
G01X16790Y14169D01*
G01X16785Y14159D01*
G01X16779Y14148D01*
G01X16774Y14138D01*
G01X16770Y14127D01*
G01X16765Y14116D01*
G01X16760Y14106D01*
G01X16756Y14095D01*
G01X16752Y14084D01*
G01X16748Y14073D01*
G01X16744Y14062D01*
G01X16740Y14051D01*
G01X16737Y14040D01*
G01X16733Y14029D01*
G01X16730Y14018D01*
G01X16727Y14007D01*
G01X16724Y13995D01*
G01X16721Y13984D01*
G01X16718Y13973D01*
G01X16716Y13961D01*
G01X16714Y13950D01*
G01X16712Y13938D01*
G01X16710Y13927D01*
G01X16708Y13915D01*
G01X16706Y13904D01*
G01X16705Y13892D01*
G01X16704Y13881D01*
G01X16703Y13869D01*
G01X16702Y13858D01*
G01X16701Y13846D01*
G01X16700Y13834D01*
G01X16700Y13823D01*
G01X16700Y13811D01*
G01X16700Y13800D01*
G01X16700Y5900D01*
G01X16700Y5888D01*
G01X16700Y5876D01*
G01X16700Y5865D01*
G01X16701Y5853D01*
G01X16702Y5841D01*
G01X16703Y5830D01*
G01X16704Y5818D01*
G01X16705Y5807D01*
G01X16706Y5795D01*
G01X16708Y5784D01*
G01X16710Y5772D01*
G01X16712Y5761D01*
G01X16714Y5749D01*
G01X16716Y5738D01*
G01X16718Y5726D01*
G01X16721Y5715D01*
G01X16724Y5704D01*
G01X16727Y5692D01*
G01X16730Y5681D01*
G01X16733Y5670D01*
G01X16737Y5659D01*
G01X16740Y5648D01*
G01X16744Y5637D01*
G01X16748Y5626D01*
G01X16752Y5615D01*
G01X16756Y5604D01*
G01X16760Y5593D01*
G01X16765Y5583D01*
G01X16770Y5572D01*
G01X16774Y5561D01*
G01X16779Y5551D01*
G01X16785Y5540D01*
G01X16790Y5530D01*
G01X16795Y5520D01*
G01X16801Y5510D01*
G01X16807Y5500D01*
G01X16813Y5489D01*
G01X16819Y5480D01*
G01X16825Y5470D01*
G01X16831Y5460D01*
G01X16838Y5450D01*
G01X16844Y5441D01*
G01X16851Y5431D01*
G01X16858Y5422D01*
G01X16865Y5412D01*
G01X16872Y5403D01*
G01X16879Y5394D01*
G01X16887Y5385D01*
G01X16894Y5376D01*
G01X16902Y5368D01*
G01X16910Y5359D01*
G01X16918Y5351D01*
G01X16926Y5342D01*
G01X16934Y5334D01*
G01X17628Y4640D01*
G01X17636Y4632D01*
G01X17645Y4623D01*
G01X17653Y4616D01*
G01X17662Y4608D01*
G01X17671Y4600D01*
G01X17679Y4593D01*
G01X17688Y4585D01*
G01X17697Y4578D01*
G01X17707Y4571D01*
G01X17716Y4564D01*
G01X17725Y4557D01*
G01X17735Y4550D01*
G01X17744Y4543D01*
G01X17754Y4537D01*
G01X17764Y4531D01*
G01X17774Y4524D01*
G01X17784Y4518D01*
G01X17794Y4513D01*
G01X17804Y4507D01*
G01X17814Y4501D01*
G01X17824Y4496D01*
G01X17835Y4490D01*
G01X17845Y4485D01*
G01X17856Y4480D01*
G01X17866Y4475D01*
G01X17877Y4471D01*
G01X17887Y4466D01*
G01X17898Y4462D01*
G01X17909Y4458D01*
G01X17920Y4454D01*
G01X17931Y4450D01*
G01X17942Y4446D01*
G01X17953Y4442D01*
G01X17964Y4439D01*
G01X17975Y4436D01*
G01X17987Y4433D01*
G01X17998Y4430D01*
G01X18009Y4427D01*
G01X18020Y4424D01*
G01X18032Y4422D01*
G01X18043Y4420D01*
G01X18055Y4418D01*
G01X18066Y4416D01*
G01X18078Y4414D01*
G01X18089Y4412D01*
G01X18101Y4411D01*
G01X18112Y4410D01*
G01X18124Y4408D01*
G01X18135Y4407D01*
G01X18147Y4407D01*
G01X18159Y4406D01*
G01X18170Y4406D01*
G01X18182Y4405D01*
G01X18194Y4405D01*
G01X19770Y4405D01*
G01X19793Y4378D01*
G01X19820Y4348D01*
G01X19848Y4320D01*
G01X19878Y4293D01*
G01X19909Y4268D01*
G01X19941Y4244D01*
G01X19974Y4222D01*
G01X20008Y4202D01*
G01X20043Y4183D01*
G01X20080Y4166D01*
G01X20117Y4151D01*
G01X20154Y4138D01*
G01X20192Y4127D01*
G01X20231Y4117D01*
G01X20270Y4110D01*
G01X20310Y4105D01*
G01X20350Y4101D01*
G01X20390Y4100D01*
G01X20429Y4100D01*
G01X20469Y4103D01*
G01X20509Y4107D01*
G01X20548Y4113D01*
G01X20587Y4122D01*
G01X20626Y4132D01*
G01X20664Y4144D01*
G01X20701Y4159D01*
G01X20738Y4174D01*
G01X20773Y4192D01*
G01X20808Y4212D01*
G01X20842Y4233D01*
G01X20866Y4250D01*
G01X21937Y4250D01*
G01X21936Y4245D01*
G01X21932Y4230D01*
G01X21927Y4211D01*
G01X21924Y4197D01*
G01X21920Y4177D01*
G01X21917Y4162D01*
G01X21914Y4143D01*
G01X21912Y4128D01*
G01X21910Y4109D01*
G01X21909Y4094D01*
G01X21908Y4074D01*
G01X21908Y4059D01*
G01X21908Y4040D01*
G01X21908Y4025D01*
G01X21909Y4005D01*
G01X21910Y3990D01*
G01X21912Y3971D01*
G01X21914Y3956D01*
G01X21917Y3937D01*
G01X21920Y3922D01*
G01X21924Y3902D01*
G01X21927Y3888D01*
G01X21932Y3869D01*
G01X21936Y3854D01*
G01X21942Y3836D01*
G01X21946Y3821D01*
G01X21953Y3803D01*
G01X21959Y3789D01*
G01X21966Y3771D01*
G01X21972Y3757D01*
G01X21981Y3740D01*
G01X21988Y3726D01*
G01X21997Y3709D01*
G01X22005Y3696D01*
G01X22015Y3680D01*
G01X22023Y3667D01*
G01X22034Y3651D01*
G01X22043Y3639D01*
G01X22055Y3623D01*
G01X22064Y3611D01*
G01X22077Y3596D01*
G01X22086Y3585D01*
G01X22100Y3571D01*
G01X22110Y3560D01*
G01X22124Y3546D01*
G01X22135Y3536D01*
G01X22150Y3523D01*
G01X22161Y3513D01*
G01X22177Y3501D01*
G01X22189Y3492D01*
G01X22205Y3481D01*
G01X22217Y3472D01*
G01X22233Y3462D01*
G01X22246Y3454D01*
G01X22263Y3444D01*
G01X22276Y3437D01*
G01X22294Y3428D01*
G01X22307Y3421D01*
G01X22325Y3413D01*
G01X22339Y3407D01*
G01X22357Y3400D01*
G01X22371Y3395D01*
G01X22390Y3389D01*
G01X22404Y3385D01*
G01X22423Y3379D01*
G01X22438Y3375D01*
G01X22457Y3371D01*
G01X22471Y3368D01*
G01X22491Y3365D01*
G01X22506Y3363D01*
G01X22525Y3360D01*
G01X22540Y3359D01*
G01X22559Y3357D01*
G01X22574Y3356D01*
G01X22594Y3356D01*
G01X22602Y3356D01*
G01X22607Y3356D01*
G01X22630Y3353D01*
G01X22665Y3350D01*
G01X22700Y3350D01*
G01X23759Y3350D01*
G01X25036Y2073D01*
G01X25037Y2069D01*
G01X25040Y2054D01*
G01X25043Y2045D01*
G01X25047Y2030D01*
G01X25050Y2021D01*
G01X25054Y2007D01*
G01X25058Y1997D01*
G01X25063Y1984D01*
G01X25067Y1975D01*
G01X25073Y1961D01*
G01X25077Y1952D01*
G01X25084Y1939D01*
G01X25089Y1930D01*
G01X25096Y1917D01*
G01X25102Y1909D01*
G01X25110Y1896D01*
G01X25115Y1888D01*
G01X25124Y1876D01*
G01X25130Y1868D01*
G01X25139Y1856D01*
G01X25146Y1849D01*
G01X25155Y1838D01*
G01X25162Y1831D01*
G01X25173Y1820D01*
G01X25180Y1813D01*
G01X25190Y1803D01*
G01X25198Y1796D01*
G01X25209Y1787D01*
G01X25217Y1781D01*
G01X25221Y1778D01*
G01X25225Y1771D01*
G01X25246Y1743D01*
G01X25268Y1716D01*
G01X25291Y1690D01*
G01X25316Y1665D01*
G01X25342Y1642D01*
G01X25369Y1620D01*
G01X25397Y1599D01*
G01X25426Y1580D01*
G01X25456Y1562D01*
G01X25487Y1546D01*
G01X25519Y1531D01*
G01X25551Y1518D01*
G01X25584Y1506D01*
G01X25617Y1496D01*
G01X25651Y1488D01*
G01X25686Y1482D01*
G01X25720Y1477D01*
G01X25755Y1474D01*
G37*
G36*
G01X4125Y2208D02*
G01X4185Y2203D01*
G01X4244Y2205D01*
G01X4303Y2212D01*
G01X4361Y2226D01*
G01X4417Y2244D01*
G01X4472Y2269D01*
G01X4523Y2299D01*
G01X4571Y2333D01*
G01X4616Y2373D01*
G01X4656Y2416D01*
G01X4692Y2464D01*
G01X4723Y2514D01*
G01X4749Y2568D01*
G01X4769Y2624D01*
G01X4784Y2681D01*
G01X4793Y2740D01*
G01X4796Y2800D01*
G01X4793Y2859D01*
G01X4784Y2918D01*
G01X4769Y2975D01*
G01X4749Y3031D01*
G01X4723Y3085D01*
G01X4692Y3135D01*
G01X4656Y3183D01*
G01X4616Y3226D01*
G01X4571Y3266D01*
G01X4524Y3300D01*
G01X4571Y3333D01*
G01X4616Y3373D01*
G01X4656Y3416D01*
G01X4692Y3464D01*
G01X4723Y3514D01*
G01X4749Y3568D01*
G01X4769Y3624D01*
G01X4784Y3681D01*
G01X4793Y3740D01*
G01X4796Y3800D01*
G01X4793Y3859D01*
G01X4784Y3918D01*
G01X4769Y3975D01*
G01X4749Y4031D01*
G01X4723Y4085D01*
G01X4692Y4135D01*
G01X4656Y4183D01*
G01X4616Y4226D01*
G01X4571Y4266D01*
G01X4524Y4300D01*
G01X4571Y4333D01*
G01X4616Y4373D01*
G01X4656Y4416D01*
G01X4692Y4464D01*
G01X4723Y4514D01*
G01X4749Y4568D01*
G01X4769Y4624D01*
G01X4784Y4681D01*
G01X4793Y4740D01*
G01X4796Y4800D01*
G01X4793Y4859D01*
G01X4784Y4918D01*
G01X4769Y4975D01*
G01X4749Y5031D01*
G01X4723Y5085D01*
G01X4692Y5135D01*
G01X4656Y5183D01*
G01X4616Y5226D01*
G01X4571Y5266D01*
G01X4524Y5300D01*
G01X4571Y5333D01*
G01X4616Y5373D01*
G01X4656Y5416D01*
G01X4692Y5464D01*
G01X4723Y5514D01*
G01X4749Y5568D01*
G01X4769Y5624D01*
G01X4784Y5681D01*
G01X4793Y5740D01*
G01X4796Y5800D01*
G01X4793Y5859D01*
G01X4784Y5918D01*
G01X4769Y5975D01*
G01X4749Y6031D01*
G01X4723Y6085D01*
G01X4692Y6135D01*
G01X4656Y6183D01*
G01X4616Y6226D01*
G01X4571Y6266D01*
G01X4524Y6300D01*
G01X4571Y6333D01*
G01X4616Y6373D01*
G01X4656Y6416D01*
G01X4692Y6464D01*
G01X4723Y6514D01*
G01X4749Y6568D01*
G01X4769Y6624D01*
G01X4784Y6681D01*
G01X4793Y6740D01*
G01X4796Y6800D01*
G01X4793Y6859D01*
G01X4784Y6918D01*
G01X4769Y6975D01*
G01X4749Y7031D01*
G01X4723Y7085D01*
G01X4692Y7135D01*
G01X4656Y7183D01*
G01X4616Y7226D01*
G01X4571Y7266D01*
G01X4524Y7300D01*
G01X4571Y7333D01*
G01X4616Y7373D01*
G01X4656Y7416D01*
G01X4692Y7464D01*
G01X4723Y7514D01*
G01X4749Y7568D01*
G01X4769Y7624D01*
G01X4784Y7681D01*
G01X4793Y7740D01*
G01X4796Y7800D01*
G01X4793Y7859D01*
G01X4784Y7918D01*
G01X4769Y7975D01*
G01X4749Y8031D01*
G01X4723Y8085D01*
G01X4692Y8135D01*
G01X4656Y8183D01*
G01X4616Y8226D01*
G01X4571Y8266D01*
G01X4523Y8300D01*
G01X4472Y8330D01*
G01X4417Y8355D01*
G01X4361Y8373D01*
G01X4303Y8387D01*
G01X4244Y8394D01*
G01X4185Y8396D01*
G01X4125Y8391D01*
G01X4067Y8381D01*
G01X4010Y8365D01*
G01X3954Y8343D01*
G01X3901Y8316D01*
G01X3851Y8284D01*
G01X3809Y8250D01*
G01X2546Y8250D01*
G01X2378Y8417D01*
G01X2378Y8438D01*
G01X2378Y8445D01*
G01X2378Y8452D01*
G01X2378Y8460D01*
G01X2377Y8467D01*
G01X2376Y8475D01*
G01X2375Y8482D01*
G01X2374Y8490D01*
G01X2373Y8497D01*
G01X2371Y8504D01*
G01X2369Y8512D01*
G01X2367Y8519D01*
G01X2365Y8526D01*
G01X2363Y8533D01*
G01X2360Y8540D01*
G01X2358Y8547D01*
G01X2355Y8554D01*
G01X2352Y8561D01*
G01X2350Y8566D01*
G01X2350Y10024D01*
G01X2352Y10028D01*
G01X2380Y10073D01*
G01X2403Y10121D01*
G01X2422Y10172D01*
G01X2435Y10223D01*
G01X2443Y10276D01*
G01X2446Y10330D01*
G01X2443Y10383D01*
G01X2435Y10436D01*
G01X2422Y10487D01*
G01X2403Y10538D01*
G01X2380Y10586D01*
G01X2352Y10631D01*
G01X2320Y10674D01*
G01X2284Y10713D01*
G01X2244Y10749D01*
G01X2200Y10780D01*
G01X2154Y10806D01*
G01X2105Y10828D01*
G01X2055Y10845D01*
G01X2003Y10857D01*
G01X1950Y10864D01*
G01X1896Y10865D01*
G01X1843Y10861D01*
G01X1790Y10852D01*
G01X1739Y10838D01*
G01X1689Y10818D01*
G01X1642Y10794D01*
G01X1597Y10765D01*
G01X1555Y10731D01*
G01X1517Y10694D01*
G01X1482Y10653D01*
G01X1452Y10609D01*
G01X1427Y10562D01*
G01X1406Y10513D01*
G01X1390Y10462D01*
G01X1379Y10409D01*
G01X1374Y10356D01*
G01X1374Y10303D01*
G01X1379Y10250D01*
G01X1390Y10197D01*
G01X1406Y10146D01*
G01X1427Y10097D01*
G01X1450Y10055D01*
G01X1450Y8564D01*
G01X1448Y8561D01*
G01X1445Y8554D01*
G01X1442Y8547D01*
G01X1440Y8540D01*
G01X1437Y8533D01*
G01X1435Y8526D01*
G01X1433Y8519D01*
G01X1431Y8512D01*
G01X1429Y8504D01*
G01X1427Y8497D01*
G01X1426Y8490D01*
G01X1425Y8482D01*
G01X1424Y8475D01*
G01X1423Y8467D01*
G01X1422Y8460D01*
G01X1422Y8452D01*
G01X1422Y8445D01*
G01X1421Y8438D01*
G01X1421Y8080D01*
G01X1422Y8073D01*
G01X1422Y8066D01*
G01X1422Y8058D01*
G01X1423Y8051D01*
G01X1424Y8043D01*
G01X1425Y8036D01*
G01X1426Y8028D01*
G01X1427Y8021D01*
G01X1429Y8014D01*
G01X1431Y8006D01*
G01X1433Y7999D01*
G01X1435Y7992D01*
G01X1437Y7985D01*
G01X1440Y7978D01*
G01X1442Y7971D01*
G01X1445Y7964D01*
G01X1448Y7957D01*
G01X1451Y7950D01*
G01X1455Y7944D01*
G01X1458Y7937D01*
G01X1462Y7930D01*
G01X1466Y7924D01*
G01X1469Y7918D01*
G01X1474Y7911D01*
G01X1478Y7905D01*
G01X1482Y7899D01*
G01X1487Y7893D01*
G01X1492Y7888D01*
G01X1497Y7882D01*
G01X1502Y7876D01*
G01X1507Y7871D01*
G01X1512Y7866D01*
G01X1517Y7861D01*
G01X1523Y7856D01*
G01X1529Y7851D01*
G01X1534Y7846D01*
G01X1540Y7841D01*
G01X1546Y7837D01*
G01X1553Y7833D01*
G01X1559Y7828D01*
G01X1565Y7825D01*
G01X1571Y7821D01*
G01X1578Y7817D01*
G01X1585Y7814D01*
G01X1591Y7810D01*
G01X1598Y7807D01*
G01X1605Y7804D01*
G01X1612Y7801D01*
G01X1619Y7799D01*
G01X1626Y7796D01*
G01X1633Y7794D01*
G01X1640Y7792D01*
G01X1647Y7790D01*
G01X1655Y7788D01*
G01X1662Y7786D01*
G01X1669Y7785D01*
G01X1677Y7784D01*
G01X1684Y7783D01*
G01X1692Y7782D01*
G01X1699Y7781D01*
G01X1707Y7781D01*
G01X1714Y7781D01*
G01X1721Y7780D01*
G01X1742Y7780D01*
G01X2041Y7481D01*
G01X2048Y7475D01*
G01X2054Y7469D01*
G01X2061Y7463D01*
G01X2067Y7457D01*
G01X2074Y7452D01*
G01X2081Y7446D01*
G01X2088Y7441D01*
G01X2095Y7435D01*
G01X2102Y7430D01*
G01X2109Y7425D01*
G01X2117Y7421D01*
G01X2124Y7416D01*
G01X2132Y7411D01*
G01X2140Y7407D01*
G01X2147Y7403D01*
G01X2155Y7399D01*
G01X2163Y7395D01*
G01X2171Y7391D01*
G01X2179Y7387D01*
G01X2187Y7384D01*
G01X2195Y7380D01*
G01X2204Y7377D01*
G01X2212Y7374D01*
G01X2220Y7372D01*
G01X2229Y7369D01*
G01X2237Y7366D01*
G01X2246Y7364D01*
G01X2254Y7362D01*
G01X2263Y7360D01*
G01X2272Y7358D01*
G01X2280Y7357D01*
G01X2289Y7355D01*
G01X2298Y7354D01*
G01X2307Y7353D01*
G01X2315Y7352D01*
G01X2324Y7351D01*
G01X2333Y7350D01*
G01X2342Y7350D01*
G01X2351Y7350D01*
G01X2359Y7350D01*
G01X3809Y7350D01*
G01X3851Y7315D01*
G01X3876Y7300D01*
G01X3851Y7284D01*
G01X3809Y7250D01*
G01X2359Y7250D01*
G01X2351Y7249D01*
G01X2342Y7249D01*
G01X2333Y7249D01*
G01X2324Y7248D01*
G01X2315Y7247D01*
G01X2307Y7246D01*
G01X2298Y7245D01*
G01X2289Y7244D01*
G01X2280Y7242D01*
G01X2272Y7241D01*
G01X2263Y7239D01*
G01X2254Y7237D01*
G01X2246Y7235D01*
G01X2237Y7233D01*
G01X2229Y7230D01*
G01X2220Y7227D01*
G01X2212Y7225D01*
G01X2204Y7222D01*
G01X2195Y7219D01*
G01X2187Y7215D01*
G01X2179Y7212D01*
G01X2171Y7208D01*
G01X2163Y7204D01*
G01X2155Y7200D01*
G01X2147Y7196D01*
G01X2140Y7192D01*
G01X2132Y7188D01*
G01X2124Y7183D01*
G01X2117Y7178D01*
G01X2109Y7174D01*
G01X2102Y7169D01*
G01X2095Y7164D01*
G01X2088Y7158D01*
G01X2081Y7153D01*
G01X2074Y7147D01*
G01X2067Y7142D01*
G01X2061Y7136D01*
G01X2054Y7130D01*
G01X2048Y7124D01*
G01X2041Y7118D01*
G01X1741Y6817D01*
G01X1721Y6817D01*
G01X1714Y6817D01*
G01X1707Y6817D01*
G01X1699Y6817D01*
G01X1692Y6816D01*
G01X1684Y6815D01*
G01X1677Y6814D01*
G01X1669Y6813D01*
G01X1662Y6812D01*
G01X1655Y6810D01*
G01X1647Y6808D01*
G01X1640Y6806D01*
G01X1633Y6804D01*
G01X1626Y6802D01*
G01X1619Y6799D01*
G01X1612Y6797D01*
G01X1605Y6794D01*
G01X1598Y6791D01*
G01X1591Y6788D01*
G01X1585Y6784D01*
G01X1578Y6781D01*
G01X1571Y6777D01*
G01X1565Y6773D01*
G01X1559Y6770D01*
G01X1553Y6765D01*
G01X1546Y6761D01*
G01X1540Y6757D01*
G01X1534Y6752D01*
G01X1529Y6747D01*
G01X1523Y6742D01*
G01X1517Y6737D01*
G01X1512Y6732D01*
G01X1507Y6727D01*
G01X1502Y6722D01*
G01X1497Y6716D01*
G01X1492Y6710D01*
G01X1487Y6705D01*
G01X1482Y6699D01*
G01X1478Y6693D01*
G01X1474Y6686D01*
G01X1469Y6680D01*
G01X1466Y6674D01*
G01X1462Y6667D01*
G01X1458Y6661D01*
G01X1455Y6654D01*
G01X1451Y6648D01*
G01X1448Y6641D01*
G01X1445Y6634D01*
G01X1442Y6627D01*
G01X1440Y6620D01*
G01X1437Y6613D01*
G01X1435Y6606D01*
G01X1433Y6599D01*
G01X1431Y6592D01*
G01X1429Y6584D01*
G01X1427Y6577D01*
G01X1426Y6570D01*
G01X1425Y6562D01*
G01X1424Y6555D01*
G01X1423Y6547D01*
G01X1422Y6540D01*
G01X1422Y6532D01*
G01X1422Y6525D01*
G01X1421Y6517D01*
G01X1421Y6161D01*
G01X1422Y6153D01*
G01X1422Y6146D01*
G01X1422Y6138D01*
G01X1423Y6131D01*
G01X1424Y6123D01*
G01X1425Y6116D01*
G01X1426Y6108D01*
G01X1427Y6101D01*
G01X1429Y6094D01*
G01X1431Y6086D01*
G01X1433Y6079D01*
G01X1435Y6072D01*
G01X1437Y6065D01*
G01X1440Y6058D01*
G01X1442Y6051D01*
G01X1445Y6044D01*
G01X1448Y6037D01*
G01X1450Y6034D01*
G01X1450Y4404D01*
G01X1427Y4362D01*
G01X1406Y4313D01*
G01X1390Y4262D01*
G01X1379Y4209D01*
G01X1374Y4156D01*
G01X1374Y4103D01*
G01X1379Y4050D01*
G01X1390Y3997D01*
G01X1406Y3946D01*
G01X1427Y3897D01*
G01X1452Y3850D01*
G01X1482Y3806D01*
G01X1517Y3765D01*
G01X1555Y3728D01*
G01X1597Y3694D01*
G01X1642Y3665D01*
G01X1689Y3641D01*
G01X1739Y3621D01*
G01X1790Y3607D01*
G01X1843Y3598D01*
G01X1896Y3594D01*
G01X1950Y3595D01*
G01X2003Y3602D01*
G01X2055Y3614D01*
G01X2105Y3631D01*
G01X2154Y3653D01*
G01X2200Y3679D01*
G01X2244Y3710D01*
G01X2284Y3746D01*
G01X2320Y3785D01*
G01X2352Y3828D01*
G01X2380Y3873D01*
G01X2403Y3921D01*
G01X2422Y3972D01*
G01X2435Y4023D01*
G01X2443Y4076D01*
G01X2446Y4130D01*
G01X2443Y4183D01*
G01X2435Y4236D01*
G01X2422Y4287D01*
G01X2403Y4338D01*
G01X2380Y4386D01*
G01X2352Y4431D01*
G01X2350Y4435D01*
G01X2350Y6032D01*
G01X2352Y6037D01*
G01X2355Y6044D01*
G01X2358Y6051D01*
G01X2360Y6058D01*
G01X2363Y6065D01*
G01X2365Y6072D01*
G01X2367Y6079D01*
G01X2369Y6086D01*
G01X2371Y6094D01*
G01X2373Y6101D01*
G01X2374Y6108D01*
G01X2375Y6116D01*
G01X2376Y6123D01*
G01X2377Y6131D01*
G01X2378Y6138D01*
G01X2378Y6146D01*
G01X2378Y6153D01*
G01X2378Y6161D01*
G01X2378Y6182D01*
G01X2546Y6350D01*
G01X3809Y6350D01*
G01X3851Y6315D01*
G01X3876Y6300D01*
G01X3851Y6284D01*
G01X3805Y6247D01*
G01X3762Y6205D01*
G01X3724Y6160D01*
G01X3691Y6110D01*
G01X3662Y6058D01*
G01X3639Y6003D01*
G01X3622Y5947D01*
G01X3610Y5888D01*
G01X3604Y5829D01*
G01X3604Y5770D01*
G01X3610Y5711D01*
G01X3622Y5652D01*
G01X3639Y5596D01*
G01X3662Y5541D01*
G01X3691Y5489D01*
G01X3724Y5439D01*
G01X3762Y5394D01*
G01X3805Y5352D01*
G01X3851Y5315D01*
G01X3876Y5300D01*
G01X3851Y5284D01*
G01X3805Y5247D01*
G01X3762Y5205D01*
G01X3724Y5160D01*
G01X3691Y5110D01*
G01X3662Y5058D01*
G01X3639Y5003D01*
G01X3622Y4947D01*
G01X3610Y4888D01*
G01X3604Y4829D01*
G01X3604Y4770D01*
G01X3610Y4711D01*
G01X3622Y4652D01*
G01X3639Y4596D01*
G01X3662Y4541D01*
G01X3691Y4489D01*
G01X3724Y4439D01*
G01X3762Y4394D01*
G01X3805Y4352D01*
G01X3851Y4315D01*
G01X3876Y4300D01*
G01X3851Y4284D01*
G01X3805Y4247D01*
G01X3762Y4205D01*
G01X3724Y4160D01*
G01X3691Y4110D01*
G01X3662Y4058D01*
G01X3639Y4003D01*
G01X3622Y3947D01*
G01X3610Y3888D01*
G01X3604Y3829D01*
G01X3604Y3770D01*
G01X3610Y3711D01*
G01X3622Y3652D01*
G01X3639Y3596D01*
G01X3662Y3541D01*
G01X3691Y3489D01*
G01X3724Y3439D01*
G01X3762Y3394D01*
G01X3805Y3352D01*
G01X3851Y3315D01*
G01X3876Y3300D01*
G01X3851Y3284D01*
G01X3805Y3247D01*
G01X3762Y3205D01*
G01X3724Y3160D01*
G01X3691Y3110D01*
G01X3662Y3058D01*
G01X3639Y3003D01*
G01X3622Y2947D01*
G01X3610Y2888D01*
G01X3604Y2829D01*
G01X3604Y2770D01*
G01X3610Y2711D01*
G01X3622Y2652D01*
G01X3639Y2596D01*
G01X3662Y2541D01*
G01X3691Y2489D01*
G01X3724Y2439D01*
G01X3762Y2394D01*
G01X3805Y2352D01*
G01X3851Y2315D01*
G01X3901Y2283D01*
G01X3954Y2256D01*
G01X4010Y2234D01*
G01X4067Y2218D01*
G01X4125Y2208D01*
G37*
G36*
G01X24001Y12127D02*
G01X24058Y12123D01*
G01X24116Y12125D01*
G01X24173Y12132D01*
G01X24229Y12144D01*
G01X24283Y12163D01*
G01X24336Y12186D01*
G01X24385Y12215D01*
G01X24432Y12249D01*
G01X24433Y12250D01*
G01X26200Y12250D01*
G01X26211Y12250D01*
G01X26222Y12250D01*
G01X26233Y12251D01*
G01X26244Y12252D01*
G01X26255Y12253D01*
G01X26267Y12255D01*
G01X26278Y12256D01*
G01X26289Y12258D01*
G01X26300Y12261D01*
G01X26311Y12263D01*
G01X26321Y12266D01*
G01X26332Y12269D01*
G01X26343Y12273D01*
G01X26353Y12277D01*
G01X26364Y12281D01*
G01X26374Y12285D01*
G01X26385Y12289D01*
G01X26395Y12294D01*
G01X26405Y12299D01*
G01X26415Y12304D01*
G01X26425Y12310D01*
G01X26434Y12316D01*
G01X26444Y12321D01*
G01X26453Y12328D01*
G01X26462Y12334D01*
G01X26471Y12341D01*
G01X26480Y12348D01*
G01X26489Y12355D01*
G01X26497Y12362D01*
G01X26506Y12370D01*
G01X26514Y12377D01*
G01X26522Y12385D01*
G01X26529Y12393D01*
G01X26537Y12402D01*
G01X26544Y12410D01*
G01X26551Y12419D01*
G01X26558Y12428D01*
G01X26565Y12437D01*
G01X26571Y12446D01*
G01X26578Y12455D01*
G01X26583Y12465D01*
G01X26589Y12475D01*
G01X26595Y12484D01*
G01X26600Y12494D01*
G01X26605Y12504D01*
G01X26610Y12514D01*
G01X26614Y12525D01*
G01X26618Y12535D01*
G01X26622Y12546D01*
G01X26626Y12556D01*
G01X26630Y12567D01*
G01X26633Y12578D01*
G01X26636Y12588D01*
G01X26638Y12599D01*
G01X26641Y12610D01*
G01X26643Y12621D01*
G01X26644Y12632D01*
G01X26646Y12644D01*
G01X26647Y12655D01*
G01X26648Y12666D01*
G01X26649Y12677D01*
G01X26649Y12688D01*
G01X26650Y12700D01*
G01X26650Y13103D01*
G01X26668Y13119D01*
G01X26714Y13168D01*
G01X26754Y13222D01*
G01X26789Y13279D01*
G01X26818Y13339D01*
G01X26841Y13402D01*
G01X26857Y13467D01*
G01X26867Y13533D01*
G01X26871Y13600D01*
G01X26867Y13666D01*
G01X26857Y13732D01*
G01X26841Y13797D01*
G01X26818Y13860D01*
G01X26789Y13920D01*
G01X26754Y13977D01*
G01X26714Y14031D01*
G01X26668Y14080D01*
G01X26618Y14124D01*
G01X26564Y14163D01*
G01X26506Y14197D01*
G01X26445Y14224D01*
G01X26381Y14245D01*
G01X26316Y14260D01*
G01X26250Y14269D01*
G01X26183Y14270D01*
G01X26116Y14265D01*
G01X26050Y14254D01*
G01X25986Y14236D01*
G01X25924Y14211D01*
G01X25864Y14181D01*
G01X25808Y14144D01*
G01X25756Y14103D01*
G01X25708Y14056D01*
G01X25665Y14005D01*
G01X25627Y13949D01*
G01X25595Y13891D01*
G01X25569Y13829D01*
G01X25549Y13765D01*
G01X25536Y13700D01*
G01X25529Y13633D01*
G01X25529Y13566D01*
G01X25536Y13499D01*
G01X25549Y13434D01*
G01X25569Y13370D01*
G01X25595Y13308D01*
G01X25627Y13250D01*
G01X25665Y13194D01*
G01X25702Y13150D01*
G01X24433Y13150D01*
G01X24432Y13150D01*
G01X24385Y13184D01*
G01X24336Y13213D01*
G01X24283Y13236D01*
G01X24229Y13255D01*
G01X24173Y13267D01*
G01X24116Y13274D01*
G01X24058Y13276D01*
G01X24001Y13272D01*
G01X23944Y13262D01*
G01X23889Y13246D01*
G01X23835Y13225D01*
G01X23784Y13199D01*
G01X23736Y13168D01*
G01X23691Y13132D01*
G01X23650Y13092D01*
G01X23613Y13048D01*
G01X23580Y13000D01*
G01X23553Y12950D01*
G01X23531Y12897D01*
G01X23514Y12842D01*
G01X23502Y12785D01*
G01X23497Y12728D01*
G01X23497Y12671D01*
G01X23502Y12614D01*
G01X23514Y12557D01*
G01X23531Y12502D01*
G01X23553Y12449D01*
G01X23580Y12399D01*
G01X23613Y12351D01*
G01X23650Y12307D01*
G01X23691Y12267D01*
G01X23736Y12231D01*
G01X23784Y12200D01*
G01X23835Y12174D01*
G01X23889Y12153D01*
G01X23944Y12137D01*
G01X24001Y12127D01*
G37*
G36*
G01X28785Y14193D02*
G01X28869Y14187D01*
G01X28954Y14189D01*
G01X29038Y14199D01*
G01X29121Y14218D01*
G01X29201Y14245D01*
G01X29279Y14280D01*
G01X29352Y14323D01*
G01X29421Y14372D01*
G01X29485Y14428D01*
G01X29542Y14490D01*
G01X29594Y14558D01*
G01X29638Y14631D01*
G01X29675Y14707D01*
G01X29704Y14787D01*
G01X29725Y14869D01*
G01X29737Y14953D01*
G01X29742Y15038D01*
G01X29737Y15122D01*
G01X29725Y15206D01*
G01X29704Y15288D01*
G01X29675Y15368D01*
G01X29638Y15444D01*
G01X29594Y15517D01*
G01X29542Y15585D01*
G01X29485Y15647D01*
G01X29421Y15703D01*
G01X29352Y15752D01*
G01X29279Y15795D01*
G01X29201Y15830D01*
G01X29121Y15857D01*
G01X29038Y15876D01*
G01X28954Y15886D01*
G01X28869Y15888D01*
G01X28785Y15882D01*
G01X28701Y15867D01*
G01X28619Y15844D01*
G01X28540Y15813D01*
G01X28465Y15774D01*
G01X28394Y15728D01*
G01X28327Y15676D01*
G01X28267Y15616D01*
G01X28212Y15551D01*
G01X28164Y15481D01*
G01X28124Y15407D01*
G01X28091Y15329D01*
G01X28066Y15247D01*
G01X28049Y15164D01*
G01X28041Y15080D01*
G01X28041Y14995D01*
G01X28049Y14911D01*
G01X28066Y14828D01*
G01X28091Y14746D01*
G01X28124Y14668D01*
G01X28164Y14594D01*
G01X28212Y14524D01*
G01X28267Y14459D01*
G01X28327Y14399D01*
G01X28394Y14347D01*
G01X28465Y14301D01*
G01X28540Y14262D01*
G01X28619Y14231D01*
G01X28701Y14208D01*
G01X28785Y14193D01*
G37*
G36*
G01X30412Y20804D02*
G01X30482Y20799D01*
G01X30552Y20800D01*
G01X30621Y20809D01*
G01X30689Y20825D01*
G01X30756Y20847D01*
G01X30819Y20876D01*
G01X30880Y20911D01*
G01X30937Y20951D01*
G01X30989Y20998D01*
G01X31036Y21049D01*
G01X31079Y21105D01*
G01X31115Y21164D01*
G01X31145Y21227D01*
G01X31169Y21293D01*
G01X31187Y21361D01*
G01X31197Y21430D01*
G01X31201Y21500D01*
G01X31197Y21569D01*
G01X31187Y21638D01*
G01X31169Y21706D01*
G01X31145Y21772D01*
G01X31115Y21835D01*
G01X31079Y21894D01*
G01X31036Y21950D01*
G01X30989Y22001D01*
G01X30937Y22048D01*
G01X30880Y22088D01*
G01X30819Y22123D01*
G01X30756Y22152D01*
G01X30689Y22174D01*
G01X30621Y22190D01*
G01X30552Y22199D01*
G01X30482Y22200D01*
G01X30412Y22195D01*
G01X30344Y22183D01*
G01X30276Y22164D01*
G01X30211Y22138D01*
G01X30149Y22107D01*
G01X30090Y22069D01*
G01X30036Y22025D01*
G01X29986Y21976D01*
G01X29941Y21923D01*
G01X29901Y21865D01*
G01X29868Y21804D01*
G01X29841Y21739D01*
G01X29820Y21672D01*
G01X29806Y21604D01*
G01X29799Y21534D01*
G01X29799Y21465D01*
G01X29806Y21395D01*
G01X29820Y21327D01*
G01X29841Y21260D01*
G01X29868Y21195D01*
G01X29901Y21134D01*
G01X29941Y21076D01*
G01X29986Y21023D01*
G01X30036Y20974D01*
G01X30090Y20930D01*
G01X30149Y20892D01*
G01X30211Y20861D01*
G01X30276Y20835D01*
G01X30344Y20816D01*
G01X30412Y20804D01*
G37*
G36*
G01X1412Y20804D02*
G01X1482Y20799D01*
G01X1552Y20800D01*
G01X1621Y20809D01*
G01X1689Y20825D01*
G01X1756Y20847D01*
G01X1819Y20876D01*
G01X1880Y20911D01*
G01X1937Y20951D01*
G01X1989Y20998D01*
G01X2036Y21049D01*
G01X2079Y21105D01*
G01X2115Y21164D01*
G01X2145Y21227D01*
G01X2169Y21293D01*
G01X2187Y21361D01*
G01X2197Y21430D01*
G01X2201Y21500D01*
G01X2197Y21569D01*
G01X2187Y21638D01*
G01X2169Y21706D01*
G01X2145Y21772D01*
G01X2115Y21835D01*
G01X2079Y21894D01*
G01X2036Y21950D01*
G01X1989Y22001D01*
G01X1937Y22048D01*
G01X1880Y22088D01*
G01X1819Y22123D01*
G01X1756Y22152D01*
G01X1689Y22174D01*
G01X1621Y22190D01*
G01X1552Y22199D01*
G01X1482Y22200D01*
G01X1412Y22195D01*
G01X1344Y22183D01*
G01X1276Y22164D01*
G01X1211Y22138D01*
G01X1149Y22107D01*
G01X1090Y22069D01*
G01X1036Y22025D01*
G01X986Y21976D01*
G01X941Y21923D01*
G01X901Y21865D01*
G01X868Y21804D01*
G01X841Y21739D01*
G01X820Y21672D01*
G01X806Y21604D01*
G01X799Y21534D01*
G01X799Y21465D01*
G01X806Y21395D01*
G01X820Y21327D01*
G01X841Y21260D01*
G01X868Y21195D01*
G01X901Y21134D01*
G01X941Y21076D01*
G01X986Y21023D01*
G01X1036Y20974D01*
G01X1090Y20930D01*
G01X1149Y20892D01*
G01X1211Y20861D01*
G01X1276Y20835D01*
G01X1344Y20816D01*
G01X1412Y20804D01*
G37*

%LPD*%
G36*
G01X20099Y7900D02*
G01X19500Y7900D01*
G01X19500Y8800D01*
G01X20200Y9700D01*
G01X20200Y10700D01*
G01X20500Y11200D01*
G01X23600Y11200D01*
G01X23600Y9400D01*
G01X21500Y9400D01*
G01X20102Y7903D01*
G01X20099Y7900D01*
G37*

%LPC*%

%LPD*%
G54D27*
G01X18727Y12700D02*
G01X18727Y11026D01*
G01X18700Y11000D01*
G01X4200Y7800D02*
G01X2359Y7800D01*
G01X1900Y8259D01*
G01X4200Y6800D02*
G01X2359Y6800D01*
G01X1900Y6340D01*
G01X1900Y8259D02*
G01X1900Y10319D01*
G01X1909Y10330D01*
G01X1900Y6340D02*
G01X1900Y4140D01*
G01X1909Y4130D01*
G54D28*
G01X7200Y8800D02*
G01X7200Y7800D01*
G01X7200Y8800D02*
G01X6700Y8800D01*
G01X5700Y9800D01*
G01X4200Y9800D01*
G54D27*
G01X4200Y17500D02*
G01X4200Y15800D01*
G01X21700Y11000D02*
G01X21700Y10200D01*
G01X22000Y9900D01*
G01X22550Y9900D01*
G01X22700Y9750D01*
G01X20400Y8500D02*
G01X20400Y8900D01*
G01X21700Y10200D01*
G01X24072Y12700D02*
G01X26200Y12700D01*
G01X26200Y13600D01*
G01X24086Y19761D02*
G01X21261Y19761D01*
G01X21250Y19750D01*
G54D29*
G01X24086Y15038D02*
G01X18738Y15038D01*
G01X17700Y14000D01*
G01X17700Y5700D01*
G01X18500Y4900D01*
G01X20400Y4900D01*
G54D27*
G01X2000Y12800D02*
G01X3200Y12800D01*
G01X4200Y13800D01*
G01X2000Y13800D02*
G01X3200Y13800D01*
G01X4200Y14800D01*
G01X2000Y14800D02*
G01X3200Y14800D01*
G01X4200Y15800D01*
G54D30*
G01X9706Y3000D02*
G01X9706Y5994D01*
G01X8900Y7800D01*
G01X7200Y7800D01*
G54D29*
G01X4200Y13800D02*
G01X4700Y13800D01*
G01X5200Y14300D01*
G01X5200Y20088D01*
G01X5089Y20200D01*
G01X3300Y20200D01*
G54D27*
G01X7300Y20200D02*
G01X7300Y21700D01*
G54D29*
G01X20500Y17600D02*
G01X20500Y19000D01*
G01X20700Y19200D01*
G01X21200Y19200D01*
G01X21250Y19250D01*
G54D28*
G01X18400Y16200D02*
G01X18800Y16200D01*
G01X19000Y16000D01*
G01X19000Y15076D01*
G01X19037Y15037D01*
G01X24087Y19762D02*
G01X24087Y19287D01*
G01X23900Y19100D01*
G01X22900Y19100D01*
G01X22400Y18600D01*
G01X22400Y17600D01*
G01X21700Y16900D01*
G01X21700Y16500D01*
G01X21400Y16200D01*
G01X7200Y17500D02*
G01X7100Y17500D01*
G01X5700Y16100D01*
G01X5700Y9800D01*
G54D27*
G01X7300Y21700D02*
G01X13100Y21700D01*
G01X13700Y21100D01*
G01X13700Y19500D01*
G54D28*
G01X10700Y19500D02*
G01X10700Y19700D01*
G01X10200Y20200D01*
G01X9300Y20200D01*
G01X8800Y19700D01*
G01X8800Y18500D01*
G01X7800Y17500D01*
G01X7200Y17500D01*
G54D27*
G01X9700Y19500D02*
G01X9700Y17900D01*
G01X9700Y16800D01*
G01X8800Y15900D01*
G01X7300Y15900D01*
G01X7200Y15800D01*
G54D29*
G01X4200Y14800D02*
G01X4800Y14800D01*
G01X4800Y18700D01*
G01X4000Y19500D01*
G01X3100Y19500D01*
G01X2400Y19850D01*
G01X2400Y20500D01*
G01X2800Y20900D01*
G01X6300Y20900D01*
G01X6400Y20800D01*
G01X6400Y18800D01*
G01X6600Y18600D01*
G01X7900Y18600D01*
G01X8100Y18800D01*
G01X8100Y20200D01*
G01X9100Y21200D01*
G01X12000Y21200D01*
G01X12500Y20700D01*
G01X12585Y20528D01*
G01X12700Y19500D01*
G54D27*
G01X7200Y10800D02*
G01X7200Y10700D01*
G01X10400Y10700D01*
G01X11200Y11500D01*
G01X11200Y14000D01*
G01X12400Y15200D01*
G01X15300Y15200D01*
G01X16500Y16400D01*
G01X16500Y17600D01*
G01X13600Y3373D02*
G01X13327Y3373D01*
G01X12100Y4600D01*
G01X12100Y10600D01*
G01X11900Y10800D01*
G01X11900Y13000D01*
G01X12300Y13400D01*
G01X12500Y13400D01*
G01X13200Y14100D01*
G01X13200Y12900D02*
G01X13200Y5100D01*
G01X13600Y4700D01*
G01X14372Y4700D01*
G01X15700Y3373D01*
G01X7200Y13800D02*
G01X8900Y13800D01*
G01X9200Y14100D01*
G01X7200Y12800D02*
G01X9100Y12800D01*
G01X9200Y12900D01*
G54D31*
G01X25801Y10826D02*
G01X26500Y10826D01*
G01X26500Y6600D01*
G01X28000Y5100D01*
G01X29368Y5100D01*
G01X29400Y5067D01*
G54D32*
G01X29500Y8400D02*
G01X30700Y8400D01*
G01X31100Y8800D01*
G01X31100Y18500D01*
G01X31000Y18600D01*
G01X30052Y18600D01*
G01X28890Y19761D01*
G01X30200Y13600D02*
G01X30902Y13600D01*
G01X31100Y13797D01*
G54D21*
G01X22700Y9750D02*
G01X23850Y9750D01*
G01X25000Y8600D01*
G01X25000Y5900D01*
G01X27900Y3000D01*
G01X27900Y1600D01*
G01X26900Y600D01*
G01X10100Y600D01*
G01X8600Y2100D01*
G01X8600Y3000D01*
G01X9706Y3000D01*
G54D28*
G01X4200Y17500D02*
G01X2700Y17500D01*
G01X2600Y17600D01*
G01X2600Y18565D01*
G01X2585Y18579D01*
G01X2700Y17500D02*
G01X2700Y16134D01*
G01X2585Y16020D01*
G54D27*
G01X14700Y19500D02*
G01X14700Y16300D01*
G01X14300Y15900D01*
G01X11800Y15900D01*
G01X10500Y14600D01*
G01X10500Y12000D01*
G01X10200Y11700D01*
G01X7300Y11700D01*
G01X7200Y11800D01*
G54D30*
G01X22700Y4050D02*
G01X24048Y4050D01*
G01X25863Y2236D01*
G01X25798Y2173D01*
G54D33*
G01X23300Y17400D02*
G01X23300Y15825D01*
G01X24086Y15038D01*
G01X24086Y15038D02*
G01X18738Y15038D01*
G01X17500Y13800D01*
G01X17500Y5900D01*
G01X18194Y5205D01*
G01X20394Y5205D01*
G01X20550Y5050D01*
G01X22700Y5050D02*
G01X20550Y5050D01*
G01X20400Y4900D01*
G54D21*
G01X22700Y7750D02*
G01X22700Y5050D01*
G54D11*
G01X7200Y2800D03*
G01X7200Y3800D03*
G01X7200Y4800D03*
G01X7200Y5800D03*
G01X7200Y6800D03*
G01X7200Y7800D03*
G01X7200Y8800D03*
G01X7200Y9800D03*
G01X7200Y10800D03*
G01X7200Y11800D03*
G01X7200Y12800D03*
G01X7200Y13800D03*
G01X7200Y14800D03*
G01X7200Y15800D03*
G01X4200Y2800D03*
G01X4200Y3800D03*
G01X4200Y4800D03*
G01X4200Y5800D03*
G01X4200Y6800D03*
G01X4200Y7800D03*
G01X4200Y8800D03*
G01X4200Y9800D03*
G01X4200Y10800D03*
G01X4200Y11800D03*
G01X4200Y12800D03*
G01X4200Y13800D03*
G01X4200Y14800D03*
G54D12*
G01X4200Y15800D03*
G54D13*
G01X22700Y7750D03*
G01X22700Y3050D03*
G54D14*
G01X4200Y17500D03*
G01X7200Y17500D03*
G54D15*
G01X1900Y8259D03*
G01X1900Y6339D03*
G54D16*
G01X2909Y10330D03*
G01X1909Y10330D03*
G01X2909Y4130D03*
G01X1909Y4130D03*
G54D14*
G01X16500Y17600D03*
G01X20500Y17600D03*
G54D17*
G01X21400Y16200D03*
G01X18400Y16200D03*
G54D18*
G01X28890Y15038D03*
G01X23300Y17400D03*
G01X24086Y19761D03*
G01X24086Y15038D03*
G01X28890Y19761D03*
G54D19*
G01X29500Y8400D03*
G01X29500Y10367D03*
G54D20*
G01X18727Y12700D03*
G01X19672Y12700D03*
G54D14*
G01X18700Y11000D03*
G01X21700Y11000D03*
G54D21*
G01X20400Y4900D03*
G01X20400Y3900D03*
G01X20400Y8500D03*
G01X20400Y7500D03*
G54D20*
G01X24072Y12700D03*
G01X23127Y12700D03*
G54D14*
G01X26200Y13600D03*
G01X30200Y13600D03*
G54D22*
G01X9706Y3000D03*
G01X10493Y3000D03*
G54D23*
G01X9700Y19500D03*
G01X10700Y19500D03*
G01X11700Y19500D03*
G01X12700Y19500D03*
G01X13700Y19500D03*
G54D24*
G01X14700Y19500D03*
G54D14*
G01X7300Y20200D03*
G01X3300Y20200D03*
G54D21*
G01X2000Y14800D03*
G01X2000Y13800D03*
G01X2000Y12800D03*
G01X2000Y11800D03*
G54D19*
G01X29400Y3100D03*
G01X29400Y5067D03*
G54D20*
G01X13600Y3373D03*
G01X13600Y2426D03*
G01X15700Y3373D03*
G01X15700Y2426D03*
G54D14*
G01X9200Y14100D03*
G01X13200Y14100D03*
G01X9200Y12900D03*
G01X13200Y12900D03*
G01X3300Y21700D03*
G01X7300Y21700D03*
G54D25*
G01X814Y18579D03*
G01X814Y16020D03*
G01X2585Y16020D03*
G01X2585Y18579D03*
G01X22602Y9750D02*
G01X22797Y9750D01*
G01X22602Y8750D02*
G01X22797Y8750D01*
G01X22602Y5050D02*
G01X22797Y5050D01*
G01X22602Y4050D02*
G01X22797Y4050D01*
G54D26*
G01X21052Y18750D02*
G01X21447Y18750D01*
G01X21052Y19250D02*
G01X21447Y19250D01*
G01X21052Y19750D02*
G01X21447Y19750D01*
G01X25525Y10827D02*
G01X26076Y10827D01*
G01X25523Y2172D02*
G01X26074Y2172D01*
M00*
M02*
