G04 ---------------------------- Layer name :TOP SILK LAYER*
G04 EasyEDA v5.8.20, Sat, 24 Nov 2018 05:51:01 GMT*
G04 e67e47d913b1430cad7dbea7a16fc948*
G04 Gerber Generator version 0.2*
G04 Scale: 100 percent, Rotated: No, Reflected: No *
G04 Dimensions in inches *
G04 leading zeros omitted , absolute positions ,2 integer and 4 decimal *
%FSLAX24Y24*%
%MOIN*%
G90*
G70D02*

%ADD10C,0.010000*%
%ADD34C,0.007900*%
%ADD35C,0.009000*%
%ADD36C,0.011811*%
%ADD37C,0.008000*%
%ADD38C,0.007992*%
%ADD39C,0.023622*%
%ADD40C,0.015748*%
%ADD41C,0.007000*%

%LPD*%
G54D10*
G01X5950Y16267D02*
G01X6743Y16267D01*
G01X6743Y2330D01*
G01X4656Y2330D01*
G01X4656Y16267D01*
G01X5450Y16267D01*
G01X21597Y6663D02*
G01X21597Y10836D01*
G01X23486Y10836D01*
G01X23486Y6663D01*
G01X21597Y6663D01*
G01X21793Y10836D02*
G01X21793Y6663D01*
G01X21597Y1963D02*
G01X21597Y6136D01*
G01X23486Y6136D01*
G01X23486Y1963D01*
G01X21597Y1963D01*
G01X21793Y6136D02*
G01X21793Y1963D01*
G01X4700Y17800D02*
G01X6700Y17800D01*
G01X6700Y17800D02*
G01X6700Y17500D01*
G01X6700Y17500D02*
G01X6700Y17200D01*
G01X6700Y17200D02*
G01X4700Y17200D01*
G01X4700Y17200D02*
G01X4700Y17500D01*
G01X4700Y17500D02*
G01X4700Y17800D01*
G01X6700Y17500D02*
G01X6800Y17500D01*
G01X4700Y17500D02*
G01X4600Y17500D01*
G01X1400Y5950D02*
G01X1400Y8650D01*
G01X1100Y5950D02*
G01X1100Y8650D01*
G01X2400Y8650D02*
G01X2400Y5950D01*
G01X2700Y8650D02*
G01X2700Y5950D01*
G01X2150Y7400D02*
G01X1650Y7400D01*
G01X1650Y7400D02*
G01X1650Y7200D01*
G01X1650Y7200D02*
G01X2150Y7200D01*
G01X2150Y7200D02*
G01X2150Y7400D01*
G01X2150Y7550D02*
G01X1900Y7550D01*
G01X1900Y7550D02*
G01X1650Y7550D01*
G01X1900Y7550D02*
G01X1900Y7700D01*
G01X2150Y7050D02*
G01X1900Y7050D01*
G01X1900Y7050D02*
G01X1650Y7050D01*
G01X1900Y7050D02*
G01X1900Y6900D01*
G54D34*
G01X1411Y9830D02*
G01X3411Y9830D01*
G01X3411Y10830D01*
G01X1411Y10830D01*
G01X1411Y9830D01*
G01X1411Y3630D02*
G01X3411Y3630D01*
G01X3411Y4630D01*
G01X1411Y4630D01*
G01X1411Y3630D01*
G54D10*
G01X21840Y20028D02*
G01X21840Y18469D01*
G01X17260Y17130D02*
G01X17260Y18069D01*
G01X17260Y18069D02*
G01X19739Y18069D01*
G01X19739Y18069D02*
G01X19739Y17130D01*
G01X19739Y17130D02*
G01X17260Y17130D01*
G54D35*
G01X20900Y15750D02*
G01X18900Y15750D01*
G01X18900Y16650D01*
G01X20900Y16650D01*
G01X20900Y15750D01*
G01X19150Y15750D02*
G01X19150Y16650D01*
G54D36*
G01X28918Y15076D02*
G01X28918Y17277D01*
G01X29867Y20521D02*
G01X29871Y14369D01*
G01X22457Y14369D01*
G01X22464Y20513D01*
G01X25118Y18001D02*
G01X25842Y18001D01*
G01X25842Y16952D01*
G01X24442Y16952D01*
G01X24442Y18001D01*
G01X25193Y18001D01*
G01X25193Y19801D01*
G01X24114Y19801D01*
G01X24114Y15076D02*
G01X25118Y15076D01*
G01X25118Y16952D01*
G01X23327Y17438D02*
G01X23327Y18867D01*
G01X26727Y18867D01*
G01X26727Y17686D01*
G01X26736Y17677D01*
G01X28318Y17677D01*
G01X28518Y17677D01*
G01X28531Y17667D02*
G01X29143Y17261D01*
G54D10*
G01X22464Y20534D02*
G01X22460Y20534D01*
G01X29878Y20534D01*
G01X29878Y20534D01*
G01X28890Y19802D02*
G01X28890Y18194D01*
G01X28000Y7400D02*
G01X31000Y7400D01*
G01X31000Y7400D01*
G01X28000Y7400D02*
G01X28000Y11400D01*
G01X31000Y7400D02*
G01X31000Y11400D01*
G01X28000Y11400D02*
G01X31000Y11400D01*
G01X19200Y11300D02*
G01X21200Y11300D01*
G01X21200Y11300D02*
G01X21200Y11000D01*
G01X21200Y11000D02*
G01X21200Y10700D01*
G01X21200Y10700D02*
G01X19200Y10700D01*
G01X19200Y10700D02*
G01X19200Y11000D01*
G01X19200Y11000D02*
G01X19200Y11300D01*
G01X21200Y11000D02*
G01X21300Y11000D01*
G01X19200Y11000D02*
G01X19100Y11000D01*
G01X20400Y5600D02*
G01X20400Y5200D01*
G01X20600Y5400D02*
G01X20200Y5400D01*
G01X20400Y9200D02*
G01X20400Y8800D01*
G01X20600Y9000D02*
G01X20200Y9000D01*
G01X26960Y13130D02*
G01X26960Y14069D01*
G01X26960Y14069D02*
G01X29439Y14069D01*
G01X29439Y14069D02*
G01X29439Y13130D01*
G01X29439Y13130D02*
G01X26960Y13130D01*
G01X9502Y3590D02*
G01X9902Y3590D01*
G01X9706Y3786D02*
G01X9706Y3386D01*
G54D37*
G01X14450Y19000D02*
G01X15200Y19000D01*
G01X15200Y20000D01*
G01X9200Y20000D01*
G01X9200Y19000D01*
G54D38*
G01X9200Y19000D02*
G01X14450Y19000D01*
G54D10*
G01X6539Y20669D02*
G01X6539Y19730D01*
G01X6539Y19730D02*
G01X4060Y19730D01*
G01X4060Y19730D02*
G01X4060Y20669D01*
G01X4060Y20669D02*
G01X6539Y20669D01*
G01X1750Y12300D02*
G01X1500Y12550D01*
G01X1500Y13050D01*
G01X1750Y13300D01*
G01X2250Y13300D02*
G01X2500Y13550D01*
G01X2500Y14050D01*
G01X2250Y14300D01*
G01X1750Y13300D02*
G01X1500Y13550D01*
G01X1500Y14050D01*
G01X1750Y14300D01*
G01X2250Y11300D02*
G01X1750Y11300D01*
G01X2250Y14300D02*
G01X2500Y14550D01*
G01X2500Y15050D01*
G01X2250Y15300D01*
G01X1750Y14300D02*
G01X1500Y14550D01*
G01X1500Y15050D01*
G01X1750Y15300D01*
G01X2250Y15300D02*
G01X1750Y15300D01*
G01X2250Y11300D02*
G01X2500Y11550D01*
G01X2500Y12050D01*
G01X2250Y12300D01*
G01X1750Y11300D02*
G01X1500Y11550D01*
G01X1500Y12050D01*
G01X1750Y12300D01*
G01X2250Y12300D02*
G01X2500Y12550D01*
G01X2500Y13050D01*
G01X2250Y13300D01*
G01X27900Y2100D02*
G01X30900Y2100D01*
G01X30900Y2100D01*
G01X27900Y2100D02*
G01X27900Y6100D01*
G01X30900Y2100D02*
G01X30900Y6100D01*
G01X27900Y6100D02*
G01X30900Y6100D01*
G01X9960Y13630D02*
G01X9960Y14569D01*
G01X9960Y14569D02*
G01X12439Y14569D01*
G01X12439Y14569D02*
G01X12439Y13630D01*
G01X12439Y13630D02*
G01X9960Y13630D01*
G01X9960Y12430D02*
G01X9960Y13369D01*
G01X9960Y13369D02*
G01X12439Y13369D01*
G01X12439Y13369D02*
G01X12439Y12430D01*
G01X12439Y12430D02*
G01X9960Y12430D01*
G01X4060Y21230D02*
G01X4060Y22169D01*
G01X4060Y22169D02*
G01X6539Y22169D01*
G01X6539Y22169D02*
G01X6539Y21230D01*
G01X6539Y21230D02*
G01X4060Y21230D01*
G01X27651Y11220D02*
G01X23911Y11220D01*
G01X27651Y1772D02*
G01X23911Y1772D01*
G01X27651Y11220D02*
G01X27651Y1772D01*
G01X23911Y11220D02*
G01X23911Y1772D01*
G01X27218Y10551D02*
G01X27218Y2401D01*
G01X24344Y2401D01*
G01X24344Y10551D01*
G01X27218Y10551D01*
G01X2881Y18442D02*
G01X559Y18442D01*
G01X559Y16159D01*
G01X2881Y16159D01*
G01X2881Y18442D01*
G54D41*
G01X5600Y10376D02*
G01X5906Y10376D01*
G01X5968Y10396D01*
G01X6009Y10436D01*
G01X6028Y10498D01*
G01X6028Y10540D01*
G01X6009Y10601D01*
G01X5968Y10642D01*
G01X5906Y10661D01*
G01X5600Y10661D01*
G01X5681Y10796D02*
G01X5660Y10838D01*
G01X5600Y10900D01*
G01X6028Y10900D01*
G01X20700Y10100D02*
G01X20700Y9794D01*
G01X20719Y9732D01*
G01X20760Y9690D01*
G01X20822Y9671D01*
G01X20864Y9671D01*
G01X20925Y9690D01*
G01X20965Y9732D01*
G01X20985Y9794D01*
G01X20985Y10100D01*
G01X21142Y9998D02*
G01X21142Y10019D01*
G01X21161Y10059D01*
G01X21182Y10080D01*
G01X21223Y10100D01*
G01X21305Y10100D01*
G01X21346Y10080D01*
G01X21367Y10059D01*
G01X21386Y10019D01*
G01X21386Y9978D01*
G01X21367Y9936D01*
G01X21326Y9875D01*
G01X21121Y9671D01*
G01X21407Y9671D01*
G01X20922Y2600D02*
G01X20881Y2580D01*
G01X20840Y2538D01*
G01X20819Y2498D01*
G01X20800Y2436D01*
G01X20800Y2334D01*
G01X20819Y2273D01*
G01X20840Y2232D01*
G01X20881Y2190D01*
G01X20922Y2171D01*
G01X21005Y2171D01*
G01X21044Y2190D01*
G01X21085Y2232D01*
G01X21106Y2273D01*
G01X21127Y2334D01*
G01X21127Y2436D01*
G01X21106Y2498D01*
G01X21085Y2538D01*
G01X21044Y2580D01*
G01X21005Y2600D01*
G01X20922Y2600D01*
G01X20984Y2253D02*
G01X21106Y2130D01*
G01X21261Y2519D02*
G01X21302Y2538D01*
G01X21364Y2600D01*
G01X21364Y2171D01*
G01X5400Y17700D02*
G01X5400Y17271D01*
G01X5400Y17700D02*
G01X5584Y17700D01*
G01X5644Y17680D01*
G01X5665Y17659D01*
G01X5685Y17619D01*
G01X5685Y17578D01*
G01X5665Y17536D01*
G01X5644Y17515D01*
G01X5584Y17496D01*
G01X5400Y17496D01*
G01X5543Y17496D02*
G01X5685Y17271D01*
G01X5821Y17619D02*
G01X5861Y17638D01*
G01X5923Y17700D01*
G01X5923Y17271D01*
G01X3055Y7300D02*
G01X3484Y7586D01*
G01X3055Y7586D02*
G01X3484Y7300D01*
G01X3136Y7721D02*
G01X3115Y7761D01*
G01X3055Y7823D01*
G01X3484Y7823D01*
G01X907Y10198D02*
G01X886Y10238D01*
G01X844Y10280D01*
G01X805Y10300D01*
G01X723Y10300D01*
G01X682Y10280D01*
G01X640Y10238D01*
G01X619Y10198D01*
G01X600Y10136D01*
G01X600Y10034D01*
G01X619Y9973D01*
G01X640Y9932D01*
G01X682Y9890D01*
G01X723Y9871D01*
G01X805Y9871D01*
G01X844Y9890D01*
G01X886Y9932D01*
G01X907Y9973D01*
G01X1042Y10219D02*
G01X1082Y10238D01*
G01X1144Y10300D01*
G01X1144Y9871D01*
G01X2807Y3242D02*
G01X2786Y3284D01*
G01X2744Y3325D01*
G01X2705Y3344D01*
G01X2623Y3344D01*
G01X2582Y3325D01*
G01X2540Y3284D01*
G01X2519Y3242D01*
G01X2500Y3182D01*
G01X2500Y3080D01*
G01X2519Y3017D01*
G01X2540Y2976D01*
G01X2582Y2936D01*
G01X2623Y2915D01*
G01X2705Y2915D01*
G01X2744Y2936D01*
G01X2786Y2976D01*
G01X2807Y3017D01*
G01X2982Y3344D02*
G01X3207Y3344D01*
G01X3084Y3182D01*
G01X3146Y3182D01*
G01X3186Y3161D01*
G01X3207Y3140D01*
G01X3228Y3080D01*
G01X3228Y3038D01*
G01X3207Y2976D01*
G01X3167Y2936D01*
G01X3105Y2915D01*
G01X3044Y2915D01*
G01X2982Y2936D01*
G01X2961Y2957D01*
G01X2942Y2998D01*
G01X21222Y18044D02*
G01X21181Y18025D01*
G01X21140Y17984D01*
G01X21119Y17942D01*
G01X21100Y17882D01*
G01X21100Y17780D01*
G01X21119Y17717D01*
G01X21140Y17677D01*
G01X21181Y17636D01*
G01X21222Y17615D01*
G01X21305Y17615D01*
G01X21344Y17636D01*
G01X21385Y17677D01*
G01X21406Y17717D01*
G01X21427Y17780D01*
G01X21427Y17882D01*
G01X21406Y17942D01*
G01X21385Y17984D01*
G01X21344Y18025D01*
G01X21305Y18044D01*
G01X21222Y18044D01*
G01X21284Y17698D02*
G01X21406Y17575D01*
G01X21582Y17942D02*
G01X21582Y17963D01*
G01X21602Y18005D01*
G01X21623Y18025D01*
G01X21664Y18044D01*
G01X21746Y18044D01*
G01X21786Y18025D01*
G01X21807Y18005D01*
G01X21827Y17963D01*
G01X21827Y17923D01*
G01X21807Y17882D01*
G01X21767Y17819D01*
G01X21561Y17615D01*
G01X21848Y17615D01*
G01X18300Y18800D02*
G01X18300Y18371D01*
G01X18300Y18800D02*
G01X18484Y18800D01*
G01X18544Y18780D01*
G01X18565Y18759D01*
G01X18585Y18719D01*
G01X18585Y18678D01*
G01X18565Y18636D01*
G01X18544Y18615D01*
G01X18484Y18596D01*
G01X18300Y18596D01*
G01X18443Y18596D02*
G01X18585Y18371D01*
G01X18742Y18698D02*
G01X18742Y18719D01*
G01X18761Y18759D01*
G01X18782Y18780D01*
G01X18823Y18800D01*
G01X18905Y18800D01*
G01X18946Y18780D01*
G01X18967Y18759D01*
G01X18986Y18719D01*
G01X18986Y18678D01*
G01X18967Y18636D01*
G01X18926Y18575D01*
G01X18721Y18371D01*
G01X19007Y18371D01*
G01X19800Y15500D02*
G01X19800Y15071D01*
G01X19800Y15500D02*
G01X19943Y15500D01*
G01X20005Y15480D01*
G01X20044Y15438D01*
G01X20065Y15398D01*
G01X20085Y15336D01*
G01X20085Y15234D01*
G01X20065Y15173D01*
G01X20044Y15132D01*
G01X20005Y15090D01*
G01X19943Y15071D01*
G01X19800Y15071D01*
G01X20221Y15419D02*
G01X20261Y15438D01*
G01X20323Y15500D01*
G01X20323Y15071D01*
G01X26100Y16400D02*
G01X26100Y15971D01*
G01X26100Y16400D02*
G01X26284Y16400D01*
G01X26344Y16380D01*
G01X26365Y16359D01*
G01X26385Y16319D01*
G01X26385Y16278D01*
G01X26365Y16236D01*
G01X26344Y16215D01*
G01X26284Y16196D01*
G01X26100Y16196D01*
G01X26243Y16196D02*
G01X26385Y15971D01*
G01X26521Y16400D02*
G01X26521Y15971D01*
G01X26521Y16400D02*
G01X26786Y16400D01*
G01X26521Y16196D02*
G01X26685Y16196D01*
G01X26521Y15971D02*
G01X26786Y15971D01*
G01X26922Y16400D02*
G01X26922Y15971D01*
G01X26922Y15971D02*
G01X27168Y15971D01*
G01X27465Y16400D02*
G01X27302Y15971D01*
G01X27465Y16400D02*
G01X27630Y15971D01*
G01X27364Y16113D02*
G01X27568Y16113D01*
G01X27764Y16400D02*
G01X27928Y16196D01*
G01X27928Y15971D01*
G01X28092Y16400D02*
G01X27928Y16196D01*
G01X28227Y16319D02*
G01X28268Y16338D01*
G01X28330Y16400D01*
G01X28330Y15971D01*
G01X29400Y6576D02*
G01X29829Y6576D01*
G01X29400Y6576D02*
G01X29400Y6759D01*
G01X29420Y6821D01*
G01X29440Y6842D01*
G01X29481Y6861D01*
G01X29543Y6861D01*
G01X29584Y6842D01*
G01X29604Y6821D01*
G01X29625Y6759D01*
G01X29625Y6576D01*
G01X29481Y6996D02*
G01X29461Y7038D01*
G01X29400Y7100D01*
G01X29829Y7100D01*
G01X18600Y14099D02*
G01X18600Y13670D01*
G01X18600Y13670D02*
G01X18845Y13670D01*
G01X18980Y14099D02*
G01X18980Y13670D01*
G01X18980Y14099D02*
G01X19246Y14099D01*
G01X18980Y13895D02*
G01X19144Y13895D01*
G01X18980Y13670D02*
G01X19246Y13670D01*
G01X19381Y14099D02*
G01X19381Y13670D01*
G01X19381Y14099D02*
G01X19525Y14099D01*
G01X19586Y14079D01*
G01X19627Y14038D01*
G01X19647Y13997D01*
G01X19668Y13936D01*
G01X19668Y13834D01*
G01X19647Y13772D01*
G01X19627Y13731D01*
G01X19586Y13690D01*
G01X19525Y13670D01*
G01X19381Y13670D01*
G01X19803Y14018D02*
G01X19844Y14038D01*
G01X19905Y14099D01*
G01X19905Y13670D01*
G01X20099Y12000D02*
G01X20099Y11571D01*
G01X20099Y12000D02*
G01X20283Y12000D01*
G01X20344Y11980D01*
G01X20365Y11960D01*
G01X20385Y11919D01*
G01X20385Y11878D01*
G01X20365Y11837D01*
G01X20344Y11816D01*
G01X20283Y11796D01*
G01X20099Y11796D01*
G01X20242Y11796D02*
G01X20385Y11571D01*
G01X20561Y12000D02*
G01X20786Y12000D01*
G01X20664Y11837D01*
G01X20725Y11837D01*
G01X20766Y11816D01*
G01X20786Y11796D01*
G01X20807Y11735D01*
G01X20807Y11694D01*
G01X20786Y11632D01*
G01X20745Y11591D01*
G01X20684Y11571D01*
G01X20623Y11571D01*
G01X20561Y11591D01*
G01X20541Y11612D01*
G01X20520Y11653D01*
G01X18502Y4078D02*
G01X18461Y4057D01*
G01X18420Y4017D01*
G01X18400Y3976D01*
G01X18400Y3894D01*
G01X18420Y3853D01*
G01X18461Y3813D01*
G01X18502Y3792D01*
G01X18563Y3771D01*
G01X18665Y3771D01*
G01X18727Y3792D01*
G01X18768Y3813D01*
G01X18809Y3853D01*
G01X18829Y3894D01*
G01X18829Y3976D01*
G01X18809Y4017D01*
G01X18768Y4057D01*
G01X18727Y4078D01*
G01X18502Y4234D02*
G01X18481Y4234D01*
G01X18440Y4255D01*
G01X18420Y4275D01*
G01X18400Y4315D01*
G01X18400Y4398D01*
G01X18420Y4438D01*
G01X18440Y4459D01*
G01X18481Y4480D01*
G01X18522Y4480D01*
G01X18563Y4459D01*
G01X18625Y4417D01*
G01X18829Y4213D01*
G01X18829Y4500D01*
G01X18456Y8007D02*
G01X18415Y7986D01*
G01X18375Y7944D01*
G01X18355Y7905D01*
G01X18355Y7823D01*
G01X18375Y7782D01*
G01X18415Y7740D01*
G01X18456Y7719D01*
G01X18518Y7700D01*
G01X18619Y7700D01*
G01X18681Y7719D01*
G01X18722Y7740D01*
G01X18764Y7782D01*
G01X18784Y7823D01*
G01X18784Y7905D01*
G01X18764Y7944D01*
G01X18722Y7986D01*
G01X18681Y8007D01*
G01X18355Y8346D02*
G01X18640Y8142D01*
G01X18640Y8448D01*
G01X18355Y8346D02*
G01X18784Y8346D01*
G01X22899Y14100D02*
G01X22899Y13671D01*
G01X22899Y13671D02*
G01X23144Y13671D01*
G01X23279Y14100D02*
G01X23279Y13671D01*
G01X23279Y14100D02*
G01X23545Y14100D01*
G01X23279Y13896D02*
G01X23443Y13896D01*
G01X23279Y13671D02*
G01X23545Y13671D01*
G01X23680Y14100D02*
G01X23680Y13671D01*
G01X23680Y14100D02*
G01X23824Y14100D01*
G01X23885Y14080D01*
G01X23926Y14038D01*
G01X23946Y13998D01*
G01X23967Y13936D01*
G01X23967Y13834D01*
G01X23946Y13773D01*
G01X23926Y13732D01*
G01X23885Y13690D01*
G01X23824Y13671D01*
G01X23680Y13671D01*
G01X24122Y13998D02*
G01X24122Y14019D01*
G01X24143Y14059D01*
G01X24163Y14080D01*
G01X24204Y14100D01*
G01X24286Y14100D01*
G01X24327Y14080D01*
G01X24347Y14059D01*
G01X24368Y14019D01*
G01X24368Y13978D01*
G01X24347Y13936D01*
G01X24306Y13875D01*
G01X24102Y13671D01*
G01X24388Y13671D01*
G01X27200Y12900D02*
G01X27200Y12471D01*
G01X27200Y12900D02*
G01X27384Y12900D01*
G01X27444Y12880D01*
G01X27465Y12859D01*
G01X27485Y12819D01*
G01X27485Y12778D01*
G01X27465Y12736D01*
G01X27444Y12715D01*
G01X27384Y12696D01*
G01X27200Y12696D01*
G01X27343Y12696D02*
G01X27485Y12471D01*
G01X27826Y12900D02*
G01X27621Y12613D01*
G01X27927Y12613D01*
G01X27826Y12900D02*
G01X27826Y12471D01*
G01X11406Y4098D02*
G01X11385Y4139D01*
G01X11344Y4180D01*
G01X11305Y4200D01*
G01X11222Y4200D01*
G01X11181Y4180D01*
G01X11140Y4139D01*
G01X11119Y4098D01*
G01X11100Y4037D01*
G01X11100Y3935D01*
G01X11119Y3873D01*
G01X11140Y3832D01*
G01X11181Y3791D01*
G01X11222Y3771D01*
G01X11305Y3771D01*
G01X11344Y3791D01*
G01X11385Y3832D01*
G01X11406Y3873D01*
G01X11786Y4200D02*
G01X11582Y4200D01*
G01X11561Y4016D01*
G01X11582Y4037D01*
G01X11643Y4057D01*
G01X11705Y4057D01*
G01X11767Y4037D01*
G01X11807Y3996D01*
G01X11827Y3935D01*
G01X11827Y3894D01*
G01X11807Y3832D01*
G01X11767Y3791D01*
G01X11705Y3771D01*
G01X11643Y3771D01*
G01X11582Y3791D01*
G01X11561Y3812D01*
G01X11542Y3853D01*
G01X12200Y18744D02*
G01X12200Y18315D01*
G01X12200Y18744D02*
G01X12384Y18744D01*
G01X12444Y18725D01*
G01X12465Y18705D01*
G01X12485Y18663D01*
G01X12485Y18602D01*
G01X12465Y18561D01*
G01X12444Y18540D01*
G01X12384Y18519D01*
G01X12200Y18519D01*
G01X12642Y18642D02*
G01X12642Y18663D01*
G01X12661Y18705D01*
G01X12682Y18725D01*
G01X12723Y18744D01*
G01X12805Y18744D01*
G01X12846Y18725D01*
G01X12867Y18705D01*
G01X12886Y18663D01*
G01X12886Y18623D01*
G01X12867Y18582D01*
G01X12826Y18519D01*
G01X12621Y18315D01*
G01X12907Y18315D01*
G01X4900Y20500D02*
G01X4900Y20071D01*
G01X4900Y20500D02*
G01X5084Y20500D01*
G01X5144Y20480D01*
G01X5165Y20459D01*
G01X5185Y20419D01*
G01X5185Y20378D01*
G01X5165Y20336D01*
G01X5144Y20315D01*
G01X5084Y20296D01*
G01X4900Y20296D01*
G01X5043Y20296D02*
G01X5185Y20071D01*
G01X5567Y20500D02*
G01X5361Y20500D01*
G01X5342Y20315D01*
G01X5361Y20336D01*
G01X5423Y20357D01*
G01X5485Y20357D01*
G01X5546Y20336D01*
G01X5586Y20296D01*
G01X5607Y20234D01*
G01X5607Y20194D01*
G01X5586Y20132D01*
G01X5546Y20090D01*
G01X5485Y20071D01*
G01X5423Y20071D01*
G01X5361Y20090D01*
G01X5342Y20111D01*
G01X5321Y20153D01*
G01X2755Y13300D02*
G01X3184Y13300D01*
G01X2755Y13586D02*
G01X3184Y13586D01*
G01X2959Y13300D02*
G01X2959Y13586D01*
G01X2836Y13721D02*
G01X2815Y13761D01*
G01X2755Y13823D01*
G01X3184Y13823D01*
G01X29200Y991D02*
G01X29629Y991D01*
G01X29200Y991D02*
G01X29200Y1175D01*
G01X29220Y1236D01*
G01X29240Y1257D01*
G01X29281Y1277D01*
G01X29343Y1277D01*
G01X29384Y1257D01*
G01X29404Y1236D01*
G01X29425Y1175D01*
G01X29425Y991D01*
G01X29200Y1453D02*
G01X29200Y1678D01*
G01X29363Y1556D01*
G01X29363Y1617D01*
G01X29384Y1658D01*
G01X29404Y1678D01*
G01X29465Y1699D01*
G01X29506Y1699D01*
G01X29568Y1678D01*
G01X29609Y1637D01*
G01X29629Y1576D01*
G01X29629Y1515D01*
G01X29609Y1453D01*
G01X29588Y1433D01*
G01X29547Y1412D01*
G01X13400Y4111D02*
G01X13828Y4111D01*
G01X13828Y4111D02*
G01X13828Y4356D01*
G01X13400Y4491D02*
G01X13828Y4491D01*
G01X13400Y4491D02*
G01X13400Y4757D01*
G01X13603Y4491D02*
G01X13603Y4655D01*
G01X13828Y4491D02*
G01X13828Y4757D01*
G01X13400Y4892D02*
G01X13828Y4892D01*
G01X13400Y4892D02*
G01X13400Y5036D01*
G01X13419Y5097D01*
G01X13460Y5138D01*
G01X13502Y5158D01*
G01X13563Y5179D01*
G01X13664Y5179D01*
G01X13727Y5158D01*
G01X13768Y5138D01*
G01X13809Y5097D01*
G01X13828Y5036D01*
G01X13828Y4892D01*
G01X13400Y5355D02*
G01X13400Y5580D01*
G01X13563Y5457D01*
G01X13563Y5518D01*
G01X13584Y5559D01*
G01X13603Y5580D01*
G01X13664Y5600D01*
G01X13706Y5600D01*
G01X13768Y5580D01*
G01X13809Y5539D01*
G01X13828Y5477D01*
G01X13828Y5416D01*
G01X13809Y5355D01*
G01X13788Y5334D01*
G01X13747Y5314D01*
G01X15400Y3989D02*
G01X15828Y3989D01*
G01X15828Y3989D02*
G01X15828Y4234D01*
G01X15400Y4369D02*
G01X15828Y4369D01*
G01X15400Y4369D02*
G01X15400Y4635D01*
G01X15603Y4369D02*
G01X15603Y4533D01*
G01X15828Y4369D02*
G01X15828Y4635D01*
G01X15400Y4770D02*
G01X15828Y4770D01*
G01X15400Y4770D02*
G01X15400Y4914D01*
G01X15419Y4975D01*
G01X15460Y5016D01*
G01X15502Y5036D01*
G01X15563Y5057D01*
G01X15664Y5057D01*
G01X15727Y5036D01*
G01X15768Y5016D01*
G01X15809Y4975D01*
G01X15828Y4914D01*
G01X15828Y4770D01*
G01X15400Y5396D02*
G01X15685Y5192D01*
G01X15685Y5499D01*
G01X15400Y5396D02*
G01X15828Y5396D01*
G01X10900Y15200D02*
G01X10900Y14771D01*
G01X10900Y15200D02*
G01X11084Y15200D01*
G01X11144Y15180D01*
G01X11165Y15159D01*
G01X11185Y15119D01*
G01X11185Y15078D01*
G01X11165Y15036D01*
G01X11144Y15015D01*
G01X11084Y14996D01*
G01X10900Y14996D01*
G01X11043Y14996D02*
G01X11185Y14771D01*
G01X11607Y15200D02*
G01X11402Y14771D01*
G01X11321Y15200D02*
G01X11607Y15200D01*
G01X10900Y12200D02*
G01X10900Y11771D01*
G01X10900Y12200D02*
G01X11084Y12200D01*
G01X11144Y12180D01*
G01X11165Y12159D01*
G01X11185Y12119D01*
G01X11185Y12078D01*
G01X11165Y12036D01*
G01X11144Y12015D01*
G01X11084Y11996D01*
G01X10900Y11996D01*
G01X11043Y11996D02*
G01X11185Y11771D01*
G01X11423Y12200D02*
G01X11361Y12180D01*
G01X11342Y12138D01*
G01X11342Y12098D01*
G01X11361Y12057D01*
G01X11402Y12036D01*
G01X11485Y12015D01*
G01X11546Y11996D01*
G01X11586Y11955D01*
G01X11607Y11913D01*
G01X11607Y11853D01*
G01X11586Y11811D01*
G01X11567Y11790D01*
G01X11505Y11771D01*
G01X11423Y11771D01*
G01X11361Y11790D01*
G01X11342Y11811D01*
G01X11321Y11853D01*
G01X11321Y11913D01*
G01X11342Y11955D01*
G01X11382Y11996D01*
G01X11443Y12015D01*
G01X11526Y12036D01*
G01X11567Y12057D01*
G01X11586Y12098D01*
G01X11586Y12138D01*
G01X11567Y12180D01*
G01X11505Y12200D01*
G01X11423Y12200D01*
G01X4900Y21900D02*
G01X4900Y21471D01*
G01X4900Y21900D02*
G01X5084Y21900D01*
G01X5144Y21880D01*
G01X5165Y21859D01*
G01X5185Y21819D01*
G01X5185Y21778D01*
G01X5165Y21736D01*
G01X5144Y21715D01*
G01X5084Y21696D01*
G01X4900Y21696D01*
G01X5043Y21696D02*
G01X5185Y21471D01*
G01X5567Y21838D02*
G01X5546Y21880D01*
G01X5485Y21900D01*
G01X5443Y21900D01*
G01X5382Y21880D01*
G01X5342Y21819D01*
G01X5321Y21715D01*
G01X5321Y21613D01*
G01X5342Y21532D01*
G01X5382Y21490D01*
G01X5443Y21471D01*
G01X5464Y21471D01*
G01X5526Y21490D01*
G01X5567Y21532D01*
G01X5586Y21594D01*
G01X5586Y21613D01*
G01X5567Y21675D01*
G01X5526Y21715D01*
G01X5464Y21736D01*
G01X5443Y21736D01*
G01X5382Y21715D01*
G01X5342Y21675D01*
G01X5321Y21613D01*
G01X27956Y6496D02*
G01X28385Y6496D01*
G01X27956Y6496D02*
G01X27956Y6762D01*
G01X28160Y6496D02*
G01X28160Y6660D01*
G01X28036Y6897D02*
G01X28017Y6938D01*
G01X27956Y6999D01*
G01X28385Y6999D01*
G01X3155Y17400D02*
G01X3584Y17400D01*
G01X3155Y17686D02*
G01X3440Y17400D01*
G01X3338Y17502D02*
G01X3584Y17686D01*
G01X3155Y17821D02*
G01X3584Y17821D01*
G01X3155Y17821D02*
G01X3155Y18086D01*
G01X3359Y17821D02*
G01X3359Y17984D01*
G01X3584Y17821D02*
G01X3584Y18086D01*
G01X3155Y18221D02*
G01X3359Y18386D01*
G01X3584Y18386D01*
G01X3155Y18550D02*
G01X3359Y18386D01*
G01X3236Y18684D02*
G01X3215Y18725D01*
G01X3155Y18786D01*
G01X3584Y18786D01*

%LPD*%
G36*
G01X15729Y494D02*
G01X15707Y494D01*
G01X15686Y494D01*
G01X15665Y497D01*
G01X15645Y501D01*
G01X15626Y507D01*
G01X15607Y515D01*
G01X15590Y524D01*
G01X15573Y535D01*
G01X15557Y547D01*
G01X15543Y561D01*
G01X15529Y576D01*
G01X15517Y592D01*
G01X15505Y610D01*
G01X15495Y630D01*
G01X15486Y650D01*
G01X15478Y672D01*
G01X15471Y695D01*
G01X15466Y719D01*
G01X15463Y744D01*
G01X15460Y771D01*
G01X15460Y798D01*
G01X15460Y826D01*
G01X15463Y852D01*
G01X15466Y878D01*
G01X15471Y902D01*
G01X15478Y925D01*
G01X15486Y946D01*
G01X15495Y966D01*
G01X15505Y985D01*
G01X15517Y1003D01*
G01X15529Y1019D01*
G01X15543Y1034D01*
G01X15557Y1048D01*
G01X15573Y1059D01*
G01X15590Y1070D01*
G01X15607Y1079D01*
G01X15626Y1086D01*
G01X15645Y1092D01*
G01X15665Y1096D01*
G01X15686Y1099D01*
G01X15707Y1100D01*
G01X15729Y1099D01*
G01X15750Y1096D01*
G01X15770Y1092D01*
G01X15789Y1086D01*
G01X15807Y1079D01*
G01X15825Y1070D01*
G01X15842Y1059D01*
G01X15857Y1048D01*
G01X15872Y1034D01*
G01X15886Y1019D01*
G01X15898Y1003D01*
G01X15910Y985D01*
G01X15920Y966D01*
G01X15929Y946D01*
G01X15937Y925D01*
G01X15944Y902D01*
G01X15949Y878D01*
G01X15952Y852D01*
G01X15955Y826D01*
G01X15956Y798D01*
G01X15955Y771D01*
G01X15952Y744D01*
G01X15949Y719D01*
G01X15944Y695D01*
G01X15937Y672D01*
G01X15929Y650D01*
G01X15920Y630D01*
G01X15910Y610D01*
G01X15898Y592D01*
G01X15886Y576D01*
G01X15872Y561D01*
G01X15857Y547D01*
G01X15842Y535D01*
G01X15825Y524D01*
G01X15807Y515D01*
G01X15789Y507D01*
G01X15770Y501D01*
G01X15750Y497D01*
G01X15729Y494D01*
G37*

%LPC*%
G36*
G01X15688Y553D02*
G01X15707Y551D01*
G01X15727Y553D01*
G01X15746Y556D01*
G01X15764Y561D01*
G01X15781Y569D01*
G01X15797Y578D01*
G01X15812Y590D01*
G01X15826Y603D01*
G01X15838Y619D01*
G01X15849Y636D01*
G01X15859Y655D01*
G01X15868Y675D01*
G01X15875Y697D01*
G01X15880Y720D01*
G01X15884Y745D01*
G01X15887Y771D01*
G01X15888Y798D01*
G01X15887Y826D01*
G01X15884Y852D01*
G01X15880Y877D01*
G01X15875Y900D01*
G01X15868Y921D01*
G01X15859Y941D01*
G01X15849Y960D01*
G01X15838Y976D01*
G01X15826Y991D01*
G01X15812Y1004D01*
G01X15797Y1015D01*
G01X15781Y1025D01*
G01X15764Y1032D01*
G01X15746Y1037D01*
G01X15727Y1040D01*
G01X15707Y1042D01*
G01X15688Y1040D01*
G01X15669Y1037D01*
G01X15651Y1032D01*
G01X15634Y1025D01*
G01X15618Y1015D01*
G01X15603Y1004D01*
G01X15589Y991D01*
G01X15577Y976D01*
G01X15566Y960D01*
G01X15556Y941D01*
G01X15547Y921D01*
G01X15540Y900D01*
G01X15535Y877D01*
G01X15531Y852D01*
G01X15528Y826D01*
G01X15527Y798D01*
G01X15528Y771D01*
G01X15531Y745D01*
G01X15535Y720D01*
G01X15540Y697D01*
G01X15547Y675D01*
G01X15556Y655D01*
G01X15566Y636D01*
G01X15577Y619D01*
G01X15589Y603D01*
G01X15603Y590D01*
G01X15618Y578D01*
G01X15634Y569D01*
G01X15651Y561D01*
G01X15669Y556D01*
G01X15688Y553D01*
G37*

%LPD*%
G36*
G01X17856Y503D02*
G01X17780Y503D01*
G01X17592Y1090D01*
G01X17661Y1090D01*
G01X17760Y765D01*
G01X17767Y740D01*
G01X17774Y716D01*
G01X17781Y692D01*
G01X17788Y669D01*
G01X17794Y646D01*
G01X17802Y622D01*
G01X17809Y598D01*
G01X17818Y573D01*
G01X17821Y573D01*
G01X17829Y598D01*
G01X17836Y622D01*
G01X17843Y646D01*
G01X17850Y669D01*
G01X17857Y692D01*
G01X17864Y716D01*
G01X17872Y740D01*
G01X17880Y765D01*
G01X17976Y1090D01*
G01X18043Y1090D01*
G01X17856Y503D01*
G37*

%LPC*%

%LPD*%
G36*
G01X17547Y503D02*
G01X17205Y503D01*
G01X17205Y1090D01*
G01X17539Y1090D01*
G01X17539Y1034D01*
G01X17272Y1034D01*
G01X17272Y840D01*
G01X17496Y840D01*
G01X17496Y784D01*
G01X17272Y784D01*
G01X17272Y559D01*
G01X17547Y559D01*
G01X17547Y503D01*
G37*

%LPC*%

%LPD*%
G36*
G01X16805Y503D02*
G01X16659Y503D01*
G01X16659Y1090D01*
G01X16802Y1090D01*
G01X16829Y1089D01*
G01X16854Y1086D01*
G01X16878Y1082D01*
G01X16900Y1077D01*
G01X16921Y1070D01*
G01X16941Y1061D01*
G01X16959Y1051D01*
G01X16976Y1040D01*
G01X16992Y1027D01*
G01X17006Y1013D01*
G01X17019Y997D01*
G01X17031Y980D01*
G01X17042Y962D01*
G01X17051Y942D01*
G01X17058Y921D01*
G01X17064Y900D01*
G01X17069Y876D01*
G01X17073Y851D01*
G01X17075Y826D01*
G01X17076Y798D01*
G01X17075Y771D01*
G01X17073Y746D01*
G01X17069Y721D01*
G01X17064Y697D01*
G01X17058Y675D01*
G01X17051Y654D01*
G01X17042Y634D01*
G01X17031Y615D01*
G01X17020Y598D01*
G01X17007Y582D01*
G01X16993Y567D01*
G01X16977Y554D01*
G01X16960Y543D01*
G01X16942Y532D01*
G01X16922Y524D01*
G01X16901Y517D01*
G01X16879Y511D01*
G01X16855Y507D01*
G01X16831Y504D01*
G01X16805Y503D01*
G37*

%LPC*%
G36*
G01X16725Y1034D02*
G01X16725Y557D01*
G01X16797Y557D01*
G01X16822Y559D01*
G01X16847Y562D01*
G01X16869Y567D01*
G01X16890Y574D01*
G01X16909Y583D01*
G01X16926Y594D01*
G01X16942Y607D01*
G01X16956Y622D01*
G01X16968Y638D01*
G01X16978Y657D01*
G01X16987Y676D01*
G01X16995Y698D01*
G01X17000Y721D01*
G01X17004Y745D01*
G01X17007Y771D01*
G01X17007Y798D01*
G01X17007Y826D01*
G01X17004Y852D01*
G01X17000Y876D01*
G01X16995Y899D01*
G01X16987Y920D01*
G01X16978Y939D01*
G01X16968Y957D01*
G01X16956Y973D01*
G01X16942Y987D01*
G01X16926Y999D01*
G01X16909Y1010D01*
G01X16890Y1019D01*
G01X16869Y1026D01*
G01X16847Y1030D01*
G01X16822Y1034D01*
G01X16797Y1034D01*
G01X16725Y1034D01*
G37*

%LPD*%
G36*
G01X16147Y503D02*
G01X16084Y503D01*
G01X16084Y1090D01*
G01X16152Y1090D01*
G01X16373Y709D01*
G01X16436Y590D01*
G01X16440Y590D01*
G01X16439Y612D01*
G01X16438Y634D01*
G01X16436Y657D01*
G01X16435Y681D01*
G01X16433Y704D01*
G01X16432Y727D01*
G01X16432Y750D01*
G01X16431Y773D01*
G01X16431Y1090D01*
G01X16496Y1090D01*
G01X16496Y503D01*
G01X16427Y503D01*
G01X16206Y882D01*
G01X16143Y1003D01*
G01X16139Y1003D01*
G01X16140Y981D01*
G01X16141Y959D01*
G01X16142Y937D01*
G01X16144Y915D01*
G01X16146Y870D01*
G01X16146Y847D01*
G01X16147Y825D01*
G01X16147Y503D01*
G37*

%LPC*%

%LPD*%
G36*
G01X15247Y503D02*
G01X15182Y503D01*
G01X15182Y734D01*
G01X15006Y1090D01*
G01X15077Y1090D01*
G01X15156Y919D01*
G01X15170Y888D01*
G01X15184Y856D01*
G01X15199Y824D01*
G01X15214Y792D01*
G01X15218Y792D01*
G01X15233Y824D01*
G01X15248Y856D01*
G01X15263Y888D01*
G01X15277Y919D01*
G01X15356Y1090D01*
G01X15423Y1090D01*
G01X15247Y734D01*
G01X15247Y503D01*
G37*

%LPC*%

%LPD*%
G36*
G01X14964Y503D02*
G01X14621Y503D01*
G01X14621Y1090D01*
G01X14955Y1090D01*
G01X14955Y1034D01*
G01X14688Y1034D01*
G01X14688Y840D01*
G01X14911Y840D01*
G01X14911Y784D01*
G01X14688Y784D01*
G01X14688Y559D01*
G01X14964Y559D01*
G01X14964Y503D01*
G37*

%LPC*%

%LPD*%
G36*
G01X14281Y503D02*
G01X14100Y503D01*
G01X14100Y1090D01*
G01X14268Y1090D01*
G01X14297Y1089D01*
G01X14325Y1086D01*
G01X14350Y1081D01*
G01X14373Y1075D01*
G01X14394Y1066D01*
G01X14413Y1056D01*
G01X14430Y1043D01*
G01X14443Y1028D01*
G01X14454Y1011D01*
G01X14462Y992D01*
G01X14467Y970D01*
G01X14468Y946D01*
G01X14467Y924D01*
G01X14463Y904D01*
G01X14456Y885D01*
G01X14446Y867D01*
G01X14434Y852D01*
G01X14419Y838D01*
G01X14401Y827D01*
G01X14381Y819D01*
G01X14381Y815D01*
G01X14407Y809D01*
G01X14431Y799D01*
G01X14452Y786D01*
G01X14469Y770D01*
G01X14484Y751D01*
G01X14494Y728D01*
G01X14501Y703D01*
G01X14503Y675D01*
G01X14502Y654D01*
G01X14499Y634D01*
G01X14494Y616D01*
G01X14487Y600D01*
G01X14478Y584D01*
G01X14468Y570D01*
G01X14456Y558D01*
G01X14442Y546D01*
G01X14426Y536D01*
G01X14409Y528D01*
G01X14391Y520D01*
G01X14372Y514D01*
G01X14351Y509D01*
G01X14329Y506D01*
G01X14306Y504D01*
G01X14281Y503D01*
G37*

%LPC*%
G36*
G01X14165Y786D02*
G01X14165Y557D01*
G01X14272Y557D01*
G01X14297Y557D01*
G01X14320Y560D01*
G01X14342Y563D01*
G01X14361Y569D01*
G01X14378Y576D01*
G01X14394Y586D01*
G01X14407Y596D01*
G01X14418Y609D01*
G01X14427Y623D01*
G01X14433Y639D01*
G01X14437Y657D01*
G01X14439Y678D01*
G01X14437Y695D01*
G01X14434Y712D01*
G01X14427Y726D01*
G01X14419Y739D01*
G01X14408Y751D01*
G01X14395Y760D01*
G01X14380Y768D01*
G01X14362Y775D01*
G01X14342Y780D01*
G01X14321Y784D01*
G01X14297Y786D01*
G01X14272Y786D01*
G01X14165Y786D01*
G37*
G36*
G01X14165Y1036D02*
G01X14165Y838D01*
G01X14256Y838D01*
G01X14292Y839D01*
G01X14323Y844D01*
G01X14348Y853D01*
G01X14369Y865D01*
G01X14384Y879D01*
G01X14395Y896D01*
G01X14402Y916D01*
G01X14403Y938D01*
G01X14401Y963D01*
G01X14394Y983D01*
G01X14383Y1001D01*
G01X14367Y1014D01*
G01X14347Y1024D01*
G01X14322Y1031D01*
G01X14293Y1035D01*
G01X14260Y1036D01*
G01X14165Y1036D01*
G37*

%LPD*%
G54D10*
G01X-2200Y0D02*
G01X-2200Y6000D01*
G01X-2500Y-500D02*
G01X-2200Y0D01*
G01X-1900Y-500D01*
G01X-2500Y6500D02*
G01X-2200Y6000D01*
G01X-1900Y6500D01*
G01X-991Y6282D02*
G01X-900Y6327D01*
G01X-854Y6463D01*
G01X-854Y6554D01*
G01X-900Y6691D01*
G01X-1036Y6782D01*
G01X-1263Y6827D01*
G01X-1491Y6827D01*
G01X-1672Y6782D01*
G01X-1763Y6691D01*
G01X-1809Y6554D01*
G01X-1809Y6509D01*
G01X-1763Y6372D01*
G01X-1672Y6282D01*
G01X-1536Y6236D01*
G01X-1491Y6236D01*
G01X-1354Y6282D01*
G01X-1263Y6372D01*
G01X-1218Y6509D01*
G01X-1218Y6554D01*
G01X-1263Y6691D01*
G01X-1354Y6782D01*
G01X-1491Y6827D01*
G01X-854Y5663D02*
G01X-900Y5800D01*
G01X-1036Y5891D01*
G01X-1263Y5936D01*
G01X-1400Y5936D01*
G01X-1627Y5891D01*
G01X-1763Y5800D01*
G01X-1809Y5663D01*
G01X-1809Y5572D01*
G01X-1763Y5436D01*
G01X-1627Y5345D01*
G01X-1400Y5300D01*
G01X-1263Y5300D01*
G01X-1036Y5345D01*
G01X-900Y5436D01*
G01X-854Y5572D01*
G01X-854Y5663D01*
G01X-854Y4727D02*
G01X-900Y4863D01*
G01X-1036Y4954D01*
G01X-1263Y5000D01*
G01X-1400Y5000D01*
G01X-1627Y4954D01*
G01X-1763Y4863D01*
G01X-1809Y4727D01*
G01X-1809Y4636D01*
G01X-1763Y4500D01*
G01X-1627Y4409D01*
G01X-1400Y4363D01*
G01X-1263Y4363D01*
G01X-1036Y4409D01*
G01X-900Y4500D01*
G01X-854Y4636D01*
G01X-854Y4727D01*
G01X-1582Y4018D02*
G01X-1627Y4063D01*
G01X-1672Y4018D01*
G01X-1627Y3972D01*
G01X-1582Y4018D01*
G01X-854Y3400D02*
G01X-900Y3536D01*
G01X-1036Y3627D01*
G01X-1263Y3672D01*
G01X-1400Y3672D01*
G01X-1627Y3627D01*
G01X-1763Y3536D01*
G01X-1809Y3400D01*
G01X-1809Y3309D01*
G01X-1763Y3172D01*
G01X-1627Y3082D01*
G01X-1400Y3036D01*
G01X-1263Y3036D01*
G01X-1036Y3082D01*
G01X-900Y3172D01*
G01X-854Y3309D01*
G01X-854Y3400D01*
G01X-854Y2463D02*
G01X-900Y2600D01*
G01X-1036Y2691D01*
G01X-1263Y2736D01*
G01X-1400Y2736D01*
G01X-1627Y2691D01*
G01X-1763Y2600D01*
G01X-1809Y2463D01*
G01X-1809Y2372D01*
G01X-1763Y2236D01*
G01X-1627Y2145D01*
G01X-1400Y2100D01*
G01X-1263Y2100D01*
G01X-1036Y2145D01*
G01X-900Y2236D01*
G01X-854Y2372D01*
G01X-854Y2463D01*
G01X-854Y1527D02*
G01X-900Y1663D01*
G01X-1036Y1754D01*
G01X-1263Y1800D01*
G01X-1400Y1800D01*
G01X-1627Y1754D01*
G01X-1763Y1663D01*
G01X-1809Y1527D01*
G01X-1809Y1436D01*
G01X-1763Y1300D01*
G01X-1627Y1209D01*
G01X-1400Y1163D01*
G01X-1263Y1163D01*
G01X-1036Y1209D01*
G01X-900Y1300D01*
G01X-854Y1436D01*
G01X-854Y1527D01*
G01X-1172Y863D02*
G01X-1809Y863D01*
G01X-1354Y863D02*
G01X-1218Y727D01*
G01X-1172Y636D01*
G01X-1172Y500D01*
G01X-1218Y409D01*
G01X-1354Y363D01*
G01X-1809Y363D01*
G01X-1354Y363D02*
G01X-1218Y227D01*
G01X-1172Y136D01*
G01X-1172Y0D01*
G01X-1218Y-90D01*
G01X-1354Y-136D01*
G01X-1809Y-136D01*
G01X-854Y-436D02*
G01X-900Y-481D01*
G01X-854Y-527D01*
G01X-809Y-481D01*
G01X-854Y-436D01*
G01X-1172Y-481D02*
G01X-1809Y-481D01*
G01X-854Y-827D02*
G01X-1809Y-827D01*
G01X33900Y100D02*
G01X33900Y7054D01*
G01X33900Y16045D02*
G01X33900Y23000D01*
G01X34200Y600D02*
G01X33900Y100D01*
G01X33600Y600D01*
G01X34200Y22500D02*
G01X33900Y23000D01*
G01X33600Y22500D01*
G01X34218Y15800D02*
G01X34263Y15800D01*
G01X34354Y15754D01*
G01X34399Y15709D01*
G01X34445Y15618D01*
G01X34445Y15436D01*
G01X34399Y15345D01*
G01X34354Y15300D01*
G01X34263Y15254D01*
G01X34172Y15254D01*
G01X34081Y15300D01*
G01X33945Y15390D01*
G01X33490Y15845D01*
G01X33490Y15209D01*
G01X34218Y14863D02*
G01X34263Y14863D01*
G01X34354Y14818D01*
G01X34399Y14772D01*
G01X34445Y14681D01*
G01X34445Y14500D01*
G01X34399Y14409D01*
G01X34354Y14363D01*
G01X34263Y14318D01*
G01X34172Y14318D01*
G01X34081Y14363D01*
G01X33945Y14454D01*
G01X33490Y14909D01*
G01X33490Y14272D01*
G01X34127Y13381D02*
G01X33990Y13427D01*
G01X33899Y13518D01*
G01X33854Y13654D01*
G01X33854Y13700D01*
G01X33899Y13836D01*
G01X33990Y13927D01*
G01X34127Y13972D01*
G01X34172Y13972D01*
G01X34309Y13927D01*
G01X34399Y13836D01*
G01X34445Y13700D01*
G01X34445Y13654D01*
G01X34399Y13518D01*
G01X34309Y13427D01*
G01X34127Y13381D01*
G01X33899Y13381D01*
G01X33672Y13427D01*
G01X33536Y13518D01*
G01X33490Y13654D01*
G01X33490Y13745D01*
G01X33536Y13881D01*
G01X33627Y13927D01*
G01X34445Y12809D02*
G01X34399Y12945D01*
G01X34263Y13036D01*
G01X34036Y13081D01*
G01X33899Y13081D01*
G01X33672Y13036D01*
G01X33536Y12945D01*
G01X33490Y12809D01*
G01X33490Y12718D01*
G01X33536Y12581D01*
G01X33672Y12490D01*
G01X33899Y12445D01*
G01X34036Y12445D01*
G01X34263Y12490D01*
G01X34399Y12581D01*
G01X34445Y12718D01*
G01X34445Y12809D01*
G01X33718Y12100D02*
G01X33672Y12145D01*
G01X33627Y12100D01*
G01X33672Y12054D01*
G01X33718Y12100D01*
G01X34445Y11481D02*
G01X34399Y11618D01*
G01X34263Y11709D01*
G01X34036Y11754D01*
G01X33899Y11754D01*
G01X33672Y11709D01*
G01X33536Y11618D01*
G01X33490Y11481D01*
G01X33490Y11390D01*
G01X33536Y11254D01*
G01X33672Y11163D01*
G01X33899Y11118D01*
G01X34036Y11118D01*
G01X34263Y11163D01*
G01X34399Y11254D01*
G01X34445Y11390D01*
G01X34445Y11481D01*
G01X34445Y10545D02*
G01X34399Y10681D01*
G01X34263Y10772D01*
G01X34036Y10818D01*
G01X33899Y10818D01*
G01X33672Y10772D01*
G01X33536Y10681D01*
G01X33490Y10545D01*
G01X33490Y10454D01*
G01X33536Y10318D01*
G01X33672Y10227D01*
G01X33899Y10181D01*
G01X34036Y10181D01*
G01X34263Y10227D01*
G01X34399Y10318D01*
G01X34445Y10454D01*
G01X34445Y10545D01*
G01X34445Y9609D02*
G01X34399Y9745D01*
G01X34263Y9836D01*
G01X34036Y9881D01*
G01X33899Y9881D01*
G01X33672Y9836D01*
G01X33536Y9745D01*
G01X33490Y9609D01*
G01X33490Y9518D01*
G01X33536Y9381D01*
G01X33672Y9290D01*
G01X33899Y9245D01*
G01X34036Y9245D01*
G01X34263Y9290D01*
G01X34399Y9381D01*
G01X34445Y9518D01*
G01X34445Y9609D01*
G01X34127Y8945D02*
G01X33490Y8945D01*
G01X33945Y8945D02*
G01X34081Y8809D01*
G01X34127Y8718D01*
G01X34127Y8581D01*
G01X34081Y8490D01*
G01X33945Y8445D01*
G01X33490Y8445D01*
G01X33945Y8445D02*
G01X34081Y8309D01*
G01X34127Y8218D01*
G01X34127Y8081D01*
G01X34081Y7990D01*
G01X33945Y7945D01*
G01X33490Y7945D01*
G01X34445Y7645D02*
G01X34399Y7600D01*
G01X34445Y7554D01*
G01X34490Y7600D01*
G01X34445Y7645D01*
G01X34127Y7600D02*
G01X33490Y7600D01*
G01X34445Y7254D02*
G01X33490Y7254D01*
G01X32000Y24000D02*
G01X20518Y24000D01*
G01X11481Y24000D02*
G01X0Y24000D01*
G01X31500Y24300D02*
G01X32000Y24000D01*
G01X31500Y23700D01*
G01X500Y24300D02*
G01X0Y24000D01*
G01X500Y23700D01*
G01X11772Y24544D02*
G01X12272Y24544D01*
G01X12000Y24182D01*
G01X12135Y24182D01*
G01X12227Y24136D01*
G01X12272Y24090D01*
G01X12318Y23955D01*
G01X12318Y23863D01*
G01X12272Y23727D01*
G01X12181Y23636D01*
G01X12044Y23590D01*
G01X11909Y23590D01*
G01X11772Y23636D01*
G01X11727Y23682D01*
G01X11681Y23773D01*
G01X12664Y24317D02*
G01X12664Y24363D01*
G01X12709Y24455D01*
G01X12755Y24500D01*
G01X12844Y24544D01*
G01X13027Y24544D01*
G01X13118Y24500D01*
G01X13164Y24455D01*
G01X13209Y24363D01*
G01X13209Y24273D01*
G01X13164Y24182D01*
G01X13072Y24044D01*
G01X12618Y23590D01*
G01X13255Y23590D01*
G01X13827Y24544D02*
G01X13690Y24500D01*
G01X13600Y24363D01*
G01X13555Y24136D01*
G01X13555Y24000D01*
G01X13600Y23773D01*
G01X13690Y23636D01*
G01X13827Y23590D01*
G01X13918Y23590D01*
G01X14055Y23636D01*
G01X14144Y23773D01*
G01X14190Y24000D01*
G01X14190Y24136D01*
G01X14144Y24363D01*
G01X14055Y24500D01*
G01X13918Y24544D01*
G01X13827Y24544D01*
G01X14764Y24544D02*
G01X14627Y24500D01*
G01X14535Y24363D01*
G01X14490Y24136D01*
G01X14490Y24000D01*
G01X14535Y23773D01*
G01X14627Y23636D01*
G01X14764Y23590D01*
G01X14855Y23590D01*
G01X14990Y23636D01*
G01X15081Y23773D01*
G01X15127Y24000D01*
G01X15127Y24136D01*
G01X15081Y24363D01*
G01X14990Y24500D01*
G01X14855Y24544D01*
G01X14764Y24544D01*
G01X15472Y23817D02*
G01X15427Y23773D01*
G01X15472Y23727D01*
G01X15518Y23773D01*
G01X15472Y23817D01*
G01X16090Y24544D02*
G01X15955Y24500D01*
G01X15864Y24363D01*
G01X15818Y24136D01*
G01X15818Y24000D01*
G01X15864Y23773D01*
G01X15955Y23636D01*
G01X16090Y23590D01*
G01X16181Y23590D01*
G01X16318Y23636D01*
G01X16409Y23773D01*
G01X16455Y24000D01*
G01X16455Y24136D01*
G01X16409Y24363D01*
G01X16318Y24500D01*
G01X16181Y24544D01*
G01X16090Y24544D01*
G01X17027Y24544D02*
G01X16890Y24500D01*
G01X16800Y24363D01*
G01X16755Y24136D01*
G01X16755Y24000D01*
G01X16800Y23773D01*
G01X16890Y23636D01*
G01X17027Y23590D01*
G01X17118Y23590D01*
G01X17255Y23636D01*
G01X17344Y23773D01*
G01X17390Y24000D01*
G01X17390Y24136D01*
G01X17344Y24363D01*
G01X17255Y24500D01*
G01X17118Y24544D01*
G01X17027Y24544D01*
G01X17964Y24544D02*
G01X17827Y24500D01*
G01X17735Y24363D01*
G01X17690Y24136D01*
G01X17690Y24000D01*
G01X17735Y23773D01*
G01X17827Y23636D01*
G01X17964Y23590D01*
G01X18055Y23590D01*
G01X18190Y23636D01*
G01X18281Y23773D01*
G01X18327Y24000D01*
G01X18327Y24136D01*
G01X18281Y24363D01*
G01X18190Y24500D01*
G01X18055Y24544D01*
G01X17964Y24544D01*
G01X18627Y24227D02*
G01X18627Y23590D01*
G01X18627Y24044D02*
G01X18764Y24182D01*
G01X18855Y24227D01*
G01X18990Y24227D01*
G01X19081Y24182D01*
G01X19127Y24044D01*
G01X19127Y23590D01*
G01X19127Y24044D02*
G01X19264Y24182D01*
G01X19355Y24227D01*
G01X19490Y24227D01*
G01X19581Y24182D01*
G01X19627Y24044D01*
G01X19627Y23590D01*
G01X19927Y24544D02*
G01X19972Y24500D01*
G01X20018Y24544D01*
G01X19972Y24590D01*
G01X19927Y24544D01*
G01X19972Y24227D02*
G01X19972Y23590D01*
G01X20318Y24544D02*
G01X20318Y23590D01*
G54D39*
G75*
G01X5050Y15993D02*
G3X5052Y15993I1J-118D01*
G01*
G54D10*
G75*
G01X5450Y16269D02*
G3X5950Y16269I250J0D01*
G01*
G54D36*
G75*
G01X4204Y16363D02*
G3X4205Y16363I1J-59D01*
G01*
G54D40*
G75*
G01X22621Y7057D02*
G3X22621Y7058I79J0D01*
G01*
G75*
G01X22621Y2357D02*
G3X22621Y2358I79J0D01*
G01*
G54D10*
G75*
G01X2350Y9311D02*
G2X2700Y8650I-450J-661D01*
G01*
G75*
G01X2700Y5950D02*
G2X2350Y5289I-800J0D01*
G01*
G75*
G01X1400Y5950D02*
G3X1450Y5732I500J0D01*
G01*
G75*
G01X2400Y5950D02*
G2X2350Y5732I-500J0D01*
G01*
G75*
G01X1100Y5950D02*
G3X1450Y5289I800J0D01*
G01*
G75*
G01X1450Y9311D02*
G3X1100Y8650I450J-661D01*
G01*
G75*
G01X1450Y8868D02*
G3X1400Y8650I450J-218D01*
G01*
G75*
G01X2350Y8868D02*
G2X2400Y8650I-450J-218D01*
G01*
G75*
G01X21841Y20030D02*
G3X21841Y18470I-590J-780D01*
G01*
G75*
G01X31000Y7784D02*
G2X31000Y9084I554J650D01*
G01*
G75*
G01X31000Y9784D02*
G2X31000Y11084I526J650D01*
G01*
G75*
G01X30900Y2484D02*
G2X30900Y3784I554J650D01*
G01*
G75*
G01X30900Y4484D02*
G2X30900Y5784I526J650D01*
G01*
G75*
G01X19792Y12699D02*
G03X19792Y12699I-591J0D01*
G01*
G75*
G01X19890Y12699D02*
G03X19890Y12699I-689J0D01*
G01*
G75*
G01X21640Y4400D02*
G03X21640Y4400I-1240J0D01*
G01*
G75*
G01X21640Y8000D02*
G03X21640Y8000I-1240J0D01*
G01*
G75*
G01X24190Y12701D02*
G03X24190Y12701I-591J0D01*
G01*
G75*
G01X24288Y12701D02*
G03X24288Y12701I-689J0D01*
G01*
G54D36*
G75*
G01X11084Y3000D02*
G03X11084Y3000I-984J0D01*
G01*
G54D10*
G75*
G01X14190Y2899D02*
G03X14190Y2899I-591J0D01*
G01*
G75*
G01X14288Y2899D02*
G03X14288Y2899I-689J0D01*
G01*
G75*
G01X16290Y2899D02*
G03X16290Y2899I-591J0D01*
G01*
G75*
G01X16388Y2899D02*
G03X16388Y2899I-689J0D01*
G01*
G75*
G01X2014Y17318D02*
G03X2014Y17318I-295J0D01*
G01*
G75*
G01X2408Y17318D02*
G03X2408Y17318I-689J0D01*
G01*

%LPD*%
G36*
G01X19791Y12935D02*
G01X19397Y13289D01*
G01X19397Y12069D01*
G01X19752Y12265D01*
G01X19830Y12659D01*
G01X19791Y12935D01*
G37*

%LPD*%
G36*
G01X19500Y3550D02*
G01X21300Y3550D01*
G01X21300Y3550D01*
G01X21285Y3534D01*
G01X21270Y3518D01*
G01X21255Y3503D01*
G01X21240Y3488D01*
G01X21225Y3474D01*
G01X21209Y3459D01*
G01X21193Y3445D01*
G01X21177Y3431D01*
G01X21160Y3418D01*
G01X21143Y3404D01*
G01X21126Y3391D01*
G01X21109Y3379D01*
G01X21092Y3366D01*
G01X21074Y3354D01*
G01X21056Y3343D01*
G01X21038Y3331D01*
G01X21020Y3320D01*
G01X21001Y3309D01*
G01X20983Y3299D01*
G01X20964Y3289D01*
G01X20945Y3279D01*
G01X20926Y3270D01*
G01X20907Y3261D01*
G01X20887Y3252D01*
G01X20867Y3243D01*
G01X20848Y3235D01*
G01X20828Y3228D01*
G01X20808Y3220D01*
G01X20788Y3213D01*
G01X20767Y3207D01*
G01X20747Y3200D01*
G01X20726Y3194D01*
G01X20706Y3189D01*
G01X20685Y3184D01*
G01X20664Y3179D01*
G01X20643Y3174D01*
G01X20622Y3170D01*
G01X20601Y3166D01*
G01X20580Y3163D01*
G01X20559Y3160D01*
G01X20538Y3157D01*
G01X20517Y3155D01*
G01X20495Y3153D01*
G01X20474Y3152D01*
G01X20453Y3151D01*
G01X20432Y3150D01*
G01X20410Y3150D01*
G01X20389Y3150D01*
G01X20367Y3150D01*
G01X20346Y3151D01*
G01X20325Y3152D01*
G01X20304Y3153D01*
G01X20282Y3155D01*
G01X20261Y3157D01*
G01X20240Y3160D01*
G01X20219Y3163D01*
G01X20198Y3166D01*
G01X20177Y3170D01*
G01X20156Y3174D01*
G01X20135Y3179D01*
G01X20114Y3184D01*
G01X20093Y3189D01*
G01X20073Y3194D01*
G01X20052Y3200D01*
G01X20032Y3207D01*
G01X20011Y3213D01*
G01X19991Y3220D01*
G01X19971Y3228D01*
G01X19951Y3235D01*
G01X19932Y3243D01*
G01X19912Y3252D01*
G01X19892Y3261D01*
G01X19873Y3270D01*
G01X19854Y3279D01*
G01X19835Y3289D01*
G01X19816Y3299D01*
G01X19798Y3309D01*
G01X19779Y3320D01*
G01X19761Y3331D01*
G01X19743Y3343D01*
G01X19725Y3354D01*
G01X19707Y3366D01*
G01X19690Y3379D01*
G01X19673Y3391D01*
G01X19656Y3404D01*
G01X19639Y3418D01*
G01X19622Y3431D01*
G01X19606Y3445D01*
G01X19590Y3459D01*
G01X19574Y3474D01*
G01X19559Y3488D01*
G01X19544Y3503D01*
G01X19529Y3518D01*
G01X19514Y3534D01*
G01X19500Y3550D01*
G37*

%LPD*%
G36*
G01X19500Y7150D02*
G01X21300Y7150D01*
G01X21300Y7150D01*
G01X21285Y7134D01*
G01X21270Y7118D01*
G01X21255Y7103D01*
G01X21240Y7088D01*
G01X21225Y7074D01*
G01X21209Y7059D01*
G01X21193Y7045D01*
G01X21177Y7031D01*
G01X21160Y7018D01*
G01X21143Y7004D01*
G01X21126Y6991D01*
G01X21109Y6979D01*
G01X21092Y6966D01*
G01X21074Y6954D01*
G01X21056Y6943D01*
G01X21038Y6931D01*
G01X21020Y6920D01*
G01X21001Y6909D01*
G01X20983Y6899D01*
G01X20964Y6889D01*
G01X20945Y6879D01*
G01X20926Y6870D01*
G01X20907Y6861D01*
G01X20887Y6852D01*
G01X20867Y6843D01*
G01X20848Y6835D01*
G01X20828Y6828D01*
G01X20808Y6820D01*
G01X20788Y6813D01*
G01X20767Y6807D01*
G01X20747Y6800D01*
G01X20726Y6794D01*
G01X20706Y6789D01*
G01X20685Y6784D01*
G01X20664Y6779D01*
G01X20643Y6774D01*
G01X20622Y6770D01*
G01X20601Y6766D01*
G01X20580Y6763D01*
G01X20559Y6760D01*
G01X20538Y6757D01*
G01X20517Y6755D01*
G01X20495Y6753D01*
G01X20474Y6752D01*
G01X20453Y6751D01*
G01X20432Y6750D01*
G01X20410Y6750D01*
G01X20389Y6750D01*
G01X20367Y6750D01*
G01X20346Y6751D01*
G01X20325Y6752D01*
G01X20304Y6753D01*
G01X20282Y6755D01*
G01X20261Y6757D01*
G01X20240Y6760D01*
G01X20219Y6763D01*
G01X20198Y6766D01*
G01X20177Y6770D01*
G01X20156Y6774D01*
G01X20135Y6779D01*
G01X20114Y6784D01*
G01X20093Y6789D01*
G01X20073Y6794D01*
G01X20052Y6800D01*
G01X20032Y6807D01*
G01X20011Y6813D01*
G01X19991Y6820D01*
G01X19971Y6828D01*
G01X19951Y6835D01*
G01X19932Y6843D01*
G01X19912Y6852D01*
G01X19892Y6861D01*
G01X19873Y6870D01*
G01X19854Y6879D01*
G01X19835Y6889D01*
G01X19816Y6899D01*
G01X19798Y6909D01*
G01X19779Y6920D01*
G01X19761Y6931D01*
G01X19743Y6943D01*
G01X19725Y6954D01*
G01X19707Y6966D01*
G01X19690Y6979D01*
G01X19673Y6991D01*
G01X19656Y7004D01*
G01X19639Y7018D01*
G01X19622Y7031D01*
G01X19606Y7045D01*
G01X19590Y7059D01*
G01X19574Y7074D01*
G01X19559Y7088D01*
G01X19544Y7103D01*
G01X19529Y7118D01*
G01X19514Y7134D01*
G01X19500Y7150D01*
G37*

%LPD*%
G36*
G01X23008Y12464D02*
G01X23402Y12110D01*
G01X23402Y13330D01*
G01X23047Y13134D01*
G01X22969Y12740D01*
G01X23008Y12464D01*
G37*

%LPD*%
G36*
G01X10806Y2350D02*
G01X10806Y3650D01*
G01X10806Y3650D01*
G01X10817Y3638D01*
G01X10828Y3627D01*
G01X10839Y3616D01*
G01X10850Y3604D01*
G01X10860Y3593D01*
G01X10871Y3581D01*
G01X10881Y3568D01*
G01X10891Y3556D01*
G01X10900Y3544D01*
G01X10910Y3531D01*
G01X10919Y3518D01*
G01X10928Y3505D01*
G01X10937Y3492D01*
G01X10945Y3479D01*
G01X10954Y3465D01*
G01X10962Y3452D01*
G01X10970Y3438D01*
G01X10977Y3424D01*
G01X10984Y3410D01*
G01X10992Y3396D01*
G01X10998Y3382D01*
G01X11005Y3367D01*
G01X11011Y3353D01*
G01X11017Y3338D01*
G01X11023Y3324D01*
G01X11029Y3309D01*
G01X11034Y3294D01*
G01X11039Y3279D01*
G01X11044Y3264D01*
G01X11048Y3249D01*
G01X11053Y3234D01*
G01X11057Y3218D01*
G01X11060Y3203D01*
G01X11064Y3188D01*
G01X11067Y3172D01*
G01X11070Y3157D01*
G01X11073Y3141D01*
G01X11075Y3125D01*
G01X11077Y3110D01*
G01X11079Y3094D01*
G01X11080Y3078D01*
G01X11082Y3063D01*
G01X11083Y3047D01*
G01X11083Y3031D01*
G01X11084Y3015D01*
G01X11084Y3000D01*
G01X11084Y2984D01*
G01X11083Y2968D01*
G01X11083Y2952D01*
G01X11082Y2936D01*
G01X11080Y2921D01*
G01X11079Y2905D01*
G01X11077Y2889D01*
G01X11075Y2874D01*
G01X11073Y2858D01*
G01X11070Y2842D01*
G01X11067Y2827D01*
G01X11064Y2811D01*
G01X11060Y2796D01*
G01X11057Y2781D01*
G01X11053Y2765D01*
G01X11048Y2750D01*
G01X11044Y2735D01*
G01X11039Y2720D01*
G01X11034Y2705D01*
G01X11029Y2690D01*
G01X11023Y2675D01*
G01X11017Y2661D01*
G01X11011Y2646D01*
G01X11005Y2632D01*
G01X10998Y2617D01*
G01X10992Y2603D01*
G01X10984Y2589D01*
G01X10977Y2575D01*
G01X10970Y2561D01*
G01X10962Y2547D01*
G01X10954Y2534D01*
G01X10945Y2520D01*
G01X10937Y2507D01*
G01X10928Y2494D01*
G01X10919Y2481D01*
G01X10910Y2468D01*
G01X10900Y2455D01*
G01X10891Y2443D01*
G01X10881Y2431D01*
G01X10871Y2418D01*
G01X10860Y2406D01*
G01X10850Y2395D01*
G01X10839Y2383D01*
G01X10828Y2372D01*
G01X10817Y2361D01*
G01X10806Y2350D01*
G37*

%LPD*%
G36*
G01X13835Y2308D02*
G01X14189Y2702D01*
G01X12969Y2702D01*
G01X13165Y2347D01*
G01X13559Y2269D01*
G01X13835Y2308D01*
G37*

%LPD*%
G36*
G01X15935Y2308D02*
G01X16289Y2702D01*
G01X15069Y2702D01*
G01X15265Y2347D01*
G01X15659Y2269D01*
G01X15935Y2308D01*
G37*
M00*
M02*
