G04 ---------------------------- Layer name :TOP LAYER*
G04 EasyEDA v5.8.20, Sat, 24 Nov 2018 05:51:01 GMT*
G04 e67e47d913b1430cad7dbea7a16fc948*
G04 Gerber Generator version 0.2*
G04 Scale: 100 percent, Rotated: No, Reflected: No *
G04 Dimensions in inches *
G04 leading zeros omitted , absolute positions ,2 integer and 4 decimal *
%FSLAX24Y24*%
%MOIN*%
G90*
G70D02*

%ADD11C,0.059055*%
%ADD12R,0.059055X0.059055*%
%ADD13R,0.098425X0.078740*%
%ADD14C,0.074000*%
%ADD15R,0.035700X0.035700*%
%ADD16C,0.047000*%
%ADD17C,0.075000*%
%ADD18C,0.110000*%
%ADD19C,0.118110*%
%ADD20C,0.055120*%
%ADD21C,0.060000*%
%ADD22C,0.051181*%
%ADD23C,0.062000*%
%ADD24R,0.062000X0.062000*%
%ADD25C,0.078740*%
%ADD26C,0.039370*%

%LPD*%
G54D11*
G01X7200Y2800D03*
G01X7200Y3800D03*
G01X7200Y4800D03*
G01X7200Y5800D03*
G01X7200Y6800D03*
G01X7200Y7800D03*
G01X7200Y8800D03*
G01X7200Y9800D03*
G01X7200Y10800D03*
G01X7200Y11800D03*
G01X7200Y12800D03*
G01X7200Y13800D03*
G01X7200Y14800D03*
G01X7200Y15800D03*
G01X4200Y2800D03*
G01X4200Y3800D03*
G01X4200Y4800D03*
G01X4200Y5800D03*
G01X4200Y6800D03*
G01X4200Y7800D03*
G01X4200Y8800D03*
G01X4200Y9800D03*
G01X4200Y10800D03*
G01X4200Y11800D03*
G01X4200Y12800D03*
G01X4200Y13800D03*
G01X4200Y14800D03*
G54D12*
G01X4200Y15800D03*
G54D13*
G01X22700Y7750D03*
G01X22700Y3050D03*
G54D14*
G01X4200Y17500D03*
G01X7200Y17500D03*
G54D15*
G01X1900Y8259D03*
G01X1900Y6339D03*
G54D16*
G01X2909Y10330D03*
G01X1909Y10330D03*
G01X2909Y4130D03*
G01X1909Y4130D03*
G54D14*
G01X16500Y17600D03*
G01X20500Y17600D03*
G54D17*
G01X21400Y16200D03*
G01X18400Y16200D03*
G54D18*
G01X28890Y15038D03*
G01X23300Y17400D03*
G01X24086Y19761D03*
G01X24086Y15038D03*
G01X28890Y19761D03*
G54D19*
G01X29500Y8400D03*
G01X29500Y10367D03*
G54D20*
G01X18727Y12700D03*
G01X19672Y12700D03*
G54D14*
G01X18700Y11000D03*
G01X21700Y11000D03*
G54D21*
G01X20400Y4900D03*
G01X20400Y3900D03*
G01X20400Y8500D03*
G01X20400Y7500D03*
G54D20*
G01X24072Y12700D03*
G01X23127Y12700D03*
G54D14*
G01X26200Y13600D03*
G01X30200Y13600D03*
G54D22*
G01X9706Y3000D03*
G01X10493Y3000D03*
G54D23*
G01X9700Y19500D03*
G01X10700Y19500D03*
G01X11700Y19500D03*
G01X12700Y19500D03*
G01X13700Y19500D03*
G54D24*
G01X14700Y19500D03*
G54D14*
G01X7300Y20200D03*
G01X3300Y20200D03*
G54D21*
G01X2000Y14800D03*
G01X2000Y13800D03*
G01X2000Y12800D03*
G01X2000Y11800D03*
G54D19*
G01X29400Y3100D03*
G01X29400Y5067D03*
G54D20*
G01X13600Y3373D03*
G01X13600Y2426D03*
G01X15700Y3373D03*
G01X15700Y2426D03*
G54D14*
G01X9200Y14100D03*
G01X13200Y14100D03*
G01X9200Y12900D03*
G01X13200Y12900D03*
G01X3300Y21700D03*
G01X7300Y21700D03*
G54D25*
G01X814Y18579D03*
G01X814Y16020D03*
G01X2585Y16020D03*
G01X2585Y18579D03*
G01X22602Y9750D02*
G01X22797Y9750D01*
G01X22602Y8750D02*
G01X22797Y8750D01*
G01X22602Y5050D02*
G01X22797Y5050D01*
G01X22602Y4050D02*
G01X22797Y4050D01*
G54D26*
G01X21052Y18750D02*
G01X21447Y18750D01*
G01X21052Y19250D02*
G01X21447Y19250D01*
G01X21052Y19750D02*
G01X21447Y19750D01*
G01X25525Y10827D02*
G01X26076Y10827D01*
G01X25523Y2172D02*
G01X26074Y2172D01*
M00*
M02*
