;PTH Drill file created by EasyEDA 
M48
INCH,LZ,00.0000
;Holesize 1 = 0.020 INCH
T01C0.020
;Holesize 2 = 0.024 INCH
T02C0.024
;Holesize 3 = 0.028 INCH
T03C0.028
;Holesize 4 = 0.028 INCH
T04C0.028
;Holesize 5 = 0.032 INCH
T05C0.032
;Holesize 6 = 0.035 INCH
T06C0.035
;Holesize 7 = 0.035 INCH
T07C0.035
;Holesize 8 = 0.035 INCH
T08C0.035
;Holesize 9 = 0.036 INCH
T09C0.036
;Holesize 10 = 0.039 INCH
T10C0.039
;Holesize 11 = 0.043 INCH
T11C0.043
;Holesize 12 = 0.047 INCH
T12C0.047
;Holesize 13 = 0.051 INCH
T13C0.051
;Holesize 14 = 0.060 INCH
T14C0.060
;Holesize 15 = 0.067 INCH
T15C0.067
%
G05
G90
T01
X+001900Y+008259
X+001900Y+006339
T02
X+025564Y+010827G85X+026037Y+010827
X+025562Y+002172G85X+026035Y+002172
T03
X+021250Y+018750
X+021250Y+019250
X+021250Y+019750
T04
X+002909Y+010330
X+001909Y+010330
X+002909Y+004130
X+001909Y+004130
T05
X+018727Y+012700
X+019672Y+012700
X+024072Y+012700
X+023127Y+012700
X+009706Y+003000
X+010493Y+003000
X+013600Y+003373
X+013600Y+002426
X+015700Y+003373
X+015700Y+002426
T06
X+009700Y+019500
X+010700Y+019500
X+011700Y+019500
X+012700Y+019500
X+013700Y+019500
X+014700Y+019500
T07
X+004200Y+017500
X+007200Y+017500
X+016500Y+017600
X+020500Y+017600
X+018700Y+011000
X+021700Y+011000
X+026200Y+013600
X+030200Y+013600
X+007300Y+020200
X+003300Y+020200
X+009200Y+014100
X+013200Y+014100
X+009200Y+012900
X+013200Y+012900
X+003300Y+021700
X+007300Y+021700
T08
X+007200Y+002800
X+007200Y+003800
X+007200Y+004800
X+007200Y+005800
X+007200Y+006800
X+007200Y+007800
X+007200Y+008800
X+007200Y+009800
X+007200Y+010800
X+007200Y+011800
X+007200Y+012800
X+007200Y+013800
X+007200Y+014800
X+007200Y+015800
X+004200Y+002800
X+004200Y+003800
X+004200Y+004800
X+004200Y+005800
X+004200Y+006800
X+004200Y+007800
X+004200Y+008800
X+004200Y+009800
X+004200Y+010800
X+004200Y+011800
X+004200Y+012800
X+004200Y+013800
X+004200Y+014800
X+004200Y+015800
T09
X+020400Y+004900
X+020400Y+003900
X+020400Y+008500
X+020400Y+007500
T10
X+002000Y+014800
X+002000Y+013800
X+002000Y+012800
X+002000Y+011800
T11
X+021400Y+016200
X+018400Y+016200
T12
X+000814Y+018579
X+000814Y+016020
X+002585Y+016020
X+002585Y+018579
T13
X+022700Y+007750
X+022700Y+009750
X+022700Y+008750
X+022700Y+003050
X+022700Y+005050
X+022700Y+004050
T14
X+028890Y+015038
X+023300Y+017400
X+024086Y+019761
X+024086Y+015038
X+028890Y+019761
T15
X+029500Y+008400
X+029500Y+010367
X+029400Y+003100
X+029400Y+005067
M30
